Girassol-Display.ufo
<glyph name="numbersign" format="2">
  <advance width="540"/>
  <unicode hex="0023"/>
  <outline>
    <contour>
      <point x="115" y="0" type="line"/>
      <point x="179" y="0" type="line"/>
      <point x="194" y="162" type="line"/>
      <point x="164" y="136" type="line"/>
      <point x="328" y="136" type="line"/>
      <point x="304" y="162" type="line"/>
      <point x="283" y="0" type="line"/>
      <point x="347" y="0" type="line"/>
      <point x="362" y="162" type="line"/>
      <point x="332" y="136" type="line"/>
      <point x="430" y="132" type="line"/>
      <point x="431" y="196" type="line"/>
      <point x="339" y="192" type="line"/>
      <point x="363" y="166" type="line"/>
      <point x="385" y="370" type="line"/>
      <point x="355" y="344" type="line"/>
      <point x="470" y="340" type="line"/>
      <point x="470" y="404" type="line"/>
      <point x="362" y="400" type="line"/>
      <point x="386" y="374" type="line"/>
      <point x="407" y="539" type="line"/>
      <point x="343" y="539" type="line"/>
      <point x="328" y="374" type="line"/>
      <point x="358" y="400" type="line"/>
      <point x="194" y="400" type="line"/>
      <point x="218" y="374" type="line"/>
      <point x="239" y="539" type="line"/>
      <point x="175" y="539" type="line"/>
      <point x="160" y="374" type="line"/>
      <point x="190" y="400" type="line"/>
      <point x="82" y="404" type="line"/>
      <point x="82" y="340" type="line"/>
      <point x="183" y="344" type="line"/>
      <point x="159" y="370" type="line"/>
      <point x="137" y="166" type="line"/>
      <point x="167" y="192" type="line"/>
      <point x="52" y="196" type="line"/>
      <point x="52" y="132" type="line"/>
      <point x="160" y="136" type="line"/>
      <point x="136" y="162" type="line"/>
    </contour>
    <contour>
      <point x="171" y="192" type="line"/>
      <point x="195" y="166" type="line"/>
      <point x="217" y="370" type="line"/>
      <point x="187" y="344" type="line"/>
      <point x="351" y="344" type="line"/>
      <point x="327" y="370" type="line"/>
      <point x="305" y="166" type="line"/>
      <point x="335" y="192" type="line"/>
    </contour>
  </outline>
</glyph>
<glyph name="percent" format="2">
  <advance width="880"/>
  <unicode hex="0025"/>
  <outline>
    <contour>
      <point x="379" y="512" type="curve"/>
      <point x="379" y="619"/>
      <point x="311" y="682"/>
      <point x="210" y="682" type="curve"/>
      <point x="105" y="682"/>
      <point x="40" y="621"/>
      <point x="40" y="512" type="curve"/>
      <point x="40" y="404"/>
      <point x="106" y="342"/>
      <point x="210" y="342" type="curve"/>
      <point x="315" y="342"/>
      <point x="379" y="403"/>
    </contour>
    <contour>
      <point x="126" y="514" type="curve"/>
      <point x="126" y="608"/>
      <point x="155" y="651"/>
      <point x="209" y="651" type="curve"/>
      <point x="265" y="651"/>
      <point x="294" y="608"/>
      <point x="294" y="514" type="curve"/>
      <point x="294" y="420"/>
      <point x="264" y="376"/>
      <point x="210" y="376" type="curve"/>
      <point x="155" y="376"/>
      <point x="126" y="420"/>
    </contour>
    <contour>
      <point x="840" y="225" type="curve"/>
      <point x="840" y="332"/>
      <point x="772" y="395"/>
      <point x="671" y="395" type="curve"/>
      <point x="566" y="395"/>
      <point x="501" y="334"/>
      <point x="501" y="225" type="curve"/>
      <point x="501" y="117"/>
      <point x="567" y="55"/>
      <point x="671" y="55" type="curve"/>
      <point x="776" y="55"/>
      <point x="840" y="116"/>
    </contour>
    <contour>
      <point x="587" y="227" type="curve"/>
      <point x="587" y="321"/>
      <point x="616" y="364"/>
      <point x="670" y="364" type="curve"/>
      <point x="726" y="364"/>
      <point x="755" y="321"/>
      <point x="755" y="227" type="curve"/>
      <point x="755" y="133"/>
      <point x="725" y="89"/>
      <point x="671" y="89" type="curve"/>
      <point x="616" y="89"/>
      <point x="587" y="133"/>
    </contour>
    <component base="slash" xOffset="158"/>
  </outline>
</glyph>
<glyph name="ampersand" format="2">
  <advance width="524"/>
  <unicode hex="0026"/>
  <outline>
    <contour>
      <point x="165" y="614" type="line" smooth="yes"/>
      <point x="165" y="672"/>
      <point x="208.0" y="719.0"/>
      <point x="259" y="719" type="curve"/>
      <point x="312" y="719"/>
      <point x="333" y="697"/>
      <point x="372" y="598" type="curve"/>
      <point x="406" y="607" type="line"/>
      <point x="362" y="788" type="line"/>
      <point x="328" y="788" type="line"/>
      <point x="311.0" y="754.0"/>
      <point x="277" y="759"/>
      <point x="250" y="759" type="curve"/>
      <point x="118.0" y="759.0"/>
      <point x="48" y="685"/>
      <point x="48" y="566" type="curve"/>
      <point x="48" y="483"/>
      <point x="71" y="432"/>
      <point x="153" y="393" type="curve"/>
      <point x="153" y="419" type="line"/>
      <point x="70" y="380"/>
      <point x="48" y="326"/>
      <point x="48" y="234" type="curve" smooth="yes"/>
      <point x="48" y="209" type="line" smooth="yes"/>
      <point x="48" y="68"/>
      <point x="106" y="-5"/>
      <point x="233" y="-5" type="curve"/>
      <point x="356" y="-5"/>
      <point x="409" y="65"/>
      <point x="409" y="209" type="curve" smooth="yes"/>
      <point x="409" y="260" type="line"/>
      <point x="478" y="280"/>
      <point x="528" y="343"/>
      <point x="528" y="408" type="curve" smooth="yes"/>
      <point x="528" y="454"/>
      <point x="487" y="489"/>
      <point x="448" y="489" type="curve" smooth="yes"/>
      <point x="405" y="489"/>
      <point x="369" y="451"/>
      <point x="369" y="407" type="curve" smooth="yes"/>
      <point x="369" y="365"/>
      <point x="403" y="337"/>
      <point x="444" y="337" type="curve"/>
      <point x="444" y="337"/>
      <point x="428" y="301"/>
      <point x="362" y="301" type="curve" smooth="yes"/>
      <point x="315" y="301"/>
      <point x="302" y="280"/>
      <point x="302" y="245" type="curve" smooth="yes"/>
      <point x="302" y="131" type="line" smooth="yes"/>
      <point x="302" y="68"/>
      <point x="276" y="35"/>
      <point x="233" y="35" type="curve"/>
      <point x="189" y="35"/>
      <point x="165" y="72"/>
      <point x="165" y="131" type="curve"/>
      <point x="165" y="285" type="line" smooth="yes"/>
      <point x="165.0" y="359.0"/>
      <point x="184" y="385"/>
      <point x="233" y="385" type="curve" smooth="yes"/>
      <point x="258" y="385" type="line"/>
      <point x="258" y="429" type="line"/>
      <point x="233" y="429" type="line" smooth="yes"/>
      <point x="190" y="429"/>
      <point x="165.0" y="461.0"/>
      <point x="165" y="525" type="curve" smooth="yes"/>
    </contour>
  </outline>
</glyph>
<glyph name="parenleft" format="2">
  <advance width="240"/>
  <unicode hex="0028"/>
  <outline>
    <contour>
      <point x="98" y="45" type="curve" smooth="yes"/>
      <point x="98" y="516" type="line" smooth="yes"/>
      <point x="98" y="657"/>
      <point x="127" y="702"/>
      <point x="252" y="750" type="curve"/>
      <point x="252" y="800" type="line"/>
      <point x="55" y="750"/>
      <point x="0" y="671"/>
      <point x="0" y="436" type="curve" smooth="yes"/>
      <point x="0" y="114" type="line" smooth="yes"/>
      <point x="0" y="-122"/>
      <point x="55" y="-201"/>
      <point x="252" y="-250" type="curve"/>
      <point x="252" y="-200" type="line"/>
      <point x="127" y="-144"/>
      <point x="98" y="-98"/>
    </contour>
  </outline>
</glyph>
<glyph name="plus" format="2">
  <advance width="538"/>
  <unicode hex="002B"/>
  <outline>
    <contour>
      <point x="219" y="21" type="line"/>
      <point x="319" y="21" type="line"/>
      <point x="316" y="252" type="line"/>
      <point x="289" y="225" type="line"/>
      <point x="508" y="222" type="line"/>
      <point x="508" y="318" type="line"/>
      <point x="289" y="315" type="line"/>
      <point x="316" y="288" type="line"/>
      <point x="319" y="519" type="line"/>
      <point x="219" y="519" type="line"/>
      <point x="222" y="288" type="line"/>
      <point x="249" y="315" type="line"/>
      <point x="30" y="318" type="line"/>
      <point x="30" y="222" type="line"/>
      <point x="249" y="225" type="line"/>
      <point x="222" y="252" type="line"/>
    </contour>
  </outline>
</glyph>
<glyph name="comma" format="2">
  <advance width="179"/>
  <unicode hex="002C"/>
  <outline>
    <contour>
      <point x="77" y="39" type="line"/>
      <point x="87.0" y="-2.0"/>
      <point x="80" y="-32"/>
      <point x="59" y="-48" type="curve" smooth="yes"/>
      <point x="44" y="-59" type="line"/>
      <point x="64" y="-87" type="line"/>
      <point x="86" y="-70" type="line" smooth="yes"/>
      <point x="125" y="-40"/>
      <point x="143" y="-1.0"/>
      <point x="143" y="54" type="curve"/>
      <point x="143" y="93"/>
      <point x="124" y="115"/>
      <point x="91" y="115" type="curve"/>
      <point x="55" y="115"/>
      <point x="36" y="94"/>
      <point x="36" y="54" type="curve"/>
      <point x="36" y="16"/>
      <point x="55" y="-5"/>
      <point x="91" y="-5" type="curve"/>
    </contour>
  </outline>
</glyph>
<glyph name="hyphen" format="2">
  <advance width="540"/>
  <unicode hex="002D"/>
  <outline>
    <contour>
      <point x="70" y="302" type="line"/>
      <point x="468" y="302" type="line"/>
      <point x="468" y="378" type="line"/>
      <point x="70" y="378" type="line"/>
    </contour>
  </outline>
</glyph>
<glyph name="period" format="2">
  <advance width="181"/>
  <unicode hex="002E"/>
  <outline>
    <contour>
      <point x="157" y="57" type="curve"/>
      <point x="157" y="99"/>
      <point x="128" y="131"/>
      <point x="90" y="132" type="curve" smooth="yes"/>
      <point x="54" y="133"/>
      <point x="24" y="103"/>
      <point x="24" y="66" type="curve"/>
      <point x="24" y="24"/>
      <point x="53" y="-6"/>
      <point x="91" y="-7" type="curve" smooth="yes"/>
      <point x="127" y="-8"/>
      <point x="157" y="20"/>
    </contour>
  </outline>
</glyph>
<glyph name="zero" format="2">
  <advance width="540"/>
  <unicode hex="0030"/>
  <outline>
    <contour>
      <point x="45" y="375" type="curve"/>
      <point x="45.0" y="87"/>
      <point x="104" y="-10.0"/>
      <point x="272" y="-10" type="curve"/>
      <point x="425" y="-10.0"/>
      <point x="495.0" y="82.0"/>
      <point x="495" y="375" type="curve"/>
      <point x="495.0" y="668.0"/>
      <point x="440.0" y="760.0"/>
      <point x="272" y="760" type="curve"/>
      <point x="104.0" y="760.0"/>
      <point x="45.0" y="663.0"/>
    </contour>
    <contour>
      <point x="385" y="373" type="curve"/>
      <point x="385.0" y="139.76023391812868"/>
      <point x="349.0" y="35.0"/>
      <point x="272" y="35" type="curve"/>
      <point x="193.0" y="35.0"/>
      <point x="159.0" y="132.8421052631579"/>
      <point x="159" y="373" type="curve"/>
      <point x="159.0" y="618.5722543352601"/>
      <point x="193.0" y="717.0"/>
      <point x="272" y="717" type="curve"/>
      <point x="350.0" y="717.0"/>
      <point x="385.0" y="611.6127167630058"/>
    </contour>
  </outline>
</glyph>
<glyph name="one" format="2">
  <advance width="540"/>
  <unicode hex="0031"/>
  <guideline x="169" y="760" angle="0" identifier="Fe3V2waFTF"/>
  <guideline x="30" y="21" angle="90" identifier="rCKPlBlMIl"/>
  <outline>
    <contour>
      <point x="214" y="604" type="line"/>
      <point x="214" y="11" type="line"/>
      <point x="326" y="11" type="line"/>
      <point x="326" y="770" type="line"/>
      <point x="289" y="770" type="line"/>
      <point x="260" y="710"/>
      <point x="200" y="660"/>
      <point x="134" y="640" type="curve"/>
      <point x="134" y="604" type="line"/>
    </contour>
    <contour>
      <point x="134" y="37" type="curve"/>
      <point x="134" y="0" type="line"/>
      <point x="406" y="0" type="line"/>
      <point x="406" y="37" type="line"/>
      <point x="349" y="37.0"/>
      <point x="326.0" y="52"/>
      <point x="326" y="90" type="curve"/>
      <point x="214" y="90" type="line"/>
      <point x="214.0" y="52"/>
      <point x="191" y="37.0"/>
    </contour>
  </outline>
</glyph>
<glyph name="two" format="2">
  <advance width="540"/>
  <unicode hex="0032"/>
  <outline>
    <contour>
      <point x="351" y="557" type="curve"/>
      <point x="351.0" y="362"/>
      <point x="57" y="246.0"/>
      <point x="57" y="62" type="curve" smooth="yes"/>
      <point x="57" y="1" type="line"/>
      <point x="361" y="1" type="line" smooth="yes"/>
      <point x="396.0" y="1.0"/>
      <point x="409" y="-4"/>
      <point x="410" y="-18" type="curve"/>
      <point x="443" y="-18" type="line"/>
      <point x="484" y="205" type="line"/>
      <point x="451" y="214" type="line"/>
      <point x="411" y="115"/>
      <point x="393" y="101"/>
      <point x="305" y="101" type="curve" smooth="yes"/>
      <point x="82" y="101" type="line"/>
      <point x="123" y="46" type="line"/>
      <point x="122" y="243"/>
      <point x="463.0" y="341"/>
      <point x="463" y="555" type="curve"/>
      <point x="463.0" y="673.0"/>
      <point x="373.0" y="760.0"/>
      <point x="249" y="760" type="curve"/>
      <point x="137.0" y="760.0"/>
      <point x="56.0" y="694.0"/>
      <point x="56" y="604" type="curve"/>
      <point x="56" y="555"/>
      <point x="91" y="516"/>
      <point x="136" y="515" type="curve" smooth="yes"/>
      <point x="178" y="514"/>
      <point x="214" y="548"/>
      <point x="214" y="588" type="curve"/>
      <point x="214.0" y="629.0"/>
      <point x="177.0" y="661.0"/>
      <point x="120" y="668" type="curve"/>
      <point x="134" y="634" type="line"/>
      <point x="153" y="685"/>
      <point x="189.0" y="710.0"/>
      <point x="240" y="710" type="curve"/>
      <point x="302" y="710.0"/>
      <point x="351.0" y="642.0"/>
    </contour>
  </outline>
</glyph>
<glyph name="three" format="2">
  <advance width="540"/>
  <unicode hex="0033"/>
  <outline>
    <contour>
      <point x="249" y="712" type="curve"/>
      <point x="316" y="712.0"/>
      <point x="352.0" y="665"/>
      <point x="352" y="578" type="curve"/>
      <point x="352.0" y="506.0"/>
      <point x="306.0" y="440.0"/>
      <point x="233" y="410" type="curve"/>
      <point x="233" y="410"/>
      <point x="263" y="370"/>
      <point x="263" y="370" type="curve"/>
      <point x="331.0" y="370"/>
      <point x="365" y="317.0"/>
      <point x="365" y="213" type="curve"/>
      <point x="365.0" y="98"/>
      <point x="323.0" y="39.0"/>
      <point x="243" y="39" type="curve"/>
      <point x="192.0" y="39"/>
      <point x="157" y="65"/>
      <point x="138" y="116" type="curve"/>
      <point x="124" y="82" type="line"/>
      <point x="181.0" y="89.0"/>
      <point x="218.0" y="121.0"/>
      <point x="218" y="162" type="curve"/>
      <point x="218" y="202"/>
      <point x="182" y="236"/>
      <point x="140" y="235" type="curve" smooth="yes"/>
      <point x="95" y="234"/>
      <point x="60" y="195"/>
      <point x="60" y="146" type="curve"/>
      <point x="60.0" y="56"/>
      <point x="141" y="-10.0"/>
      <point x="253" y="-10" type="curve"/>
      <point x="401" y="-10.0"/>
      <point x="480.0" y="70.0"/>
      <point x="480" y="225" type="curve"/>
      <point x="480.0" y="317.0"/>
      <point x="420.0" y="396"/>
      <point x="331" y="422" type="curve"/>
      <point x="331" y="400" type="line"/>
      <point x="411" y="431"/>
      <point x="459.0" y="498.0"/>
      <point x="459" y="580" type="curve"/>
      <point x="460" y="691"/>
      <point x="386" y="760.0"/>
      <point x="263" y="760" type="curve"/>
      <point x="151.0" y="760.0"/>
      <point x="70.0" y="694.0"/>
      <point x="70" y="604" type="curve"/>
      <point x="70" y="555"/>
      <point x="105" y="516"/>
      <point x="150" y="515" type="curve" smooth="yes"/>
      <point x="192" y="514"/>
      <point x="228" y="548"/>
      <point x="228" y="588" type="curve"/>
      <point x="228.0" y="629.0"/>
      <point x="191.0" y="661.0"/>
      <point x="134" y="668" type="curve"/>
      <point x="148" y="634" type="line"/>
      <point x="160" y="680"/>
      <point x="201" y="712.0"/>
    </contour>
  </outline>
</glyph>
<glyph name="four" format="2">
  <advance width="540"/>
  <unicode hex="0034"/>
  <outline>
    <contour>
      <point x="216" y="37" type="curve"/>
      <point x="216" y="0" type="line"/>
      <point x="488" y="0" type="line"/>
      <point x="488" y="37" type="line"/>
      <point x="431" y="37.0"/>
      <point x="408.0" y="52"/>
      <point x="408" y="90" type="curve"/>
      <point x="296" y="90" type="line"/>
      <point x="296.0" y="52"/>
      <point x="273" y="37.0"/>
    </contour>
    <contour>
      <point x="308" y="591" type="line"/>
      <point x="296" y="657" type="line"/>
      <point x="296" y="11" type="line"/>
      <point x="408" y="11" type="line"/>
      <point x="408" y="770" type="line"/>
      <point x="360" y="770" type="line"/>
      <point x="42" y="278" type="line"/>
      <point x="42" y="230" type="line"/>
      <point x="475" y="230" type="line"/>
      <point x="475" y="280" type="line"/>
      <point x="63" y="280" type="line"/>
      <point x="101" y="263" type="line"/>
    </contour>
    <contour>
      <point x="461.0" y="170" type="curve"/>
      <point x="498.0" y="170.0" type="line"/>
      <point x="498.0" y="340.0" type="line"/>
      <point x="461.0" y="340.0" type="line"/>
      <point x="461.0" y="297"/>
      <point x="449" y="280.0"/>
      <point x="418.0" y="280.0" type="curve"/>
      <point x="418.0" y="230.0" type="line"/>
      <point x="449" y="230.0"/>
      <point x="461.0" y="213"/>
    </contour>
  </outline>
</glyph>
<glyph name="five" format="2">
  <advance width="540"/>
  <unicode hex="0035"/>
  <outline>
    <contour>
      <point x="143" y="359" type="line"/>
      <point x="163" y="386"/>
      <point x="216" y="410"/>
      <point x="252" y="410" type="curve" smooth="yes"/>
      <point x="322" y="410"/>
      <point x="374" y="329"/>
      <point x="374" y="223" type="curve"/>
      <point x="374" y="112"/>
      <point x="317" y="39"/>
      <point x="234" y="39" type="curve"/>
      <point x="193" y="39"/>
      <point x="155" y="65"/>
      <point x="127" y="114" type="curve"/>
      <point x="114" y="80" type="line"/>
      <point x="176" y="99"/>
      <point x="204" y="126"/>
      <point x="204" y="165" type="curve"/>
      <point x="204" y="207"/>
      <point x="173" y="236"/>
      <point x="131" y="235" type="curve" smooth="yes"/>
      <point x="86" y="234"/>
      <point x="51" y="195"/>
      <point x="51" y="146" type="curve"/>
      <point x="51" y="56"/>
      <point x="132" y="-10"/>
      <point x="244" y="-10" type="curve"/>
      <point x="396" y="-10"/>
      <point x="489" y="85"/>
      <point x="489" y="235" type="curve"/>
      <point x="489" y="359"/>
      <point x="384" y="462"/>
      <point x="262" y="462" type="curve" smooth="yes"/>
      <point x="231" y="462"/>
      <point x="181" y="449"/>
      <point x="140" y="429" type="curve"/>
      <point x="164" y="411" type="line"/>
      <point x="191" y="690" type="line"/>
      <point x="158" y="661" type="line"/>
      <point x="255" y="661" type="line" smooth="yes"/>
      <point x="340" y="661"/>
      <point x="371" y="636"/>
      <point x="411" y="537" type="curve"/>
      <point x="444" y="546" type="line"/>
      <point x="403" y="769" type="line"/>
      <point x="370" y="769" type="line"/>
      <point x="369" y="755"/>
      <point x="356" y="750"/>
      <point x="321" y="750" type="curve" smooth="yes"/>
      <point x="139" y="750" type="line"/>
      <point x="104" y="398" type="line"/>
    </contour>
  </outline>
</glyph>
<glyph name="six" format="2">
  <advance width="540"/>
  <unicode hex="0036"/>
  <outline>
    <contour>
      <point x="153" y="224" type="curve"/>
      <point x="153" y="331.0"/>
      <point x="197.0" y="395"/>
      <point x="271" y="395" type="curve"/>
      <point x="349" y="395.0"/>
      <point x="393.0" y="333.0"/>
      <point x="393" y="224" type="curve"/>
      <point x="393.0" y="101"/>
      <point x="351.0" y="37.0"/>
      <point x="271" y="37" type="curve"/>
      <point x="199" y="36"/>
      <point x="153" y="109"/>
    </contour>
    <contour>
      <point x="283" y="716" type="curve"/>
      <point x="336.0" y="716.0"/>
      <point x="384" y="683"/>
      <point x="396" y="637" type="curve"/>
      <point x="410" y="671" type="line"/>
      <point x="353.0" y="664.0"/>
      <point x="316.0" y="632.0"/>
      <point x="316" y="591" type="curve"/>
      <point x="316" y="551"/>
      <point x="352" y="517"/>
      <point x="394" y="518" type="curve" smooth="yes"/>
      <point x="439" y="519"/>
      <point x="474" y="558"/>
      <point x="474" y="607" type="curve"/>
      <point x="474.0" y="697.0"/>
      <point x="393.0" y="763.0"/>
      <point x="281" y="763" type="curve"/>
      <point x="111.0" y="762.0"/>
      <point x="43" y="632"/>
      <point x="47" y="308" type="curve"/>
      <point x="50" y="94"/>
      <point x="123" y="-8"/>
      <point x="274" y="-8" type="curve"/>
      <point x="412.0" y="-8.0"/>
      <point x="492" y="76.0"/>
      <point x="493" y="223" type="curve"/>
      <point x="492" y="360"/>
      <point x="409" y="447.0"/>
      <point x="281" y="447" type="curve"/>
      <point x="227.0" y="447.0"/>
      <point x="197.0" y="437.0"/>
      <point x="146" y="404" type="curve"/>
      <point x="153" y="390" type="line"/>
      <point x="153.0" y="625.0"/>
      <point x="188" y="715"/>
    </contour>
  </outline>
</glyph>
<glyph name="eight" format="2">
  <advance width="540"/>
  <unicode hex="0038"/>
  <guideline x="45" y="406" angle="90" identifier="lfso5k2HTJ"/>
  <guideline x="499" y="133" angle="90" identifier="sBv3b2QWgM"/>
  <outline>
    <contour>
      <point x="270" y="760" type="curve"/>
      <point x="153" y="760.0"/>
      <point x="82" y="691"/>
      <point x="83" y="580" type="curve"/>
      <point x="83.0" y="502.0"/>
      <point x="117" y="451"/>
      <point x="201" y="406" type="curve"/>
      <point x="201" y="432" type="line"/>
      <point x="104" y="388"/>
      <point x="63" y="323.0"/>
      <point x="63" y="215" type="curve"/>
      <point x="63" y="70.0"/>
      <point x="136.0" y="-10"/>
      <point x="270" y="-10" type="curve"/>
      <point x="404.0" y="-10.0"/>
      <point x="477.0" y="70.0"/>
      <point x="477" y="215" type="curve"/>
      <point x="477.0" y="323.0"/>
      <point x="436" y="388"/>
      <point x="339" y="432" type="curve"/>
      <point x="339" y="406" type="line"/>
      <point x="423" y="451"/>
      <point x="457.0" y="502.0"/>
      <point x="457" y="580" type="curve"/>
      <point x="458" y="691"/>
      <point x="387.0" y="760.0"/>
    </contour>
    <contour>
      <point x="270" y="440" type="curve"/>
      <point x="214.0" y="440"/>
      <point x="190" y="480.0"/>
      <point x="190" y="578" type="curve"/>
      <point x="190" y="678"/>
      <point x="214" y="719"/>
      <point x="270" y="719" type="curve"/>
      <point x="326" y="719"/>
      <point x="350" y="678"/>
      <point x="350" y="578" type="curve"/>
      <point x="350.0" y="480.0"/>
      <point x="326.0" y="440.0"/>
    </contour>
    <contour>
      <point x="270" y="31" type="curve"/>
      <point x="205" y="31"/>
      <point x="177" y="84"/>
      <point x="177" y="213" type="curve"/>
      <point x="177" y="341.0"/>
      <point x="206.0" y="399"/>
      <point x="270" y="399" type="curve"/>
      <point x="334.0" y="399.0"/>
      <point x="363.0" y="341.0"/>
      <point x="363" y="213" type="curve"/>
      <point x="363" y="84"/>
      <point x="335" y="31"/>
    </contour>
  </outline>
</glyph>
<glyph name="nine" format="2">
  <advance width="540"/>
  <unicode hex="0039"/>
  <outline>
    <contour>
      <point x="387" y="531.0" type="curve"/>
      <point x="387.0" y="424"/>
      <point x="343.0" y="360"/>
      <point x="269" y="360" type="curve"/>
      <point x="191" y="360"/>
      <point x="147" y="422.0"/>
      <point x="147" y="531.0" type="curve"/>
      <point x="147" y="654.0"/>
      <point x="189" y="718.0"/>
      <point x="269" y="718.0" type="curve"/>
      <point x="341" y="719.0"/>
      <point x="387" y="646"/>
    </contour>
    <contour>
      <point x="257" y="39" type="curve"/>
      <point x="204" y="39"/>
      <point x="156" y="72"/>
      <point x="144" y="118" type="curve"/>
      <point x="130.0" y="84" type="line"/>
      <point x="187" y="91"/>
      <point x="224" y="123"/>
      <point x="224" y="164.0" type="curve"/>
      <point x="224" y="204.0"/>
      <point x="188" y="238"/>
      <point x="146.0" y="237" type="curve" smooth="yes"/>
      <point x="101" y="236.0"/>
      <point x="66" y="197.0"/>
      <point x="66.0" y="148" type="curve"/>
      <point x="66" y="58.0"/>
      <point x="147" y="-8"/>
      <point x="259.0" y="-8" type="curve"/>
      <point x="429" y="-7"/>
      <point x="497" y="123.0"/>
      <point x="493.0" y="447.0" type="curve"/>
      <point x="490" y="661"/>
      <point x="417" y="763"/>
      <point x="266" y="763" type="curve"/>
      <point x="128" y="763"/>
      <point x="48" y="679.0"/>
      <point x="47.0" y="532.0" type="curve"/>
      <point x="48.0" y="395.0"/>
      <point x="131" y="308"/>
      <point x="259" y="308.0" type="curve"/>
      <point x="313" y="308"/>
      <point x="343" y="318"/>
      <point x="394" y="351.0" type="curve"/>
      <point x="387.0" y="365" type="line"/>
      <point x="387" y="130"/>
      <point x="352" y="40"/>
    </contour>
  </outline>
</glyph>
<glyph name="less" format="2">
  <advance width="480"/>
  <unicode hex="003C"/>
  <outline>
    <contour>
      <point x="352" y="394" type="line"/>
      <point x="352" y="490" type="line"/>
      <point x="87" y="272" type="line"/>
      <point x="152" y="225" type="line"/>
    </contour>
    <contour>
      <point x="352" y="149" type="line"/>
      <point x="159" y="319" type="line"/>
      <point x="87" y="272" type="line"/>
      <point x="352" y="50" type="line"/>
    </contour>
  </outline>
</glyph>
<glyph name="equal" format="2">
  <advance width="538"/>
  <unicode hex="003D"/>
  <outline>
    <contour>
      <point x="30" y="125" type="line"/>
      <point x="508" y="125" type="line"/>
      <point x="508" y="222" type="line"/>
      <point x="30" y="222" type="line"/>
    </contour>
    <contour>
      <point x="30" y="319" type="line"/>
      <point x="508" y="319" type="line"/>
      <point x="508" y="416" type="line"/>
      <point x="30" y="416" type="line"/>
    </contour>
  </outline>
</glyph>
<glyph name="greater" format="2">
  <advance width="480"/>
  <unicode hex="003E"/>
  <outline>
    <contour>
      <point x="128" y="394" type="line"/>
      <point x="328" y="225" type="line"/>
      <point x="393" y="272" type="line"/>
      <point x="128" y="490" type="line"/>
    </contour>
    <contour>
      <point x="128" y="149" type="line"/>
      <point x="128" y="50" type="line"/>
      <point x="393" y="272" type="line"/>
      <point x="321" y="319" type="line"/>
    </contour>
  </outline>
</glyph>
<glyph name="question" format="2">
  <advance width="540"/>
  <unicode hex="003F"/>
  <outline>
    <contour>
      <point x="210" y="195" type="curve"/>
      <point x="266" y="195" type="line"/>
      <point x="266" y="406"/>
      <point x="469" y="381"/>
      <point x="469" y="572" type="curve"/>
      <point x="469" y="682"/>
      <point x="377" y="760"/>
      <point x="249" y="760" type="curve"/>
      <point x="137" y="760"/>
      <point x="56" y="694"/>
      <point x="56" y="604" type="curve"/>
      <point x="56" y="555"/>
      <point x="91" y="516"/>
      <point x="136" y="515" type="curve" smooth="yes"/>
      <point x="178" y="514"/>
      <point x="214" y="548"/>
      <point x="214" y="588" type="curve"/>
      <point x="214" y="629"/>
      <point x="177" y="661"/>
      <point x="120" y="668" type="curve"/>
      <point x="134" y="634" type="line"/>
      <point x="153" y="685"/>
      <point x="189" y="710"/>
      <point x="240" y="710" type="curve"/>
      <point x="309" y="710"/>
      <point x="357" y="654"/>
      <point x="357" y="574" type="curve"/>
      <point x="356" y="402"/>
      <point x="210" y="469"/>
    </contour>
    <contour>
      <point x="188" y="54" type="curve"/>
      <point x="188" y="16"/>
      <point x="207" y="-5"/>
      <point x="243" y="-5" type="curve"/>
      <point x="277" y="-5"/>
      <point x="295" y="16"/>
      <point x="295" y="54" type="curve"/>
      <point x="295" y="93"/>
      <point x="276" y="115"/>
      <point x="243" y="115" type="curve"/>
      <point x="207" y="115"/>
      <point x="188" y="94"/>
    </contour>
  </outline>
</glyph>
<glyph name="at" format="2">
  <advance width="801"/>
  <unicode hex="0040"/>
  <outline>
    <contour>
      <point x="507" y="372" type="curve"/>
      <point x="489" y="409"/>
      <point x="438" y="434"/>
      <point x="380" y="434" type="curve"/>
      <point x="274" y="434"/>
      <point x="208" y="376"/>
      <point x="208" y="290" type="curve"/>
      <point x="208" y="183"/>
      <point x="269" y="126"/>
      <point x="380" y="126" type="curve"/>
      <point x="457" y="126.0"/>
      <point x="512" y="174"/>
      <point x="533" y="259" type="curve"/>
      <point x="533" y="259"/>
      <point x="471" y="260"/>
      <point x="471" y="260" type="curve"/>
      <point x="471" y="204"/>
      <point x="433" y="165"/>
      <point x="379" y="165" type="curve"/>
      <point x="335" y="165"/>
      <point x="307" y="202"/>
      <point x="307" y="260" type="curve" smooth="yes"/>
      <point x="307" y="299" type="line" smooth="yes"/>
      <point x="307" y="354"/>
      <point x="338" y="395"/>
      <point x="379" y="395" type="curve"/>
      <point x="445" y="395"/>
      <point x="491" y="351"/>
      <point x="491" y="289" type="curve"/>
      <point x="491" y="289"/>
      <point x="509" y="370"/>
    </contour>
    <contour>
      <point x="694" y="120"/>
      <point x="743.0" y="208"/>
      <point x="743" y="365" type="curve"/>
      <point x="743" y="611"/>
      <point x="613" y="750"/>
      <point x="405" y="750" type="curve"/>
      <point x="179" y="750"/>
      <point x="49" y="618"/>
      <point x="49" y="366" type="curve"/>
      <point x="49" y="127"/>
      <point x="180" y="-6"/>
      <point x="406" y="-6" type="curve"/>
      <point x="406" y="-6"/>
      <point x="405" y="49"/>
      <point x="405" y="49" type="curve"/>
      <point x="215" y="49"/>
      <point x="113" y="164"/>
      <point x="113" y="366" type="curve"/>
      <point x="113" y="578"/>
      <point x="215" y="693"/>
      <point x="405" y="693" type="curve"/>
      <point x="581" y="693"/>
      <point x="682" y="573"/>
      <point x="682" y="366" type="curve"/>
      <point x="682.0" y="233.0"/>
      <point x="658" y="176"/>
      <point x="607" y="176" type="curve" smooth="yes"/>
      <point x="587.0" y="176.0"/>
      <point x="571.0" y="197.0"/>
      <point x="571" y="221" type="curve" smooth="yes"/>
      <point x="571" y="222"/>
      <point x="571" y="222"/>
      <point x="571" y="223" type="curve" smooth="yes"/>
      <point x="571" y="392" type="line" smooth="yes"/>
      <point x="571" y="534"/>
      <point x="504" y="606"/>
      <point x="373" y="606" type="curve" smooth="yes"/>
      <point x="325" y="606"/>
      <point x="307" y="594"/>
      <point x="298" y="616" type="curve"/>
      <point x="264" y="616" type="line"/>
      <point x="231" y="478" type="line"/>
      <point x="267" y="469" type="line"/>
      <point x="297" y="545"/>
      <point x="323" y="566"/>
      <point x="374" y="566" type="curve" smooth="yes"/>
      <point x="423" y="566"/>
      <point x="461" y="520"/>
      <point x="461" y="460" type="curve" smooth="yes"/>
      <point x="461" y="202" type="line"/>
      <point x="461" y="202"/>
      <point x="503" y="120"/>
      <point x="607" y="120" type="curve" smooth="yes"/>
    </contour>
  </outline>
</glyph>
<glyph name="A" format="2">
  <advance width="478"/>
  <unicode hex="0041"/>
  <outline>
    <contour>
      <point x="111" y="179" type="line"/>
      <point x="354" y="179" type="line"/>
      <point x="354" y="219" type="line"/>
      <point x="111" y="219" type="line"/>
    </contour>
    <contour>
      <point x="107" y="81" type="curve"/>
      <point x="224" y="617" type="line"/>
      <point x="190" y="617" type="line"/>
      <point x="303" y="78" type="line" smooth="yes"/>
      <point x="309" y="49"/>
      <point x="291" y="37"/>
      <point x="243" y="37" type="curve"/>
      <point x="243" y="0" type="line"/>
      <point x="475" y="0" type="line"/>
      <point x="475" y="37" type="line"/>
      <point x="435.0" y="37"/>
      <point x="422" y="46"/>
      <point x="415" y="79" type="curve" smooth="yes"/>
      <point x="260" y="764" type="line"/>
      <point x="212" y="764" type="line"/>
      <point x="62" y="81" type="line" smooth="yes"/>
      <point x="55" y="49"/>
      <point x="38.0" y="37.0"/>
      <point x="0" y="37" type="curve"/>
      <point x="0" y="0" type="line"/>
      <point x="167" y="0" type="line"/>
      <point x="167" y="37" type="line"/>
      <point x="123.0" y="37"/>
      <point x="101" y="53"/>
    </contour>
  </outline>
</glyph>
<glyph name="C" format="2">
  <advance width="426"/>
  <unicode hex="0043"/>
  <guideline x="402" y="178" angle="90" identifier="qAhtnRZadp"/>
  <outline>
    <contour>
      <point x="241" y="760" type="curve"/>
      <point x="111.0" y="760.0"/>
      <point x="43" y="686.0"/>
      <point x="43" y="546" type="curve" smooth="yes"/>
      <point x="43" y="204" type="line" smooth="yes"/>
      <point x="43" y="71.0"/>
      <point x="111.88297872340426" y="-10.0"/>
      <point x="228" y="-10" type="curve"/>
      <point x="340.0" y="-10.0"/>
      <point x="393" y="59"/>
      <point x="393" y="204" type="curve" smooth="yes"/>
      <point x="393" y="205" type="line"/>
      <point x="350" y="205" type="line"/>
      <point x="350" y="189" type="line" smooth="yes"/>
      <point x="350.0" y="97.0"/>
      <point x="308" y="37"/>
      <point x="245" y="37" type="curve"/>
      <point x="192.8409090909091" y="37.0"/>
      <point x="155" y="78.0"/>
      <point x="155" y="136" type="curve" smooth="yes"/>
      <point x="155" y="614" type="line" smooth="yes"/>
      <point x="155" y="674.0"/>
      <point x="196" y="720.0"/>
      <point x="250" y="720" type="curve"/>
      <point x="303" y="720"/>
      <point x="324" y="697"/>
      <point x="363" y="598" type="curve"/>
      <point x="397" y="607" type="line"/>
      <point x="353" y="788" type="line"/>
      <point x="319" y="788" type="line"/>
      <point x="308" y="766"/>
      <point x="291.0" y="760.0"/>
    </contour>
  </outline>
</glyph>
<glyph name="D" format="2">
  <advance width="494"/>
  <unicode hex="0044"/>
  <outline>
    <contour>
      <point x="84" y="11" type="line"/>
      <point x="196" y="11" type="line"/>
      <point x="196" y="739" type="line"/>
      <point x="84" y="739" type="line"/>
    </contour>
    <contour>
      <point x="84" y="0" type="line"/>
      <point x="262" y="0" type="line" smooth="yes"/>
      <point x="386" y="0"/>
      <point x="447" y="71"/>
      <point x="447" y="214" type="curve" smooth="yes"/>
      <point x="447" y="536" type="line" smooth="yes"/>
      <point x="447" y="679"/>
      <point x="386" y="750"/>
      <point x="262" y="750" type="curve" smooth="yes"/>
      <point x="84" y="750" type="line"/>
      <point x="84" y="670" type="line"/>
      <point x="196" y="670" type="line"/>
      <point x="196" y="710" type="line"/>
      <point x="262" y="710" type="line" smooth="yes"/>
      <point x="307" y="710"/>
      <point x="337" y="672"/>
      <point x="337" y="614" type="curve" smooth="yes"/>
      <point x="337" y="136" type="line" smooth="yes"/>
      <point x="337" y="78"/>
      <point x="307" y="40"/>
      <point x="262" y="40" type="curve" smooth="yes"/>
      <point x="196" y="40" type="line"/>
      <point x="196" y="80" type="line"/>
      <point x="84" y="80" type="line"/>
    </contour>
    <component base="smallcomponent_top_half_serif" xOffset="-12" yOffset="210"/>
    <component base="smallcomponents_btm_half_serif" xOffset="-12"/>
  </outline>
</glyph>
<glyph name="E" format="2">
  <advance width="483"/>
  <unicode hex="0045"/>
  <outline>
    <contour>
      <point x="90" y="11" type="line"/>
      <point x="202" y="11" type="line"/>
      <point x="202" y="739" type="line"/>
      <point x="90" y="739" type="line"/>
    </contour>
    <contour>
      <point x="131" y="375" type="line"/>
      <point x="228" y="375" type="line" smooth="yes"/>
      <point x="276.0" y="375.0"/>
      <point x="297.0" y="353.0"/>
      <point x="297" y="303" type="curve"/>
      <point x="334" y="303" type="line"/>
      <point x="334" y="487" type="line"/>
      <point x="297" y="487" type="line"/>
      <point x="297.0" y="439.0"/>
      <point x="274.0" y="415.0"/>
      <point x="228" y="415" type="curve" smooth="yes"/>
      <point x="131" y="415" type="line"/>
    </contour>
    <contour>
      <point x="90" y="0" type="line"/>
      <point x="363" y="0" type="line" smooth="yes"/>
      <point x="408.0" y="0.0"/>
      <point x="426" y="-8"/>
      <point x="432" y="-31" type="curve"/>
      <point x="469" y="-31" type="line"/>
      <point x="469" y="171" type="line"/>
      <point x="434" y="171" type="line"/>
      <point x="421" y="62"/>
      <point x="400" y="40"/>
      <point x="310" y="40" type="curve" smooth="yes"/>
      <point x="202" y="40" type="line"/>
      <point x="202" y="80" type="line"/>
      <point x="90" y="80" type="line"/>
    </contour>
    <contour>
      <point x="90" y="670" type="line"/>
      <point x="202" y="670" type="line"/>
      <point x="202" y="710" type="line"/>
      <point x="269" y="710" type="line" smooth="yes"/>
      <point x="359" y="710"/>
      <point x="381" y="693"/>
      <point x="415" y="598" type="curve"/>
      <point x="449" y="607" type="line"/>
      <point x="405" y="788" type="line"/>
      <point x="371" y="788" type="line"/>
      <point x="367" y="760"/>
      <point x="355" y="750"/>
      <point x="325" y="750" type="curve" smooth="yes"/>
      <point x="90" y="750" type="line"/>
    </contour>
    <component base=".smallcomponent_top_half_serif" xOffset="-6" yOffset="210"/>
    <component base=".smallcomponents_bottom_half_serif" xOffset="-6"/>
  </outline>
</glyph>
<glyph name="F" format="2">
  <advance width="475"/>
  <unicode hex="0046"/>
  <outline>
    <contour>
      <point x="90" y="11" type="line"/>
      <point x="202" y="11" type="line"/>
      <point x="202" y="739" type="line"/>
      <point x="90" y="739" type="line"/>
    </contour>
    <contour>
      <point x="131" y="355" type="line"/>
      <point x="228" y="355" type="line" smooth="yes"/>
      <point x="276.0" y="355.0"/>
      <point x="297.0" y="333.0"/>
      <point x="297" y="283" type="curve"/>
      <point x="334" y="283" type="line"/>
      <point x="334" y="467" type="line"/>
      <point x="297" y="467" type="line"/>
      <point x="297.0" y="419.0"/>
      <point x="274.0" y="395.0"/>
      <point x="228" y="395" type="curve" smooth="yes"/>
      <point x="131" y="395" type="line"/>
    </contour>
    <contour>
      <point x="269" y="710" type="line" smooth="yes"/>
      <point x="359.0" y="710.0"/>
      <point x="381.0" y="693.0"/>
      <point x="415" y="598" type="curve"/>
      <point x="449" y="607" type="line"/>
      <point x="405" y="788" type="line"/>
      <point x="371" y="788" type="line"/>
      <point x="367" y="760"/>
      <point x="355.0" y="750.0"/>
      <point x="325" y="750" type="curve" smooth="yes"/>
      <point x="30" y="750" type="line"/>
      <point x="30" y="713" type="line"/>
      <point x="77" y="713"/>
      <point x="90" y="704"/>
      <point x="90" y="670" type="curve"/>
      <point x="202" y="670" type="line"/>
      <point x="202" y="710" type="line"/>
    </contour>
    <component base="component_bottom_serif" xOffset="-6"/>
  </outline>
</glyph>
<glyph name="G" format="2">
  <advance width="459"/>
  <unicode hex="0047"/>
  <outline>
    <contour>
      <point x="253" y="720" type="curve"/>
      <point x="306" y="720"/>
      <point x="327" y="697"/>
      <point x="366" y="598" type="curve"/>
      <point x="400" y="607" type="line"/>
      <point x="356" y="788" type="line"/>
      <point x="322" y="788" type="line"/>
      <point x="311" y="766"/>
      <point x="294.0" y="760.0"/>
      <point x="244" y="760" type="curve"/>
      <point x="115" y="760"/>
      <point x="45" y="684"/>
      <point x="45" y="546" type="curve" smooth="yes"/>
      <point x="45" y="204" type="line" smooth="yes"/>
      <point x="45" y="63"/>
      <point x="107" y="-10"/>
      <point x="229" y="-10" type="curve"/>
      <point x="287" y="-10"/>
      <point x="332" y="6"/>
      <point x="362" y="37" type="curve"/>
      <point x="390" y="0" type="line"/>
      <point x="413" y="0" type="line"/>
      <point x="413" y="341" type="line" smooth="yes"/>
      <point x="413.0" y="363.0"/>
      <point x="424" y="376"/>
      <point x="443" y="376" type="curve"/>
      <point x="443" y="413" type="line"/>
      <point x="235" y="413" type="line"/>
      <point x="235" y="376" type="line"/>
      <point x="281" y="376"/>
      <point x="306.0" y="357.0"/>
      <point x="306" y="323" type="curve" smooth="yes"/>
      <point x="306" y="126" type="line" smooth="yes"/>
      <point x="306.0" y="68.0"/>
      <point x="276" y="30"/>
      <point x="230" y="30" type="curve"/>
      <point x="185" y="30"/>
      <point x="157" y="67.0"/>
      <point x="157" y="126" type="curve" smooth="yes"/>
      <point x="157" y="614" type="line" smooth="yes"/>
      <point x="157" y="672"/>
      <point x="201" y="720"/>
    </contour>
  </outline>
</glyph>
<glyph name="I" format="2">
  <advance width="292"/>
  <unicode hex="0049"/>
  <outline>
    <contour>
      <point x="90" y="11" type="line"/>
      <point x="202" y="11" type="line"/>
      <point x="202" y="739" type="line"/>
      <point x="90" y="739" type="line"/>
    </contour>
    <component base=".component_top_serif" xOffset="-6"/>
    <component base=".component_bottom_serif" xOffset="-6"/>
  </outline>
</glyph>
<glyph name="J" format="2">
  <advance width="454"/>
  <unicode hex="004A"/>
  <outline>
    <contour>
      <point x="266" y="742" type="line"/>
      <point x="266" y="176" type="line" smooth="yes"/>
      <point x="266.0" y="85.0"/>
      <point x="229" y="30.0"/>
      <point x="168" y="30" type="curve"/>
      <point x="108" y="30"/>
      <point x="93" y="73"/>
      <point x="93" y="73" type="curve"/>
      <point x="93" y="73"/>
      <point x="170" y="77"/>
      <point x="170" y="146" type="curve" smooth="yes"/>
      <point x="170" y="190"/>
      <point x="135" y="226"/>
      <point x="92" y="225" type="curve" smooth="yes"/>
      <point x="47.0" y="224.0"/>
      <point x="12" y="185.0"/>
      <point x="12" y="136" type="curve"/>
      <point x="12" y="54.0"/>
      <point x="85.0" y="-10"/>
      <point x="180" y="-10" type="curve"/>
      <point x="309.0" y="-10.0"/>
      <point x="378" y="71"/>
      <point x="378" y="224" type="curve" smooth="yes"/>
      <point x="378" y="742" type="line"/>
    </contour>
    <component base=".component_top_serif" xOffset="170"/>
  </outline>
</glyph>
<glyph name="K" format="2">
  <advance width="528"/>
  <unicode hex="004B"/>
  <guideline x="271" y="716" angle="0" identifier="L7QT0axH2m"/>
  <outline>
    <contour>
      <point x="90" y="11" type="line"/>
      <point x="202" y="11" type="line"/>
      <point x="202" y="739" type="line"/>
      <point x="90" y="739" type="line"/>
    </contour>
    <contour>
      <point x="294" y="395" type="curve"/>
      <point x="418" y="669" type="line" smooth="yes"/>
      <point x="433" y="702"/>
      <point x="451" y="713"/>
      <point x="491" y="713" type="curve"/>
      <point x="491" y="750" type="line"/>
      <point x="324" y="750" type="line"/>
      <point x="324" y="713" type="line"/>
      <point x="358" y="713"/>
      <point x="380" y="696"/>
      <point x="371" y="677" type="curve" smooth="yes"/>
      <point x="242" y="395" type="line"/>
      <point x="242" y="355" type="line"/>
      <point x="269" y="355" type="line" smooth="yes"/>
      <point x="315" y="355"/>
      <point x="350.0" y="312.0"/>
      <point x="350" y="255" type="curve" smooth="yes"/>
      <point x="350" y="195" type="line" smooth="yes"/>
      <point x="350" y="60"/>
      <point x="408.0" y="0.0"/>
      <point x="538" y="0" type="curve" smooth="yes"/>
      <point x="549" y="0" type="line"/>
      <point x="549" y="37" type="line"/>
      <point x="538" y="37" type="line" smooth="yes"/>
      <point x="494" y="37"/>
      <point x="465.0" y="75.0"/>
      <point x="465" y="133" type="curve" smooth="yes"/>
      <point x="465" y="179" type="line" smooth="yes"/>
      <point x="465" y="300"/>
      <point x="390" y="395"/>
    </contour>
    <component base=".component_top_serif" xOffset="-6"/>
    <component base=".component_bottom_serif" xOffset="-6"/>
  </outline>
</glyph>
<glyph name="L" format="2">
  <advance width="449"/>
  <unicode hex="004C"/>
  <outline>
    <contour>
      <point x="90" y="11" type="line"/>
      <point x="202" y="11" type="line"/>
      <point x="202" y="739" type="line"/>
      <point x="90" y="739" type="line"/>
    </contour>
    <contour>
      <point x="90" y="0" type="line"/>
      <point x="331" y="0" type="line" smooth="yes"/>
      <point x="376" y="0"/>
      <point x="394" y="-8"/>
      <point x="400" y="-31" type="curve"/>
      <point x="437" y="-31" type="line"/>
      <point x="437" y="171" type="line"/>
      <point x="402" y="171" type="line"/>
      <point x="389" y="62"/>
      <point x="368" y="40"/>
      <point x="278" y="40" type="curve" smooth="yes"/>
      <point x="202" y="40" type="line"/>
      <point x="202" y="80" type="line"/>
      <point x="90" y="80" type="line"/>
    </contour>
    <component base=".component_top_serif" xOffset="-6"/>
    <component base=".smallcomponents_bottom_half_serif" xOffset="-6"/>
  </outline>
</glyph>
<glyph name="N" format="2">
  <advance width="512"/>
  <unicode hex="004E"/>
  <outline>
    <contour>
      <point x="69" y="11" type="line"/>
      <point x="116" y="11" type="line"/>
      <point x="116" y="689" type="line"/>
      <point x="90" y="689" type="line"/>
      <point x="394" y="0" type="line"/>
      <point x="443" y="0" type="line"/>
      <point x="443" y="739" type="line"/>
      <point x="396" y="739" type="line"/>
      <point x="396" y="209" type="line"/>
      <point x="426" y="209" type="line"/>
      <point x="185" y="750" type="line"/>
      <point x="69" y="750" type="line"/>
    </contour>
    <contour>
      <point x="9" y="37" type="curve"/>
      <point x="9" y="0" type="line"/>
      <point x="176" y="0" type="line"/>
      <point x="176" y="37" type="line"/>
      <point x="133" y="37"/>
      <point x="116" y="49"/>
      <point x="116" y="80" type="curve"/>
      <point x="69" y="80" type="line"/>
      <point x="69" y="49"/>
      <point x="52" y="37"/>
    </contour>
    <contour>
      <point x="336" y="713" type="line"/>
      <point x="379" y="713"/>
      <point x="396" y="701"/>
      <point x="396" y="670" type="curve"/>
      <point x="443" y="670" type="line"/>
      <point x="443" y="701"/>
      <point x="460" y="713"/>
      <point x="503" y="713" type="curve"/>
      <point x="503" y="750" type="line"/>
      <point x="336" y="750" type="line"/>
    </contour>
    <component base=".smallcomponent_top_half_serif" xOffset="-27" yOffset="210"/>
  </outline>
</glyph>
<glyph name="O" format="2">
  <advance width="480"/>
  <unicode hex="004F"/>
  <outline>
    <contour>
      <point x="240" y="760" type="curve"/>
      <point x="112.64646464646464" y="760.0"/>
      <point x="43" y="685.0"/>
      <point x="43" y="546" type="curve" smooth="yes"/>
      <point x="43" y="204" type="line" smooth="yes"/>
      <point x="43" y="66.0"/>
      <point x="113.64141414141413" y="-10.0"/>
      <point x="240" y="-10" type="curve"/>
      <point x="365.74242424242425" y="-10.0"/>
      <point x="433.0" y="64.0"/>
      <point x="433" y="204" type="curve" smooth="yes"/>
      <point x="433" y="546" type="line" smooth="yes"/>
      <point x="433.0" y="681.0"/>
      <point x="360.8686868686869" y="760.0"/>
    </contour>
    <contour>
      <point x="240" y="30" type="curve"/>
      <point x="190.8148148148148" y="30.0"/>
      <point x="157" y="69.0"/>
      <point x="157" y="126" type="curve" smooth="yes"/>
      <point x="157" y="624" type="line" smooth="yes"/>
      <point x="157" y="679.0"/>
      <point x="192.8641975308642" y="720.0"/>
      <point x="240" y="720" type="curve"/>
      <point x="288.0" y="720.0"/>
      <point x="323.0" y="680.0"/>
      <point x="323" y="624" type="curve" smooth="yes"/>
      <point x="323" y="126" type="line" smooth="yes"/>
      <point x="323" y="70.0"/>
      <point x="288.0" y="30.0"/>
    </contour>
  </outline>
</glyph>
<glyph name="Q" format="2">
  <advance width="480"/>
  <unicode hex="0051"/>
  <outline>
    <contour>
      <point x="324" y="131" type="curve"/>
      <point x="324" y="272"/>
      <point x="259" y="345"/>
      <point x="137" y="345" type="curve" smooth="yes"/>
      <point x="137" y="345" type="line"/>
      <point x="137" y="306" type="line"/>
      <point x="156" y="306" type="line" smooth="yes"/>
      <point x="200" y="306.0"/>
      <point x="229" y="268"/>
      <point x="229" y="209" type="curve" smooth="yes"/>
      <point x="229" y="195" type="line" smooth="yes"/>
      <point x="229" y="54"/>
      <point x="283" y="0"/>
      <point x="417" y="0" type="curve" smooth="yes"/>
      <point x="418" y="0" type="line"/>
      <point x="418" y="39" type="line"/>
      <point x="397" y="39" type="line" smooth="yes"/>
      <point x="354" y="39"/>
      <point x="324.0" y="75.0"/>
    </contour>
    <contour>
      <point x="240" y="760" type="curve"/>
      <point x="113" y="760.0"/>
      <point x="43" y="685"/>
      <point x="43" y="546" type="curve" smooth="yes"/>
      <point x="43" y="264" type="line" smooth="yes"/>
      <point x="43" y="126.0"/>
      <point x="114" y="50.0"/>
      <point x="240" y="50" type="curve"/>
      <point x="366" y="50.0"/>
      <point x="433.0" y="124.0"/>
      <point x="433" y="264" type="curve" smooth="yes"/>
      <point x="433" y="546" type="line" smooth="yes"/>
      <point x="433" y="681"/>
      <point x="361" y="760.0"/>
    </contour>
    <contour>
      <point x="240" y="90" type="curve"/>
      <point x="191" y="90.0"/>
      <point x="157.0" y="129.0"/>
      <point x="157" y="186" type="curve" smooth="yes"/>
      <point x="157" y="624" type="line" smooth="yes"/>
      <point x="157" y="679"/>
      <point x="193" y="720.0"/>
      <point x="240" y="720" type="curve"/>
      <point x="288.0" y="720.0"/>
      <point x="323" y="680"/>
      <point x="323" y="624" type="curve" smooth="yes"/>
      <point x="323" y="186" type="line" smooth="yes"/>
      <point x="323.0" y="130.0"/>
      <point x="288.0" y="90.0"/>
    </contour>
  </outline>
</glyph>
<glyph name="U" format="2">
  <advance width="507"/>
  <unicode hex="0055"/>
  <outline>
    <contour>
      <point x="390" y="736" type="line"/>
      <point x="390" y="189" type="line" smooth="yes"/>
      <point x="390" y="97"/>
      <point x="348" y="37"/>
      <point x="285" y="37" type="curve"/>
      <point x="222" y="37"/>
      <point x="182" y="83"/>
      <point x="182" y="156" type="curve" smooth="yes"/>
      <point x="182" y="736" type="line"/>
      <point x="70" y="736" type="line"/>
      <point x="70" y="204" type="line" smooth="yes"/>
      <point x="70" y="66"/>
      <point x="141" y="-10"/>
      <point x="268" y="-10" type="curve"/>
      <point x="380" y="-10.0"/>
      <point x="437.0" y="61.0"/>
      <point x="437" y="204" type="curve" smooth="yes"/>
      <point x="437" y="736" type="line"/>
    </contour>
    <contour>
      <point x="330" y="713" type="line"/>
      <point x="373" y="713"/>
      <point x="390" y="701"/>
      <point x="390" y="670" type="curve"/>
      <point x="437" y="670" type="line"/>
      <point x="437" y="701"/>
      <point x="454" y="713"/>
      <point x="497" y="713" type="curve"/>
      <point x="497" y="750" type="line"/>
      <point x="330" y="750" type="line"/>
    </contour>
    <component base="component_top_serif" xOffset="-26"/>
  </outline>
</glyph>
<glyph name="V" format="2">
  <advance width="474"/>
  <unicode hex="0056"/>
  <outline>
    <contour>
      <point x="369" y="669" type="curve" smooth="yes"/>
      <point x="247" y="113" type="line"/>
      <point x="266" y="113" type="line"/>
      <point x="173" y="672" type="line" smooth="yes"/>
      <point x="169" y="698"/>
      <point x="191" y="713"/>
      <point x="233" y="713" type="curve"/>
      <point x="233" y="750" type="line"/>
      <point x="-2" y="750" type="line"/>
      <point x="-2" y="713" type="line"/>
      <point x="34.0" y="713.0"/>
      <point x="51" y="701"/>
      <point x="58" y="671" type="curve" smooth="yes"/>
      <point x="216" y="-14" type="line"/>
      <point x="264" y="-14" type="line"/>
      <point x="414" y="669" type="line" smooth="yes"/>
      <point x="421" y="701"/>
      <point x="438" y="713"/>
      <point x="476" y="713" type="curve"/>
      <point x="476" y="750" type="line"/>
      <point x="309" y="750" type="line"/>
      <point x="309" y="713" type="line"/>
      <point x="353" y="713"/>
      <point x="375" y="697"/>
    </contour>
  </outline>
</glyph>
<glyph name="X" format="2">
  <advance width="476"/>
  <unicode hex="0058"/>
  <outline>
    <contour>
      <point x="-4" y="713" type="line"/>
      <point x="33" y="713"/>
      <point x="49" y="704"/>
      <point x="59" y="678" type="curve" smooth="yes"/>
      <point x="196" y="323" type="line"/>
      <point x="206" y="323" type="line"/>
      <point x="301" y="77" type="line" smooth="yes"/>
      <point x="312" y="50"/>
      <point x="295.0" y="37.0"/>
      <point x="248" y="37" type="curve"/>
      <point x="248" y="0" type="line"/>
      <point x="480" y="0" type="line"/>
      <point x="480" y="37" type="line"/>
      <point x="444" y="37"/>
      <point x="427" y="46"/>
      <point x="418" y="70" type="curve" smooth="yes"/>
      <point x="280" y="427" type="line"/>
      <point x="269" y="427" type="line"/>
      <point x="177" y="668" type="line" smooth="yes"/>
      <point x="165" y="699"/>
      <point x="181" y="713"/>
      <point x="228" y="713" type="curve"/>
      <point x="228" y="750" type="line"/>
      <point x="-4" y="750" type="line"/>
    </contour>
    <contour>
      <point x="302" y="713" type="line"/>
      <point x="346" y="713"/>
      <point x="360" y="702"/>
      <point x="349" y="676" type="curve" smooth="yes"/>
      <point x="240" y="410" type="line"/>
      <point x="211" y="410" type="line"/>
      <point x="78" y="84" type="line" smooth="yes"/>
      <point x="63" y="46"/>
      <point x="49" y="37.0"/>
      <point x="4" y="37" type="curve"/>
      <point x="4" y="0" type="line"/>
      <point x="171" y="0" type="line"/>
      <point x="171" y="37" type="line"/>
      <point x="131.0" y="37"/>
      <point x="116" y="51"/>
      <point x="127" y="78" type="curve" smooth="yes"/>
      <point x="252" y="388" type="line"/>
      <point x="281" y="388" type="line"/>
      <point x="396" y="668" type="line" smooth="yes"/>
      <point x="410" y="703"/>
      <point x="426" y="713"/>
      <point x="469" y="713" type="curve"/>
      <point x="469" y="750" type="line"/>
      <point x="302" y="750" type="line"/>
    </contour>
  </outline>
</glyph>
<glyph name="Y" format="2">
  <advance width="484"/>
  <unicode hex="0059"/>
  <outline>
    <contour>
      <point x="195" y="11" type="line"/>
      <point x="307" y="11" type="line"/>
      <point x="307" y="324" type="line"/>
      <point x="424" y="669" type="line" smooth="yes"/>
      <point x="436" y="703"/>
      <point x="450.0" y="713.0"/>
      <point x="486" y="713" type="curve"/>
      <point x="486" y="750" type="line"/>
      <point x="316" y="750" type="line"/>
      <point x="316" y="713" type="line"/>
      <point x="362.0" y="713.0"/>
      <point x="385" y="696"/>
      <point x="376" y="669" type="curve" smooth="yes"/>
      <point x="268" y="344" type="line"/>
      <point x="289" y="344" type="line"/>
      <point x="173" y="671" type="line" smooth="yes"/>
      <point x="164" y="696"/>
      <point x="188" y="713.0"/>
      <point x="233" y="713" type="curve"/>
      <point x="233" y="750" type="line"/>
      <point x="-2" y="750" type="line"/>
      <point x="-2" y="713" type="line"/>
      <point x="31.0" y="713.0"/>
      <point x="45" y="703"/>
      <point x="58" y="670" type="curve" smooth="yes"/>
      <point x="195" y="308" type="line"/>
    </contour>
    <component base=".component_bottom_serif" xOffset="100"/>
  </outline>
</glyph>
<glyph name="Z" format="2">
  <advance width="435"/>
  <unicode hex="005A"/>
  <outline>
    <contour>
      <point x="254" y="40" type="curve" smooth="yes"/>
      <point x="118" y="40" type="line"/>
      <point x="138" y="12" type="line"/>
      <point x="393" y="710" type="line"/>
      <point x="393" y="750" type="line"/>
      <point x="152" y="750" type="line" smooth="yes"/>
      <point x="122" y="750"/>
      <point x="110" y="760"/>
      <point x="106" y="788" type="curve"/>
      <point x="72" y="788" type="line"/>
      <point x="28" y="607" type="line"/>
      <point x="62" y="598" type="line"/>
      <point x="96" y="693"/>
      <point x="118" y="710"/>
      <point x="208" y="710" type="curve" smooth="yes"/>
      <point x="301" y="710" type="line"/>
      <point x="281" y="738" type="line"/>
      <point x="24" y="40" type="line"/>
      <point x="24" y="0" type="line"/>
      <point x="307" y="0" type="line" smooth="yes"/>
      <point x="352" y="0"/>
      <point x="370" y="-8"/>
      <point x="376" y="-31" type="curve"/>
      <point x="413" y="-31" type="line"/>
      <point x="413" y="171" type="line"/>
      <point x="378" y="171" type="line"/>
      <point x="365" y="62"/>
      <point x="344" y="40"/>
    </contour>
  </outline>
</glyph>
<glyph name="backslash" format="2">
  <advance width="539"/>
  <unicode hex="005C"/>
  <outline>
    <contour>
      <point x="359" y="-40" type="line"/>
      <point x="436" y="-40" type="line"/>
      <point x="217" y="790" type="line"/>
      <point x="140" y="790" type="line"/>
    </contour>
  </outline>
</glyph>
<glyph name="grave" format="2">
  <advance width="301"/>
  <unicode hex="0060"/>
  <outline>
    <contour>
      <point x="153" y="910" type="line"/>
      <point x="72" y="910" type="line"/>
      <point x="183" y="793" type="line"/>
      <point x="229" y="793" type="line"/>
    </contour>
  </outline>
</glyph>
<glyph name="b" format="2">
  <advance width="472"/>
  <unicode hex="0062"/>
  <outline>
    <contour>
      <point x="84" y="11" type="line"/>
      <point x="192" y="11" type="line"/>
      <point x="192" y="529" type="line"/>
      <point x="84" y="529" type="line"/>
    </contour>
    <contour>
      <point x="84" y="0" type="line"/>
      <point x="270" y="0" type="line" smooth="yes"/>
      <point x="394" y="0"/>
      <point x="452" y="47"/>
      <point x="452" y="147" type="curve"/>
      <point x="452" y="226"/>
      <point x="414" y="270"/>
      <point x="326" y="292" type="curve"/>
      <point x="326" y="268" type="line"/>
      <point x="403" y="304"/>
      <point x="423" y="333"/>
      <point x="423" y="406" type="curve"/>
      <point x="423" y="490"/>
      <point x="356" y="540"/>
      <point x="245" y="540" type="curve" smooth="yes"/>
      <point x="84" y="540" type="line"/>
      <point x="84" y="463" type="line"/>
      <point x="192" y="463" type="line"/>
      <point x="192" y="501" type="line"/>
      <point x="246" y="501" type="line" smooth="yes"/>
      <point x="291" y="501"/>
      <point x="319" y="472"/>
      <point x="319" y="424" type="curve" smooth="yes"/>
      <point x="319" y="383" type="line" smooth="yes"/>
      <point x="319" y="321"/>
      <point x="297" y="294"/>
      <point x="246" y="294" type="curve" smooth="yes"/>
      <point x="232" y="294" type="line"/>
      <point x="232" y="257" type="line"/>
      <point x="270" y="257" type="line" smooth="yes"/>
      <point x="315" y="257"/>
      <point x="343" y="226"/>
      <point x="343" y="177" type="curve" smooth="yes"/>
      <point x="343" y="116" type="line" smooth="yes"/>
      <point x="343" y="69"/>
      <point x="314" y="39"/>
      <point x="270" y="39" type="curve" smooth="yes"/>
      <point x="192" y="39" type="line"/>
      <point x="192" y="77" type="line"/>
      <point x="84" y="77" type="line"/>
    </contour>
    <component base=".smallcomponent_top_half_serif" xOffset="-12"/>
    <component base=".smallcomponents_bottom_half_serif" xOffset="-12"/>
  </outline>
</glyph>
<glyph name="c" format="2">
  <advance width="414"/>
  <unicode hex="0063"/>
  <outline>
    <contour>
      <point x="238" y="550" type="curve" smooth="yes"/>
      <point x="107" y="550"/>
      <point x="40" y="478"/>
      <point x="40" y="336" type="curve" smooth="yes"/>
      <point x="40" y="199" type="line" smooth="yes"/>
      <point x="40" y="65.0"/>
      <point x="110" y="-15"/>
      <point x="225" y="-15" type="curve"/>
      <point x="337" y="-15"/>
      <point x="390" y="54"/>
      <point x="390" y="199" type="curve" smooth="yes"/>
      <point x="390" y="200" type="line"/>
      <point x="349" y="200" type="line"/>
      <point x="349" y="184" type="line" smooth="yes"/>
      <point x="349" y="92"/>
      <point x="307" y="27"/>
      <point x="246" y="27" type="curve"/>
      <point x="188" y="27"/>
      <point x="150.0" y="69.0"/>
      <point x="150" y="131" type="curve" smooth="yes"/>
      <point x="150" y="404" type="line" smooth="yes"/>
      <point x="150" y="464"/>
      <point x="188" y="510"/>
      <point x="237" y="510" type="curve" smooth="yes"/>
      <point x="293" y="510"/>
      <point x="318" y="484"/>
      <point x="354" y="390" type="curve"/>
      <point x="388" y="399" type="line"/>
      <point x="347" y="560" type="line"/>
      <point x="313" y="560" type="line"/>
      <point x="304.0" y="538"/>
      <point x="286.0" y="550.0"/>
    </contour>
  </outline>
</glyph>
<glyph name="e" format="2">
  <advance width="469"/>
  <unicode hex="0065"/>
  <outline>
    <contour>
      <point x="84" y="11" type="line"/>
      <point x="193" y="11" type="line"/>
      <point x="193" y="529" type="line"/>
      <point x="84" y="529" type="line"/>
    </contour>
    <contour>
      <point x="145" y="247" type="line"/>
      <point x="265" y="247" type="line" smooth="yes"/>
      <point x="292" y="247"/>
      <point x="304" y="228"/>
      <point x="304" y="186" type="curve"/>
      <point x="336" y="186" type="line"/>
      <point x="336" y="338" type="line"/>
      <point x="304" y="338" type="line"/>
      <point x="304" y="303"/>
      <point x="291" y="286"/>
      <point x="265" y="286" type="curve" smooth="yes"/>
      <point x="145" y="286" type="line"/>
    </contour>
    <contour>
      <point x="84" y="0" type="line"/>
      <point x="350" y="0" type="line" smooth="yes"/>
      <point x="397" y="0"/>
      <point x="413" y="-5"/>
      <point x="419" y="-21" type="curve"/>
      <point x="453" y="-21" type="line"/>
      <point x="453" y="171" type="line"/>
      <point x="420" y="171" type="line"/>
      <point x="407" y="60"/>
      <point x="387" y="39"/>
      <point x="297" y="39" type="curve" smooth="yes"/>
      <point x="193" y="39" type="line"/>
      <point x="193" y="77" type="line"/>
      <point x="84" y="77" type="line"/>
    </contour>
    <contour>
      <point x="264" y="501" type="line" smooth="yes"/>
      <point x="352" y="501"/>
      <point x="374" y="484"/>
      <point x="410" y="388" type="curve"/>
      <point x="443" y="397" type="line"/>
      <point x="402" y="559" type="line"/>
      <point x="369" y="559" type="line"/>
      <point x="368" y="545"/>
      <point x="355" y="540"/>
      <point x="320" y="540" type="curve" smooth="yes"/>
      <point x="84" y="540" type="line"/>
      <point x="84" y="463" type="line"/>
      <point x="193" y="463" type="line"/>
      <point x="193" y="501" type="line"/>
    </contour>
    <component base="smallcomponent_top_half_serif" xOffset="-12"/>
    <component base="smallcomponents_btm_half_serif" xOffset="-12"/>
  </outline>
</glyph>
<glyph name="f" format="2">
  <advance width="457"/>
  <unicode hex="0066"/>
  <outline>
    <contour>
      <point x="84" y="11" type="line"/>
      <point x="194" y="11" type="line"/>
      <point x="194" y="529" type="line"/>
      <point x="84" y="529" type="line"/>
    </contour>
    <contour>
      <point x="145" y="228" type="line"/>
      <point x="265" y="228" type="line" smooth="yes"/>
      <point x="292" y="228"/>
      <point x="304" y="209"/>
      <point x="304" y="167" type="curve"/>
      <point x="336" y="167" type="line"/>
      <point x="336" y="319" type="line"/>
      <point x="304" y="319" type="line"/>
      <point x="304" y="284"/>
      <point x="291" y="267"/>
      <point x="265" y="267" type="curve" smooth="yes"/>
      <point x="145" y="267" type="line"/>
    </contour>
    <contour>
      <point x="84" y="463" type="line"/>
      <point x="194" y="463" type="line"/>
      <point x="194" y="501" type="line"/>
      <point x="264" y="501" type="line" smooth="yes"/>
      <point x="352" y="501"/>
      <point x="374" y="484"/>
      <point x="410" y="388" type="curve"/>
      <point x="443" y="397" type="line"/>
      <point x="402" y="559" type="line"/>
      <point x="369" y="559" type="line"/>
      <point x="368" y="545"/>
      <point x="355" y="540"/>
      <point x="320" y="540" type="curve" smooth="yes"/>
      <point x="84" y="540" type="line"/>
    </contour>
    <component base=".smallcomponent_bottom_serif" xOffset="-12"/>
    <component base=".smallcomponent_top_half_serif" xOffset="-12"/>
  </outline>
</glyph>
<glyph name="g" format="2">
  <advance width="448"/>
  <unicode hex="0067"/>
  <outline>
    <contour>
      <point x="249" y="550" type="curve" smooth="yes"/>
      <point x="120" y="550"/>
      <point x="40" y="469"/>
      <point x="40" y="336" type="curve" smooth="yes"/>
      <point x="40" y="204" type="line" smooth="yes"/>
      <point x="40" y="63"/>
      <point x="102" y="-10"/>
      <point x="224" y="-10" type="curve"/>
      <point x="277" y="-10"/>
      <point x="316" y="5"/>
      <point x="347" y="37" type="curve"/>
      <point x="375" y="0" type="line"/>
      <point x="398" y="0" type="line"/>
      <point x="398" y="221" type="line" smooth="yes"/>
      <point x="398" y="243"/>
      <point x="409" y="256"/>
      <point x="428" y="256" type="curve"/>
      <point x="428" y="289" type="line"/>
      <point x="230" y="289" type="line"/>
      <point x="230" y="256" type="line"/>
      <point x="276" y="256"/>
      <point x="301" y="237"/>
      <point x="301" y="203" type="curve" smooth="yes"/>
      <point x="301" y="126" type="line" smooth="yes"/>
      <point x="301" y="67"/>
      <point x="271" y="29"/>
      <point x="225" y="29" type="curve"/>
      <point x="180" y="29"/>
      <point x="150" y="68"/>
      <point x="150" y="126" type="curve" smooth="yes"/>
      <point x="150" y="404" type="line" smooth="yes"/>
      <point x="150" y="462"/>
      <point x="195" y="510"/>
      <point x="248" y="510" type="curve"/>
      <point x="304" y="510"/>
      <point x="329" y="484"/>
      <point x="365" y="390" type="curve"/>
      <point x="399" y="399" type="line"/>
      <point x="358" y="560" type="line"/>
      <point x="324" y="560" type="line"/>
      <point x="315.0" y="538"/>
      <point x="297.0" y="550.0"/>
    </contour>
  </outline>
</glyph>
<glyph name="h" format="2">
  <advance width="539"/>
  <unicode hex="0068"/>
  <outline>
    <contour>
      <point x="84" y="11" type="line"/>
      <point x="194" y="11" type="line"/>
      <point x="194" y="529" type="line"/>
      <point x="84" y="529" type="line"/>
    </contour>
    <contour>
      <point x="353" y="11" type="line"/>
      <point x="455" y="11" type="line"/>
      <point x="455" y="529" type="line"/>
      <point x="353" y="529" type="line"/>
    </contour>
    <contour>
      <point x="129" y="256" type="line"/>
      <point x="410" y="256" type="line"/>
      <point x="410" y="295" type="line"/>
      <point x="129" y="295" type="line"/>
    </contour>
    <contour>
      <point x="353" y="80" type="line"/>
      <point x="353" y="48"/>
      <point x="338" y="37"/>
      <point x="293" y="37" type="curve"/>
      <point x="293" y="0" type="line"/>
      <point x="515" y="0" type="line"/>
      <point x="515" y="37" type="line"/>
      <point x="470" y="37"/>
      <point x="455" y="48"/>
      <point x="455" y="80" type="curve"/>
    </contour>
    <contour>
      <point x="353" y="460" type="curve"/>
      <point x="455" y="460" type="line"/>
      <point x="455" y="492"/>
      <point x="470" y="503"/>
      <point x="515" y="503" type="curve"/>
      <point x="515" y="540" type="line"/>
      <point x="293" y="540" type="line"/>
      <point x="293" y="503" type="line"/>
      <point x="338" y="503"/>
      <point x="353" y="492"/>
    </contour>
    <component base=".smallcomponent_bottom_serif" xOffset="-12"/>
    <component base=".smallcomponent_top_serif" xOffset="-12"/>
  </outline>
</glyph>
<glyph name="i" format="2">
  <advance width="278"/>
  <unicode hex="0069"/>
  <outline>
    <contour>
      <point x="84" y="11" type="line"/>
      <point x="194" y="11" type="line"/>
      <point x="194" y="529" type="line"/>
      <point x="84" y="529" type="line"/>
    </contour>
    <component base="smallcomponent_bottom_serif" xOffset="-12"/>
    <component base="smallcomponent_top_serif" xOffset="-12"/>
  </outline>
</glyph>
<glyph name="j" format="2">
  <advance width="437"/>
  <unicode hex="006A"/>
  <outline>
    <contour>
      <point x="243" y="508" type="line"/>
      <point x="243" y="176" type="line" smooth="yes"/>
      <point x="243" y="83"/>
      <point x="214" y="29"/>
      <point x="163" y="29" type="curve"/>
      <point x="101" y="29"/>
      <point x="88" y="71"/>
      <point x="88" y="71" type="curve"/>
      <point x="88" y="71"/>
      <point x="158" y="76"/>
      <point x="158" y="137" type="curve" smooth="yes"/>
      <point x="158" y="178"/>
      <point x="128" y="208"/>
      <point x="88" y="207" type="curve" smooth="yes"/>
      <point x="47" y="206"/>
      <point x="16" y="171"/>
      <point x="16" y="127" type="curve"/>
      <point x="16" y="49"/>
      <point x="84" y="-10"/>
      <point x="174" y="-10" type="curve"/>
      <point x="291" y="-10"/>
      <point x="353" y="71"/>
      <point x="353" y="224" type="curve" smooth="yes"/>
      <point x="353" y="508" type="line"/>
    </contour>
    <component base=".smallcomponent_top_serif" xOffset="147"/>
  </outline>
</glyph>
<glyph name="l" format="2">
  <advance width="429"/>
  <unicode hex="006C"/>
  <outline>
    <contour>
      <point x="84" y="11" type="line"/>
      <point x="194" y="11" type="line"/>
      <point x="194" y="540" type="line"/>
      <point x="84" y="540" type="line"/>
    </contour>
    <contour>
      <point x="84" y="0" type="line"/>
      <point x="310" y="0" type="line" smooth="yes"/>
      <point x="357" y="0"/>
      <point x="373" y="-5"/>
      <point x="379" y="-21" type="curve"/>
      <point x="413" y="-21" type="line"/>
      <point x="413" y="173" type="line"/>
      <point x="380" y="173" type="line"/>
      <point x="367" y="62"/>
      <point x="346" y="39"/>
      <point x="257" y="39" type="curve" smooth="yes"/>
      <point x="194" y="39" type="line"/>
      <point x="194" y="77" type="line"/>
      <point x="84" y="77" type="line"/>
    </contour>
    <component base=".smallcomponent_top_serif" xOffset="-12"/>
    <component base=".smallcomponents_bottom_half_serif" xOffset="-12"/>
  </outline>
</glyph>
<glyph name="m" format="2">
  <advance width="631"/>
  <unicode hex="006D"/>
  <outline>
    <contour>
      <point x="84" y="540" type="line"/>
      <point x="84" y="11" type="line"/>
      <point x="128" y="11" type="line"/>
      <point x="128" y="503" type="line"/>
      <point x="114" y="501" type="line"/>
      <point x="278" y="0" type="line"/>
      <point x="319" y="0" type="line"/>
      <point x="454" y="490" type="line"/>
      <point x="445" y="490" type="line"/>
      <point x="445" y="11" type="line"/>
      <point x="547" y="11" type="line"/>
      <point x="547" y="540" type="line"/>
      <point x="425" y="540" type="line"/>
      <point x="314" y="147" type="line"/>
      <point x="331" y="146" type="line"/>
      <point x="201" y="540" type="line"/>
    </contour>
    <contour>
      <point x="547" y="463" type="line"/>
      <point x="547" y="495"/>
      <point x="562" y="506"/>
      <point x="607" y="506" type="curve"/>
      <point x="607" y="540" type="line"/>
      <point x="496" y="540" type="line"/>
      <point x="496" y="463" type="line"/>
    </contour>
    <contour>
      <point x="84" y="80" type="line"/>
      <point x="84" y="48"/>
      <point x="69" y="37"/>
      <point x="24" y="37" type="curve"/>
      <point x="24" y="0" type="line"/>
      <point x="188" y="0" type="line"/>
      <point x="188" y="37" type="line"/>
      <point x="143" y="37"/>
      <point x="128" y="48"/>
      <point x="128" y="80" type="curve"/>
    </contour>
    <contour>
      <point x="445" y="80" type="line"/>
      <point x="445" y="48"/>
      <point x="430" y="37"/>
      <point x="385" y="37" type="curve"/>
      <point x="385" y="0" type="line"/>
      <point x="607" y="0" type="line"/>
      <point x="607" y="37" type="line"/>
      <point x="562" y="37"/>
      <point x="547" y="48"/>
      <point x="547" y="80" type="curve"/>
    </contour>
    <component base="smallcomponent_top_half_serif" xOffset="-12"/>
  </outline>
</glyph>
<glyph name="n" format="2">
  <advance width="531"/>
  <unicode hex="006E"/>
  <outline>
    <contour>
      <point x="84" y="80" type="line"/>
      <point x="84" y="48"/>
      <point x="69" y="37"/>
      <point x="24" y="37" type="curve"/>
      <point x="24" y="0" type="line"/>
      <point x="188" y="0" type="line"/>
      <point x="188" y="37" type="line"/>
      <point x="143" y="37"/>
      <point x="128" y="48"/>
      <point x="128" y="80" type="curve"/>
    </contour>
    <contour>
      <point x="407" y="460" type="curve"/>
      <point x="451" y="460" type="line"/>
      <point x="451" y="492"/>
      <point x="466" y="503"/>
      <point x="511" y="503" type="curve"/>
      <point x="511" y="540" type="line"/>
      <point x="347" y="540" type="line"/>
      <point x="347" y="503" type="line"/>
      <point x="392" y="503"/>
      <point x="407" y="492"/>
    </contour>
    <contour>
      <point x="84" y="540" type="line"/>
      <point x="84" y="11" type="line"/>
      <point x="128" y="11" type="line"/>
      <point x="128" y="352" type="line"/>
      <point x="128" y="482" type="line"/>
      <point x="108" y="482" type="line"/>
      <point x="406" y="0" type="line"/>
      <point x="451" y="0" type="line"/>
      <point x="451" y="529" type="line"/>
      <point x="407" y="529" type="line"/>
      <point x="407" y="135" type="line"/>
      <point x="444" y="135" type="line"/>
      <point x="192" y="540" type="line"/>
    </contour>
    <component base=".smallcomponent_top_half_serif" xOffset="-12"/>
  </outline>
</glyph>
<glyph name="o" format="2">
  <advance width="466"/>
  <unicode hex="006F"/>
  <outline>
    <contour>
      <point x="234" y="555" type="curve"/>
      <point x="107" y="555"/>
      <point x="40" y="482.0"/>
      <point x="40" y="341" type="curve" smooth="yes"/>
      <point x="40" y="199" type="line" smooth="yes"/>
      <point x="40" y="60"/>
      <point x="108" y="-15"/>
      <point x="234" y="-15" type="curve"/>
      <point x="360" y="-15"/>
      <point x="426" y="58"/>
      <point x="426" y="199" type="curve" smooth="yes"/>
      <point x="426" y="341" type="line" smooth="yes"/>
      <point x="426.0" y="477.0"/>
      <point x="356" y="555"/>
    </contour>
    <contour>
      <point x="234" y="24" type="curve"/>
      <point x="184" y="24.0"/>
      <point x="152" y="61"/>
      <point x="152" y="119" type="curve" smooth="yes"/>
      <point x="152" y="420" type="line" smooth="yes"/>
      <point x="152" y="475"/>
      <point x="187" y="516.0"/>
      <point x="234" y="516" type="curve"/>
      <point x="282" y="516.0"/>
      <point x="316.0" y="476.0"/>
      <point x="316" y="420" type="curve" smooth="yes"/>
      <point x="316" y="119" type="line" smooth="yes"/>
      <point x="316" y="63"/>
      <point x="282" y="24.0"/>
    </contour>
  </outline>
</glyph>
<glyph name="p" format="2">
  <advance width="456"/>
  <unicode hex="0070"/>
  <outline>
    <contour>
      <point x="84" y="11" type="line"/>
      <point x="194" y="11" type="line"/>
      <point x="194" y="529" type="line"/>
      <point x="84" y="529" type="line"/>
    </contour>
    <contour>
      <point x="84" y="460" type="line"/>
      <point x="194" y="460" type="line"/>
      <point x="194" y="501" type="line"/>
      <point x="260" y="501" type="line" smooth="yes"/>
      <point x="304" y="501"/>
      <point x="333" y="463"/>
      <point x="333" y="404" type="curve" smooth="yes"/>
      <point x="333" y="333" type="line" smooth="yes"/>
      <point x="333" y="274"/>
      <point x="304" y="235"/>
      <point x="260" y="235" type="curve" smooth="yes"/>
      <point x="234" y="235" type="line"/>
      <point x="234" y="198" type="line"/>
      <point x="260" y="198" type="line" smooth="yes"/>
      <point x="381" y="198"/>
      <point x="438" y="252"/>
      <point x="438" y="367" type="curve"/>
      <point x="438" y="484"/>
      <point x="381" y="540"/>
      <point x="260" y="540" type="curve" smooth="yes"/>
      <point x="84" y="540" type="line"/>
    </contour>
    <component base=".smallcomponent_bottom_serif" xOffset="-12"/>
    <component base=".smallcomponent_top_half_serif" xOffset="-12"/>
  </outline>
</glyph>
<glyph name="q" format="2">
  <advance width="468"/>
  <unicode hex="0071"/>
  <outline>
    <contour>
      <point x="254" y="145" type="curve"/>
      <point x="254" y="40"/>
      <point x="306" y="0"/>
      <point x="442" y="0" type="curve" smooth="yes"/>
      <point x="448" y="0" type="line"/>
      <point x="448" y="37" type="line"/>
      <point x="422" y="37" type="line" smooth="yes"/>
      <point x="365" y="37"/>
      <point x="328.0" y="78.39805825242719"/>
      <point x="328" y="141" type="curve"/>
      <point x="328.0" y="234.34722222222223"/>
      <point x="271.1871657754011" y="284"/>
      <point x="162" y="284" type="curve" smooth="yes"/>
      <point x="141" y="284" type="line"/>
      <point x="141" y="245" type="line"/>
      <point x="181" y="245" type="line" smooth="yes"/>
      <point x="225.0" y="245"/>
      <point x="254.0" y="206.0"/>
    </contour>
    <contour>
      <point x="234" y="550" type="curve"/>
      <point x="107.0" y="550.0"/>
      <point x="40" y="477"/>
      <point x="40" y="336" type="curve" smooth="yes"/>
      <point x="40" y="204" type="line" smooth="yes"/>
      <point x="40" y="65.0"/>
      <point x="108.0" y="-10.0"/>
      <point x="234" y="-10" type="curve"/>
      <point x="367" y="-10.0"/>
      <point x="436.0" y="63.0"/>
      <point x="436" y="204" type="curve" smooth="yes"/>
      <point x="436" y="336" type="line" smooth="yes"/>
      <point x="436" y="472"/>
      <point x="362.35416666666663" y="550.0"/>
    </contour>
    <contour>
      <point x="234" y="29" type="curve"/>
      <point x="183.0" y="29.0"/>
      <point x="150.0" y="66.0"/>
      <point x="150" y="124" type="curve" smooth="yes"/>
      <point x="150" y="415" type="line" smooth="yes"/>
      <point x="150" y="471"/>
      <point x="185.0" y="511.0"/>
      <point x="234" y="511" type="curve"/>
      <point x="289.95238095238096" y="511.0"/>
      <point x="328" y="472"/>
      <point x="328" y="415" type="curve" smooth="yes"/>
      <point x="328" y="124" type="line" smooth="yes"/>
      <point x="328.0" y="68.0"/>
      <point x="289" y="29.0"/>
    </contour>
  </outline>
</glyph>
<glyph name="s" format="2">
  <advance width="432"/>
  <unicode hex="0073"/>
  <outline>
    <contour>
      <point x="205" y="550" type="curve"/>
      <point x="120" y="550"/>
      <point x="43" y="480"/>
      <point x="43" y="402" type="curve"/>
      <point x="43" y="346"/>
      <point x="78" y="297"/>
      <point x="142" y="262" type="curve" smooth="yes"/>
      <point x="230" y="213" type="line" smooth="yes"/>
      <point x="278" y="186"/>
      <point x="300" y="157"/>
      <point x="300" y="121" type="curve"/>
      <point x="300" y="77"/>
      <point x="255" y="33"/>
      <point x="210" y="33" type="curve"/>
      <point x="142" y="33"/>
      <point x="93" y="93"/>
      <point x="74" y="198" type="curve"/>
      <point x="40" y="198" type="line"/>
      <point x="40" y="0" type="line"/>
      <point x="75" y="0" type="line"/>
      <point x="79" y="11"/>
      <point x="91" y="18"/>
      <point x="105" y="18" type="curve"/>
      <point x="124" y="18"/>
      <point x="151" y="-10"/>
      <point x="225" y="-10" type="curve" smooth="yes"/>
      <point x="322" y="-10"/>
      <point x="400" y="56"/>
      <point x="400" y="139" type="curve"/>
      <point x="400" y="205"/>
      <point x="367" y="260"/>
      <point x="310" y="291" type="curve" smooth="yes"/>
      <point x="202" y="350" type="line" smooth="yes"/>
      <point x="154" y="376"/>
      <point x="138" y="397"/>
      <point x="138" y="435" type="curve"/>
      <point x="138" y="476"/>
      <point x="172" y="509"/>
      <point x="214" y="509" type="curve"/>
      <point x="269" y="509"/>
      <point x="297" y="480"/>
      <point x="331" y="388" type="curve"/>
      <point x="365" y="397" type="line"/>
      <point x="324" y="558" type="line"/>
      <point x="290" y="558" type="line"/>
      <point x="280" y="531"/>
      <point x="264" y="550"/>
    </contour>
  </outline>
</glyph>
<glyph name="t" format="2">
  <advance width="440"/>
  <unicode hex="0074"/>
  <outline>
    <contour>
      <point x="164" y="8" type="line"/>
      <point x="274" y="8" type="line"/>
      <point x="274" y="513" type="line"/>
      <point x="164" y="513" type="line"/>
    </contour>
    <contour>
      <point x="329" y="540" type="curve" smooth="yes"/>
      <point x="111" y="540" type="line" smooth="yes"/>
      <point x="81" y="540"/>
      <point x="67" y="548"/>
      <point x="65" y="566" type="curve"/>
      <point x="34" y="566" type="line"/>
      <point x="0" y="374" type="line"/>
      <point x="34" y="365" type="line"/>
      <point x="66" y="481"/>
      <point x="83" y="501"/>
      <point x="147" y="501" type="curve" smooth="yes"/>
      <point x="293" y="501" type="line" smooth="yes"/>
      <point x="357" y="501"/>
      <point x="374" y="481"/>
      <point x="406" y="365" type="curve"/>
      <point x="440" y="374" type="line"/>
      <point x="406" y="566" type="line"/>
      <point x="375" y="566" type="line"/>
      <point x="373" y="548"/>
      <point x="359" y="540"/>
    </contour>
    <component base=".smallcomponent_bottom_serif" xOffset="68"/>
  </outline>
</glyph>
<glyph name="u" format="2">
  <advance width="488"/>
  <unicode hex="0075"/>
  <outline>
    <contour>
      <point x="420" y="204" type="curve" smooth="yes"/>
      <point x="420" y="526" type="line"/>
      <point x="377" y="526" type="line"/>
      <point x="377" y="189" type="line" smooth="yes"/>
      <point x="377" y="97"/>
      <point x="335" y="32"/>
      <point x="274" y="32" type="curve"/>
      <point x="216" y="32"/>
      <point x="178" y="74"/>
      <point x="178" y="136" type="curve" smooth="yes"/>
      <point x="178" y="526" type="line"/>
      <point x="68" y="526" type="line"/>
      <point x="68" y="204" type="line" smooth="yes"/>
      <point x="68" y="70"/>
      <point x="138" y="-10"/>
      <point x="253" y="-10" type="curve"/>
      <point x="365" y="-10"/>
      <point x="420" y="60"/>
    </contour>
    <contour>
      <point x="377" y="460" type="curve"/>
      <point x="420" y="460" type="line"/>
      <point x="420" y="492"/>
      <point x="435" y="503"/>
      <point x="480" y="503" type="curve"/>
      <point x="480" y="540" type="line"/>
      <point x="317" y="540" type="line"/>
      <point x="317" y="503" type="line"/>
      <point x="362" y="503"/>
      <point x="377" y="492"/>
    </contour>
    <component base="smallcomponent_top_serif" xOffset="-28"/>
  </outline>
</glyph>
<glyph name="y" format="2">
  <advance width="454"/>
  <unicode hex="0079"/>
  <outline>
    <contour>
      <point x="181" y="0" type="line"/>
      <point x="291" y="0" type="line"/>
      <point x="291" y="204" type="line"/>
      <point x="396" y="462" type="line" smooth="yes"/>
      <point x="410" y="496"/>
      <point x="424" y="506"/>
      <point x="458" y="506" type="curve"/>
      <point x="458" y="540" type="line"/>
      <point x="288" y="540" type="line"/>
      <point x="288" y="506" type="line"/>
      <point x="337" y="506"/>
      <point x="359" y="490"/>
      <point x="348" y="462" type="curve" smooth="yes"/>
      <point x="250" y="224" type="line"/>
      <point x="272" y="224" type="line"/>
      <point x="166" y="464" type="line" smooth="yes"/>
      <point x="156" y="486"/>
      <point x="185" y="506"/>
      <point x="226" y="506" type="curve"/>
      <point x="226" y="540" type="line"/>
      <point x="-4" y="540" type="line"/>
      <point x="-4" y="506" type="line"/>
      <point x="29" y="506"/>
      <point x="40" y="498"/>
      <point x="56" y="463" type="curve" smooth="yes"/>
      <point x="181" y="188" type="line"/>
    </contour>
    <component base="smallcomponent_bottom_serif" xOffset="85"/>
  </outline>
</glyph>
<glyph name="z" format="2">
  <advance width="396"/>
  <unicode hex="007A"/>
  <outline>
    <contour>
      <point x="232" y="39" type="curve" smooth="yes"/>
      <point x="100" y="39" type="line"/>
      <point x="116" y="12" type="line"/>
      <point x="370" y="501" type="line"/>
      <point x="371" y="501" type="line"/>
      <point x="371" y="540" type="line"/>
      <point x="145" y="540" type="line" smooth="yes"/>
      <point x="109" y="540"/>
      <point x="99" y="544"/>
      <point x="96" y="559" type="curve"/>
      <point x="63" y="559" type="line"/>
      <point x="22" y="397" type="line"/>
      <point x="55" y="388" type="line"/>
      <point x="92" y="484"/>
      <point x="114" y="501"/>
      <point x="201" y="501" type="curve" smooth="yes"/>
      <point x="289" y="501" type="line"/>
      <point x="273" y="528" type="line"/>
      <point x="16" y="39" type="line"/>
      <point x="16" y="0" type="line"/>
      <point x="285" y="0" type="line" smooth="yes"/>
      <point x="332" y="0"/>
      <point x="348" y="-5"/>
      <point x="354" y="-21" type="curve"/>
      <point x="388" y="-21" type="line"/>
      <point x="388" y="173" type="line"/>
      <point x="355" y="173" type="line"/>
      <point x="342" y="62"/>
      <point x="321" y="39"/>
    </contour>
  </outline>
</glyph>
<glyph name="braceright" format="2">
  <advance width="269"/>
  <unicode hex="007D"/>
  <outline>
    <contour>
      <point x="82" y="-119" type="line" smooth="yes"/>
      <point x="82" y="-175"/>
      <point x="52" y="-211"/>
      <point x="9" y="-211" type="curve" smooth="yes"/>
      <point x="-12" y="-211" type="line"/>
      <point x="-12" y="-250" type="line"/>
      <point x="-11" y="-250" type="line" smooth="yes"/>
      <point x="123" y="-250"/>
      <point x="177" y="-196"/>
      <point x="177" y="-55" type="curve" smooth="yes"/>
      <point x="177" y="168" type="line" smooth="yes"/>
      <point x="177" y="227"/>
      <point x="206" y="265"/>
      <point x="250" y="265" type="curve" smooth="yes"/>
      <point x="269" y="265" type="line" smooth="yes"/>
      <point x="269" y="304" type="line"/>
      <point x="250" y="304" type="line" smooth="yes"/>
      <point x="206" y="304"/>
      <point x="177" y="342"/>
      <point x="177" y="401" type="curve" smooth="yes"/>
      <point x="177" y="594" type="line" smooth="yes"/>
      <point x="177" y="735"/>
      <point x="123" y="789"/>
      <point x="-11" y="789" type="curve" smooth="yes"/>
      <point x="-12" y="789" type="line"/>
      <point x="-12" y="750" type="line"/>
      <point x="9" y="750" type="line" smooth="yes"/>
      <point x="52" y="750"/>
      <point x="82" y="714"/>
      <point x="82" y="658" type="curve" smooth="yes"/>
      <point x="82" y="477" type="line" smooth="yes"/>
      <point x="82" y="379"/>
      <point x="114" y="315"/>
      <point x="202" y="270" type="curve"/>
      <point x="202" y="297" type="line"/>
      <point x="114" y="254"/>
      <point x="82" y="190"/>
      <point x="82" y="92" type="curve" smooth="yes"/>
    </contour>
  </outline>
</glyph>
<glyph name="exclamdown" format="2">
  <advance width="179"/>
  <unicode hex="00A1"/>
  <outline>
    <contour>
      <point x="145" y="-144" type="curve"/>
      <point x="145" y="-7"/>
      <point x="133" y="251"/>
      <point x="111" y="353" type="curve"/>
      <point x="67" y="353" type="line"/>
      <point x="46" y="251"/>
      <point x="35" y="-7"/>
      <point x="34" y="-144" type="curve"/>
      <point x="34" y="-189"/>
      <point x="54" y="-215"/>
      <point x="88" y="-215" type="curve"/>
      <point x="125" y="-215"/>
      <point x="145.0" y="-191"/>
    </contour>
    <contour>
      <point x="143" y="491" type="curve"/>
      <point x="143" y="529"/>
      <point x="124" y="550"/>
      <point x="88" y="550" type="curve"/>
      <point x="54" y="550"/>
      <point x="36" y="529"/>
      <point x="36" y="491" type="curve"/>
      <point x="36" y="452"/>
      <point x="55" y="430"/>
      <point x="88" y="430" type="curve"/>
      <point x="124.0" y="430"/>
      <point x="143.0" y="451"/>
    </contour>
  </outline>
</glyph>
<glyph name="cent" format="2">
  <advance width="540"/>
  <unicode hex="00A2"/>
  <outline>
    <contour>
      <point x="265" y="0" type="line"/>
      <point x="305" y="0" type="line"/>
      <point x="305" y="115" type="line"/>
      <point x="265" y="115" type="line"/>
    </contour>
    <contour>
      <point x="265" y="635" type="line"/>
      <point x="305" y="635" type="line"/>
      <point x="305" y="750" type="line"/>
      <point x="265" y="750" type="line"/>
    </contour>
    <component base="c" xOffset="55" yOffset="105"/>
  </outline>
</glyph>
<glyph name="currency" format="2">
  <advance width="577"/>
  <unicode hex="00A4"/>
  <outline>
    <contour>
      <point x="501" y="381" type="curve"/>
      <point x="501" y="515"/>
      <point x="416" y="595"/>
      <point x="289" y="595" type="curve"/>
      <point x="157" y="595"/>
      <point x="75" y="518"/>
      <point x="75" y="381" type="curve"/>
      <point x="75" y="245"/>
      <point x="158" y="167"/>
      <point x="289" y="167" type="curve"/>
      <point x="421" y="167"/>
      <point x="501" y="244"/>
    </contour>
    <contour>
      <point x="183" y="383" type="curve"/>
      <point x="183" y="501"/>
      <point x="220" y="556"/>
      <point x="287" y="556" type="curve"/>
      <point x="358" y="556"/>
      <point x="394" y="501"/>
      <point x="394" y="383" type="curve"/>
      <point x="394" y="265"/>
      <point x="357" y="210"/>
      <point x="288" y="210" type="curve"/>
      <point x="219" y="210"/>
      <point x="183" y="265"/>
    </contour>
    <contour>
      <point x="439" y="485" type="line"/>
      <point x="545" y="591" type="line"/>
      <point x="498" y="638" type="line"/>
      <point x="398" y="538" type="line"/>
    </contour>
    <contour>
      <point x="178" y="539" type="line"/>
      <point x="79" y="638" type="line"/>
      <point x="32" y="591" type="line"/>
      <point x="137" y="486" type="line"/>
    </contour>
    <contour>
      <point x="79" y="125" type="line"/>
      <point x="185" y="231" type="line"/>
      <point x="146" y="286" type="line"/>
      <point x="32" y="172" type="line"/>
    </contour>
    <contour>
      <point x="498" y="125" type="line"/>
      <point x="545" y="172" type="line"/>
      <point x="431" y="286" type="line"/>
      <point x="395" y="228" type="line"/>
    </contour>
  </outline>
</glyph>
<glyph name="yen" format="2">
  <advance width="540"/>
  <unicode hex="00A5"/>
  <outline>
    <contour>
      <point x="414" y="323" type="line"/>
      <point x="137" y="323" type="line"/>
      <point x="137" y="284" type="line"/>
      <point x="414" y="284" type="line" smooth="yes"/>
    </contour>
    <contour>
      <point x="394" y="244" type="line"/>
      <point x="157" y="244" type="line"/>
      <point x="157" y="205" type="line"/>
      <point x="394" y="205" type="line" smooth="yes"/>
    </contour>
    <component base="y" xOffset="39" yOffset="105"/>
  </outline>
</glyph>
<glyph name="brokenbar" format="2">
  <advance width="828"/>
  <unicode hex="00A6"/>
  <outline>
    <contour>
      <point x="451" y="379" type="line"/>
      <point x="451" y="750" type="line"/>
      <point x="376" y="750" type="line"/>
      <point x="376" y="379" type="line"/>
    </contour>
    <contour>
      <point x="451" y="-117" type="line"/>
      <point x="451" y="242" type="line"/>
      <point x="376" y="242" type="line"/>
      <point x="376" y="-117" type="line"/>
    </contour>
  </outline>
</glyph>
<glyph name="section" format="2">
  <advance width="540"/>
  <unicode hex="00A7"/>
  <outline>
    <contour>
      <point x="440" y="112" type="curve"/>
      <point x="440.0" y="173.0"/>
      <point x="414.0" y="219.0"/>
      <point x="350" y="266" type="curve"/>
      <point x="347" y="235" type="line"/>
      <point x="424" y="272"/>
      <point x="460.0" y="318.0"/>
      <point x="460" y="377" type="curve"/>
      <point x="460" y="443"/>
      <point x="426" y="499"/>
      <point x="370" y="529" type="curve" smooth="yes"/>
      <point x="262" y="588" type="line" smooth="yes"/>
      <point x="215" y="614"/>
      <point x="198" y="636.0"/>
      <point x="198" y="673" type="curve"/>
      <point x="198" y="714"/>
      <point x="231" y="746"/>
      <point x="274" y="746" type="curve"/>
      <point x="329.0" y="746.0"/>
      <point x="356.0" y="717.0"/>
      <point x="391" y="626" type="curve"/>
      <point x="425" y="635" type="line"/>
      <point x="384" y="796" type="line"/>
      <point x="350" y="796" type="line"/>
      <point x="340" y="769"/>
      <point x="324" y="788"/>
      <point x="265" y="788" type="curve"/>
      <point x="180" y="788"/>
      <point x="103" y="718"/>
      <point x="103" y="640" type="curve"/>
      <point x="103.0" y="587.0"/>
      <point x="135.0" y="543.0"/>
      <point x="209" y="495" type="curve"/>
      <point x="212" y="522" type="line"/>
      <point x="129.0" y="490.0"/>
      <point x="83.0" y="436.0"/>
      <point x="83" y="375" type="curve"/>
      <point x="83" y="319"/>
      <point x="119" y="270"/>
      <point x="182" y="235" type="curve" smooth="yes"/>
      <point x="270" y="186" type="line" smooth="yes"/>
      <point x="318" y="159"/>
      <point x="340" y="129"/>
      <point x="340" y="94" type="curve"/>
      <point x="340" y="52"/>
      <point x="295" y="8"/>
      <point x="249" y="8" type="curve" smooth="yes"/>
      <point x="182" y="8"/>
      <point x="133" y="66"/>
      <point x="114" y="171" type="curve"/>
      <point x="80" y="171" type="line"/>
      <point x="80" y="-27" type="line"/>
      <point x="115" y="-27" type="line"/>
      <point x="119" y="-16"/>
      <point x="131" y="-9"/>
      <point x="145" y="-9" type="curve"/>
      <point x="164" y="-9"/>
      <point x="191" y="-37"/>
      <point x="265" y="-37" type="curve" smooth="yes"/>
      <point x="362" y="-37"/>
      <point x="440" y="29"/>
    </contour>
    <contour>
      <point x="242" y="323" type="line" smooth="yes"/>
      <point x="196" y="348"/>
      <point x="178" y="371.0"/>
      <point x="178" y="408" type="curve"/>
      <point x="178" y="447.0"/>
      <point x="207" y="473"/>
      <point x="268" y="486" type="curve"/>
      <point x="213" y="495" type="line"/>
      <point x="290" y="451" type="line" smooth="yes"/>
      <point x="338" y="424"/>
      <point x="360" y="394"/>
      <point x="360" y="359" type="curve"/>
      <point x="360.0" y="327.0"/>
      <point x="338.0" y="301.0"/>
      <point x="285" y="270" type="curve"/>
      <point x="337" y="271" type="line"/>
    </contour>
  </outline>
</glyph>
<glyph name="dieresis" format="2">
  <advance width="394"/>
  <unicode hex="00A8"/>
  <outline>
    <contour>
      <point x="77" y="866" type="curve"/>
      <point x="77.0" y="834.0"/>
      <point x="93.0" y="817.0"/>
      <point x="123" y="817" type="curve"/>
      <point x="151.0" y="817.0"/>
      <point x="166.0" y="834.0"/>
      <point x="166" y="866" type="curve"/>
      <point x="166.0" y="899.0"/>
      <point x="151.0" y="917.0"/>
      <point x="123" y="917" type="curve"/>
      <point x="93" y="917"/>
      <point x="77" y="900"/>
    </contour>
    <contour>
      <point x="227" y="866" type="curve"/>
      <point x="227.0" y="834.0"/>
      <point x="243.0" y="817.0"/>
      <point x="273" y="817" type="curve"/>
      <point x="301.0" y="817.0"/>
      <point x="316.0" y="834.0"/>
      <point x="316" y="866" type="curve"/>
      <point x="316.0" y="899.0"/>
      <point x="301.0" y="917.0"/>
      <point x="273" y="917" type="curve"/>
      <point x="243" y="917"/>
      <point x="227" y="900"/>
    </contour>
  </outline>
</glyph>
<glyph name="ordfeminine" format="2">
  <advance width="152"/>
  <unicode hex="00AA"/>
  <outline>
    <contour>
      <point x="40" y="636" type="line"/>
      <point x="109" y="636" type="line"/>
      <point x="109" y="647" type="line"/>
      <point x="40" y="647" type="line"/>
    </contour>
    <contour>
      <point x="39" y="616" type="curve" smooth="yes"/>
      <point x="71" y="716" type="line"/>
      <point x="65" y="716" type="line"/>
      <point x="96" y="615" type="line" smooth="yes"/>
      <point x="99" y="607"/>
      <point x="93" y="604"/>
      <point x="79" y="604" type="curve"/>
      <point x="79" y="594" type="line"/>
      <point x="144" y="594" type="line"/>
      <point x="144" y="604" type="line"/>
      <point x="133" y="604"/>
      <point x="130" y="606"/>
      <point x="127" y="616" type="curve" smooth="yes"/>
      <point x="82" y="749" type="line"/>
      <point x="68" y="749" type="line"/>
      <point x="26" y="616" type="line" smooth="yes"/>
      <point x="23" y="607"/>
      <point x="18" y="604"/>
      <point x="8" y="604" type="curve"/>
      <point x="8" y="594" type="line"/>
      <point x="56" y="594" type="line"/>
      <point x="56" y="604" type="line"/>
      <point x="43" y="604"/>
      <point x="36" y="609"/>
    </contour>
  </outline>
</glyph>
<glyph name="logicalnot" format="2">
  <advance width="538"/>
  <unicode hex="00AC"/>
  <outline>
    <contour>
      <point x="40" y="291" type="line"/>
      <point x="498" y="291" type="line"/>
      <point x="498" y="369" type="line"/>
      <point x="40" y="369" type="line"/>
    </contour>
    <contour>
      <point x="498" y="171.0" type="line"/>
      <point x="498" y="369.0" type="line"/>
      <point x="420" y="369.0" type="line"/>
      <point x="420" y="171.0" type="line"/>
    </contour>
  </outline>
</glyph>
<glyph name="plusminus" format="2">
  <advance width="538"/>
  <unicode hex="00B1"/>
  <outline>
    <contour>
      <point x="229" y="186" type="line"/>
      <point x="309" y="186" type="line"/>
      <point x="306" y="357" type="line"/>
      <point x="289" y="339" type="line"/>
      <point x="448" y="336" type="line"/>
      <point x="448" y="414" type="line"/>
      <point x="289" y="411" type="line"/>
      <point x="306" y="393" type="line"/>
      <point x="309" y="564" type="line"/>
      <point x="229" y="564" type="line"/>
      <point x="232" y="393" type="line"/>
      <point x="249" y="411" type="line"/>
      <point x="90" y="414" type="line"/>
      <point x="90" y="336" type="line"/>
      <point x="249" y="339" type="line"/>
      <point x="232" y="357" type="line"/>
    </contour>
    <contour>
      <point x="66" y="72" type="line"/>
      <point x="464" y="72" type="line"/>
      <point x="464" y="139" type="line"/>
      <point x="66" y="139" type="line"/>
    </contour>
  </outline>
</glyph>
<glyph name="threesuperior" format="2">
  <advance width="320"/>
  <unicode hex="00B3"/>
  <outline>
    <contour>
      <point x="147" y="732" type="curve"/>
      <point x="178" y="732"/>
      <point x="194" y="714"/>
      <point x="194" y="672" type="curve"/>
      <point x="194" y="640"/>
      <point x="173" y="608"/>
      <point x="139" y="594" type="curve"/>
      <point x="139" y="594"/>
      <point x="153" y="569"/>
      <point x="153" y="569" type="curve"/>
      <point x="184" y="569"/>
      <point x="200" y="545"/>
      <point x="200" y="497" type="curve"/>
      <point x="200" y="446"/>
      <point x="180" y="421"/>
      <point x="144" y="421" type="curve"/>
      <point x="120" y="421"/>
      <point x="104" y="431"/>
      <point x="94" y="454" type="curve"/>
      <point x="86" y="432" type="line"/>
      <point x="113" y="436"/>
      <point x="133" y="451"/>
      <point x="133" y="472" type="curve"/>
      <point x="133" y="491"/>
      <point x="115" y="509"/>
      <point x="95" y="509" type="curve" smooth="yes"/>
      <point x="74" y="508"/>
      <point x="56" y="489"/>
      <point x="56" y="466" type="curve"/>
      <point x="56" y="422"/>
      <point x="95" y="391"/>
      <point x="149" y="391" type="curve"/>
      <point x="222" y="391"/>
      <point x="264" y="428"/>
      <point x="264" y="503" type="curve"/>
      <point x="264" y="545"/>
      <point x="230" y="583"/>
      <point x="184" y="597" type="curve"/>
      <point x="184" y="587" type="line"/>
      <point x="226" y="601"/>
      <point x="253" y="635"/>
      <point x="253" y="675" type="curve"/>
      <point x="253" y="728"/>
      <point x="213" y="760"/>
      <point x="153" y="760" type="curve"/>
      <point x="99" y="760"/>
      <point x="60" y="730"/>
      <point x="60" y="685" type="curve"/>
      <point x="60" y="662"/>
      <point x="78" y="644"/>
      <point x="100" y="642" type="curve" smooth="yes"/>
      <point x="120" y="642"/>
      <point x="138" y="659"/>
      <point x="138" y="677" type="curve"/>
      <point x="138" y="698"/>
      <point x="119" y="712"/>
      <point x="92" y="716" type="curve"/>
      <point x="98" y="698" type="line"/>
      <point x="104" y="719"/>
      <point x="122" y="732"/>
    </contour>
  </outline>
</glyph>
<glyph name="mu.math" format="2">
  <advance width="488"/>
  <unicode hex="00B5"/>
  <outline>
    <contour>
      <point x="420" y="204" type="curve" smooth="yes"/>
      <point x="420" y="526" type="line"/>
      <point x="377" y="526" type="line"/>
      <point x="377" y="189" type="line" smooth="yes"/>
      <point x="377" y="97"/>
      <point x="335" y="32"/>
      <point x="274" y="32" type="curve"/>
      <point x="216" y="32"/>
      <point x="178" y="74"/>
      <point x="178" y="136" type="curve" smooth="yes"/>
      <point x="178" y="526" type="line"/>
      <point x="68" y="526" type="line"/>
      <point x="68" y="204" type="line" smooth="yes"/>
      <point x="68" y="70"/>
      <point x="138" y="-10"/>
      <point x="253" y="-10" type="curve"/>
      <point x="365" y="-10"/>
      <point x="420" y="60"/>
    </contour>
    <contour>
      <point x="377" y="460" type="curve"/>
      <point x="420" y="460" type="line"/>
      <point x="420" y="492"/>
      <point x="435" y="503"/>
      <point x="480" y="503" type="curve"/>
      <point x="480" y="540" type="line"/>
      <point x="317" y="540" type="line"/>
      <point x="317" y="503" type="line"/>
      <point x="362" y="503"/>
      <point x="377" y="492"/>
    </contour>
    <contour>
      <point x="8" y="503" type="line"/>
      <point x="51" y="503"/>
      <point x="68" y="491"/>
      <point x="68" y="460" type="curve"/>
      <point x="178" y="460" type="line"/>
      <point x="178" y="491"/>
      <point x="195" y="503"/>
      <point x="238" y="503" type="curve"/>
      <point x="238" y="540" type="line"/>
      <point x="8" y="540" type="line"/>
    </contour>
    <contour>
      <point x="178" y="-232" type="line"/>
      <point x="178" y="278" type="line"/>
      <point x="68" y="278" type="line"/>
      <point x="68" y="-232" type="line" smooth="yes"/>
    </contour>
    <contour>
      <point x="7" y="-213" type="curve"/>
      <point x="7" y="-250" type="line"/>
      <point x="237" y="-250" type="line"/>
      <point x="237" y="-213" type="line"/>
      <point x="194" y="-213"/>
      <point x="177" y="-201"/>
      <point x="177" y="-170" type="curve"/>
      <point x="67" y="-170" type="line"/>
      <point x="67" y="-201"/>
      <point x="50" y="-213"/>
    </contour>
  </outline>
</glyph>
<glyph name="paragraph" format="2">
  <advance width="540"/>
  <unicode hex="00B6"/>
  <outline>
    <contour>
      <point x="280" y="750" type="line"/>
      <point x="236" y="750" type="line" smooth="yes"/>
      <point x="110" y="750"/>
      <point x="48" y="679"/>
      <point x="48" y="537" type="curve" smooth="yes"/>
      <point x="48" y="474" type="line" smooth="yes"/>
      <point x="48" y="333"/>
      <point x="110" y="262"/>
      <point x="236" y="262" type="curve" smooth="yes"/>
      <point x="280" y="262" type="line"/>
    </contour>
    <contour>
      <point x="320" y="0" type="line"/>
      <point x="492" y="0" type="line"/>
      <point x="492" y="37" type="line"/>
      <point x="449" y="37"/>
      <point x="432" y="49"/>
      <point x="432" y="80" type="curve" smooth="yes"/>
      <point x="432" y="670" type="line"/>
      <point x="432" y="701"/>
      <point x="449" y="713"/>
      <point x="492" y="713" type="curve"/>
      <point x="492" y="750" type="line"/>
      <point x="320" y="750" type="line"/>
    </contour>
  </outline>
</glyph>
<glyph name="cedilla" format="2">
  <advance width="414"/>
  <unicode hex="00B8"/>
  <outline>
    <contour>
      <point x="264" y="-107" type="curve"/>
      <point x="264.0" y="-139"/>
      <point x="247.0" y="-153.0"/>
      <point x="209" y="-153" type="curve" smooth="yes"/>
      <point x="192" y="-153" type="line"/>
      <point x="192" y="-188" type="line"/>
      <point x="231" y="-188" type="line"/>
      <point x="281" y="-188"/>
      <point x="313.0" y="-155"/>
      <point x="313" y="-107" type="curve"/>
      <point x="313.0" y="-57"/>
      <point x="277" y="-29.0"/>
      <point x="218" y="-29" type="curve" smooth="yes"/>
      <point x="218.0" y="-29.0"/>
      <point x="218.0" y="-29.0"/>
      <point x="218" y="-29" type="curve"/>
      <point x="237" y="-8" type="line"/>
      <point x="192" y="-7" type="line"/>
      <point x="172" y="-30" type="line"/>
      <point x="172" y="-65" type="line"/>
      <point x="209" y="-65" type="line"/>
      <point x="242.0" y="-65.0"/>
      <point x="264.0" y="-82"/>
    </contour>
  </outline>
</glyph>
<glyph name="ordmasculine" format="2">
  <advance width="124"/>
  <unicode hex="00BA"/>
  <outline>
    <contour>
      <point x="62" y="750" type="curve"/>
      <point x="27" y="750"/>
      <point x="8" y="730"/>
      <point x="8" y="691" type="curve" smooth="yes"/>
      <point x="8" y="654" type="line" smooth="yes"/>
      <point x="8" y="615"/>
      <point x="27" y="594"/>
      <point x="62" y="594" type="curve"/>
      <point x="97" y="594"/>
      <point x="116" y="615"/>
      <point x="116" y="654" type="curve" smooth="yes"/>
      <point x="116" y="691" type="line" smooth="yes"/>
      <point x="116" y="729"/>
      <point x="96" y="750"/>
    </contour>
    <contour>
      <point x="62" y="605" type="curve"/>
      <point x="48" y="605"/>
      <point x="39" y="615"/>
      <point x="39" y="632" type="curve" smooth="yes"/>
      <point x="39" y="712" type="line" smooth="yes"/>
      <point x="39" y="728"/>
      <point x="49" y="739"/>
      <point x="62" y="739" type="curve"/>
      <point x="75" y="739"/>
      <point x="86" y="728"/>
      <point x="86" y="712" type="curve" smooth="yes"/>
      <point x="86" y="632" type="line" smooth="yes"/>
      <point x="86" y="616"/>
      <point x="75" y="605"/>
    </contour>
  </outline>
</glyph>
<glyph name="onequarter" format="2">
  <advance width="880"/>
  <unicode hex="00BC"/>
  <outline>
    <contour>
      <point x="586" y="38" type="curve"/>
      <point x="586" y="1" type="line"/>
      <point x="812" y="1" type="line"/>
      <point x="812" y="38" type="line"/>
      <point x="769" y="38"/>
      <point x="752" y="53"/>
      <point x="752" y="91" type="curve"/>
      <point x="646" y="91" type="line"/>
      <point x="646" y="53"/>
      <point x="629" y="38"/>
    </contour>
    <contour>
      <point x="658" y="389" type="line"/>
      <point x="646" y="409" type="line"/>
      <point x="646" y="12" type="line"/>
      <point x="752" y="12" type="line"/>
      <point x="752" y="540" type="line"/>
      <point x="710" y="540" type="line"/>
      <point x="460" y="186" type="line"/>
      <point x="460" y="142" type="line"/>
      <point x="802" y="142" type="line"/>
      <point x="802" y="186" type="line"/>
      <point x="513" y="186" type="line"/>
      <point x="498" y="157" type="line"/>
    </contour>
    <contour>
      <point x="128" y="604" type="line"/>
      <point x="128" y="221" type="line"/>
      <point x="238" y="221" type="line"/>
      <point x="238" y="750" type="line"/>
      <point x="203" y="750" type="line"/>
      <point x="178" y="698"/>
      <point x="126" y="657"/>
      <point x="68" y="640" type="curve"/>
      <point x="68" y="604" type="line"/>
    </contour>
    <contour>
      <point x="68" y="247" type="curve"/>
      <point x="68" y="210" type="line"/>
      <point x="298" y="210" type="line"/>
      <point x="298" y="247" type="line"/>
      <point x="255" y="247"/>
      <point x="238" y="262"/>
      <point x="238" y="300" type="curve"/>
      <point x="128" y="300" type="line"/>
      <point x="128" y="262"/>
      <point x="111" y="247"/>
    </contour>
    <contour>
      <point x="266" y="-75" type="line"/>
      <point x="324" y="-91" type="line"/>
      <point x="578" y="825" type="line"/>
      <point x="520" y="841" type="line"/>
    </contour>
  </outline>
</glyph>
<glyph name="questiondown" format="2">
  <advance width="540"/>
  <unicode hex="00BF"/>
  <outline>
    <contour>
      <point x="315.0" y="351" type="curve"/>
      <point x="259.0" y="351" type="line"/>
      <point x="259.0" y="140"/>
      <point x="56.0" y="165"/>
      <point x="56.0" y="-26" type="curve"/>
      <point x="56.0" y="-136"/>
      <point x="148.0" y="-214"/>
      <point x="276.0" y="-214" type="curve"/>
      <point x="388.0" y="-214"/>
      <point x="469.0" y="-148"/>
      <point x="469.0" y="-58" type="curve"/>
      <point x="469.0" y="-9"/>
      <point x="434.0" y="30"/>
      <point x="389.0" y="31" type="curve" smooth="yes"/>
      <point x="347.0" y="32"/>
      <point x="311.0" y="-2"/>
      <point x="311.0" y="-42" type="curve"/>
      <point x="311.0" y="-83"/>
      <point x="348.0" y="-115"/>
      <point x="405.0" y="-122" type="curve"/>
      <point x="391.0" y="-88" type="line"/>
      <point x="372.0" y="-139"/>
      <point x="336.0" y="-164"/>
      <point x="285.0" y="-164" type="curve"/>
      <point x="216.0" y="-164"/>
      <point x="168.0" y="-108"/>
      <point x="168.0" y="-28" type="curve"/>
      <point x="169.0" y="144"/>
      <point x="315.0" y="77"/>
    </contour>
    <contour>
      <point x="337.0" y="492" type="curve"/>
      <point x="337.0" y="530"/>
      <point x="318.0" y="551"/>
      <point x="282.0" y="551" type="curve"/>
      <point x="248.0" y="551"/>
      <point x="230.0" y="530"/>
      <point x="230.0" y="492" type="curve"/>
      <point x="230.0" y="453"/>
      <point x="249.0" y="431"/>
      <point x="282.0" y="431" type="curve"/>
      <point x="318.0" y="431"/>
      <point x="337.0" y="452"/>
    </contour>
  </outline>
</glyph>
<glyph name="germandbls" format="2">
  <advance width="538"/>
  <unicode hex="00DF"/>
  <outline>
    <contour>
      <point x="90" y="573" type="curve" smooth="yes"/>
      <point x="90" y="0" type="line"/>
      <point x="202" y="0" type="line"/>
      <point x="202" y="627" type="line" smooth="yes"/>
      <point x="202" y="679"/>
      <point x="230.0" y="716.0"/>
      <point x="270" y="716" type="curve"/>
      <point x="311.0" y="716.0"/>
      <point x="335.0" y="684.0"/>
      <point x="335" y="628" type="curve"/>
      <point x="335" y="506"/>
      <point x="250" y="514"/>
      <point x="250" y="411" type="curve"/>
      <point x="250" y="347.0"/>
      <point x="267" y="315"/>
      <point x="331" y="258" type="curve" smooth="yes"/>
      <point x="362" y="230" type="line" smooth="yes"/>
      <point x="411" y="185"/>
      <point x="426" y="157"/>
      <point x="426" y="108" type="curve" smooth="yes"/>
      <point x="426.0" y="66.0"/>
      <point x="399" y="33"/>
      <point x="365" y="33" type="curve" smooth="yes"/>
      <point x="342.0" y="33"/>
      <point x="331" y="38"/>
      <point x="311" y="58" type="curve" smooth="yes"/>
      <point x="291.0" y="78.0"/>
      <point x="278.0" y="112.0"/>
      <point x="270" y="165" type="curve"/>
      <point x="243" y="164" type="line"/>
      <point x="243" y="0" type="line"/>
      <point x="270" y="0" type="line"/>
      <point x="275" y="9"/>
      <point x="284" y="14"/>
      <point x="295" y="14" type="curve" smooth="yes"/>
      <point x="311" y="14"/>
      <point x="331" y="-5"/>
      <point x="386" y="-5" type="curve" smooth="yes"/>
      <point x="466.0" y="-5.0"/>
      <point x="522.0" y="63.0"/>
      <point x="522" y="163" type="curve"/>
      <point x="522.0" y="225.0"/>
      <point x="500" y="269"/>
      <point x="443" y="318" type="curve" smooth="yes"/>
      <point x="406" y="350" type="line" smooth="yes"/>
      <point x="348" y="401"/>
      <point x="334.0" y="420"/>
      <point x="334" y="446" type="curve"/>
      <point x="334" y="511"/>
      <point x="431" y="522"/>
      <point x="431" y="634" type="curve"/>
      <point x="431.0" y="710.0"/>
      <point x="366.0" y="760.0"/>
      <point x="270" y="760" type="curve"/>
      <point x="154.0" y="760.0"/>
      <point x="90" y="693"/>
    </contour>
    <component base=".smallcomponents_bottom_half_serif" xOffset="-6"/>
  </outline>
</glyph>
<glyph name="ae" format="2">
  <advance width="668"/>
  <unicode hex="00E6"/>
  <outline>
    <contour>
      <point x="123" y="149" type="line"/>
      <point x="346" y="149" type="line"/>
      <point x="346" y="185" type="line"/>
      <point x="123" y="185" type="line"/>
    </contour>
    <contour>
      <point x="303" y="540" type="line"/>
      <point x="255" y="540" type="line"/>
      <point x="54" y="78" type="line" smooth="yes"/>
      <point x="40" y="46"/>
      <point x="28" y="34"/>
      <point x="-8" y="34" type="curve"/>
      <point x="-8" y="0" type="line"/>
      <point x="159" y="0" type="line"/>
      <point x="159" y="34" type="line"/>
      <point x="114" y="34"/>
      <point x="87" y="51"/>
      <point x="99" y="78" type="curve" smooth="yes"/>
    </contour>
    <contour>
      <point x="283" y="11" type="line"/>
      <point x="389" y="11" type="line"/>
      <point x="389" y="529" type="line"/>
      <point x="283" y="529" type="line"/>
    </contour>
    <contour>
      <point x="344" y="245" type="line"/>
      <point x="462" y="245" type="line" smooth="yes"/>
      <point x="489" y="245"/>
      <point x="501" y="226"/>
      <point x="501" y="184" type="curve"/>
      <point x="535" y="184" type="line"/>
      <point x="535" y="337" type="line"/>
      <point x="501" y="337" type="line"/>
      <point x="501" y="302"/>
      <point x="488" y="285"/>
      <point x="462" y="285" type="curve" smooth="yes"/>
      <point x="344" y="285" type="line"/>
    </contour>
    <contour>
      <point x="496" y="37" type="curve" smooth="yes"/>
      <point x="389" y="37" type="line"/>
      <point x="389" y="77" type="line"/>
      <point x="283" y="77" type="line"/>
      <point x="283" y="43"/>
      <point x="270" y="34"/>
      <point x="223" y="34" type="curve"/>
      <point x="223" y="0" type="line"/>
      <point x="549" y="0" type="line" smooth="yes"/>
      <point x="596" y="0"/>
      <point x="612" y="-5"/>
      <point x="618" y="-21" type="curve"/>
      <point x="652" y="-21" type="line"/>
      <point x="652" y="171" type="line"/>
      <point x="619" y="171" type="line"/>
      <point x="606" y="60"/>
      <point x="584" y="37"/>
    </contour>
    <contour>
      <point x="283" y="463" type="line"/>
      <point x="389" y="463" type="line"/>
      <point x="389" y="502" type="line"/>
      <point x="463" y="502" type="line" smooth="yes"/>
      <point x="552" y="502"/>
      <point x="571" y="487"/>
      <point x="609" y="388" type="curve"/>
      <point x="642" y="397" type="line"/>
      <point x="601" y="559" type="line"/>
      <point x="568" y="559" type="line"/>
      <point x="565" y="544"/>
      <point x="554" y="540"/>
      <point x="519" y="540" type="curve" smooth="yes"/>
      <point x="283" y="540" type="line"/>
    </contour>
  </outline>
</glyph>
<glyph name="thorn" format="2">
  <advance width="466"/>
  <unicode hex="00FE"/>
  <outline>
    <contour>
      <point x="96" y="11" type="line"/>
      <point x="206" y="11" type="line"/>
      <point x="206" y="529" type="line"/>
      <point x="96" y="529" type="line"/>
    </contour>
    <contour>
      <point x="96" y="460" type="curve"/>
      <point x="206" y="460" type="line"/>
      <point x="206" y="494"/>
      <point x="219" y="503"/>
      <point x="266" y="503" type="curve"/>
      <point x="266" y="540" type="line"/>
      <point x="36" y="540" type="line"/>
      <point x="36" y="503" type="line"/>
      <point x="83" y="503"/>
      <point x="96" y="494"/>
    </contour>
    <contour>
      <point x="96" y="80" type="line"/>
      <point x="96" y="46"/>
      <point x="83" y="37"/>
      <point x="36" y="37" type="curve"/>
      <point x="36" y="0" type="line"/>
      <point x="266" y="0" type="line"/>
      <point x="266" y="37" type="line"/>
      <point x="219" y="37"/>
      <point x="206" y="46"/>
      <point x="206" y="80" type="curve"/>
    </contour>
    <contour>
      <point x="434" y="269" type="curve"/>
      <point x="434" y="399"/>
      <point x="372" y="463"/>
      <point x="246" y="463" type="curve" smooth="yes"/>
      <point x="203" y="463" type="line"/>
      <point x="203" y="424" type="line"/>
      <point x="246" y="424" type="line" smooth="yes"/>
      <point x="291" y="424"/>
      <point x="321" y="386"/>
      <point x="321" y="328" type="curve" smooth="yes"/>
      <point x="321" y="211" type="line" smooth="yes"/>
      <point x="321" y="152"/>
      <point x="291" y="113"/>
      <point x="246" y="113" type="curve" smooth="yes"/>
      <point x="246" y="113" type="line"/>
      <point x="246" y="77" type="line"/>
      <point x="246" y="77" type="line" smooth="yes"/>
      <point x="372" y="77"/>
      <point x="434" y="140"/>
    </contour>
  </outline>
</glyph>
<glyph name="Hbar" format="2">
  <advance width="557"/>
  <unicode hex="0126"/>
  <outline>
    <contour>
      <point x="528" y="581" type="line"/>
      <point x="30" y="581" type="line"/>
      <point x="30" y="542" type="line"/>
      <point x="528" y="542" type="line" smooth="yes"/>
    </contour>
    <component base="H"/>
  </outline>
</glyph>
<glyph name="Imacron" format="2">
  <advance width="280"/>
  <unicode hex="012A"/>
  <outline>
    <contour>
      <point x="6" y="790" type="line"/>
      <point x="274" y="790" type="line"/>
      <point x="274" y="830" type="line"/>
      <point x="6" y="830" type="line"/>
    </contour>
    <component base="I" xOffset="-6"/>
  </outline>
</glyph>
<glyph name="dotlessi" format="2">
  <advance width="277"/>
  <unicode hex="0131"/>
  <outline>
    <contour>
      <point x="84" y="11" type="line"/>
      <point x="194" y="11" type="line"/>
      <point x="194" y="529" type="line"/>
      <point x="84" y="529" type="line"/>
    </contour>
    <contour>
      <point x="84" y="463" type="curve"/>
      <point x="193" y="463" type="line"/>
      <point x="193" y="497"/>
      <point x="206" y="506"/>
      <point x="253" y="506" type="curve"/>
      <point x="253" y="540" type="line"/>
      <point x="24" y="540" type="line"/>
      <point x="24" y="506" type="line"/>
      <point x="71" y="506"/>
      <point x="84" y="497"/>
    </contour>
    <contour>
      <point x="84" y="77" type="line"/>
      <point x="84" y="43"/>
      <point x="71" y="34"/>
      <point x="24" y="34" type="curve"/>
      <point x="24" y="0" type="line"/>
      <point x="253" y="0" type="line"/>
      <point x="253" y="34" type="line"/>
      <point x="206" y="34"/>
      <point x="193" y="43"/>
      <point x="193" y="77" type="curve"/>
    </contour>
  </outline>
</glyph>
<glyph name="Lslash" format="2">
  <advance width="479"/>
  <unicode hex="0141"/>
  <outline>
    <contour>
      <point x="355" y="500" type="line"/>
      <point x="27" y="379" type="line"/>
      <point x="27" y="328" type="line"/>
      <point x="355" y="449" type="line" smooth="yes"/>
    </contour>
    <component base="L"/>
  </outline>
</glyph>
<glyph name="lslash" format="2">
  <advance width="461"/>
  <unicode hex="0142"/>
  <outline>
    <contour>
      <point x="355" y="350" type="line"/>
      <point x="27" y="229" type="line"/>
      <point x="27" y="178" type="line"/>
      <point x="355" y="299" type="line" smooth="yes"/>
    </contour>
    <component base="l"/>
  </outline>
</glyph>
<glyph name="eng" format="2">
  <advance width="520"/>
  <unicode hex="014B"/>
  <outline>
    <contour>
      <point x="405" y="466" type="curve"/>
      <point x="450" y="466" type="line"/>
      <point x="450" y="500"/>
      <point x="463" y="509"/>
      <point x="510" y="509" type="curve"/>
      <point x="510" y="540" type="line"/>
      <point x="345" y="540" type="line"/>
      <point x="345" y="509" type="line"/>
      <point x="392" y="509"/>
      <point x="405" y="500"/>
    </contour>
    <contour>
      <point x="81" y="74" type="line"/>
      <point x="81" y="40"/>
      <point x="68" y="31"/>
      <point x="21" y="31" type="curve"/>
      <point x="21" y="0" type="line"/>
      <point x="186" y="0" type="line"/>
      <point x="186" y="31" type="line"/>
      <point x="139" y="31"/>
      <point x="126" y="40"/>
      <point x="126" y="74" type="curve"/>
    </contour>
    <contour>
      <point x="339" y="104" type="line" smooth="yes"/>
      <point x="404" y="0"/>
      <point x="379" y="-126"/>
      <point x="295" y="-126" type="curve" smooth="yes"/>
      <point x="294" y="-126" type="line"/>
      <point x="294" y="-163" type="line"/>
      <point x="295" y="-163" type="line" smooth="yes"/>
      <point x="402" y="-163.0"/>
      <point x="450.0" y="-111.0"/>
      <point x="450" y="0" type="curve" smooth="yes"/>
      <point x="450" y="529" type="line"/>
      <point x="405" y="529" type="line"/>
      <point x="405" y="138" type="line"/>
      <point x="439" y="138" type="line"/>
      <point x="177" y="540" type="line"/>
      <point x="21" y="540" type="line"/>
      <point x="21" y="506" type="line"/>
      <point x="68" y="506"/>
      <point x="81.0" y="497.0"/>
      <point x="81" y="463" type="curve" smooth="yes"/>
      <point x="81" y="11" type="line"/>
      <point x="126" y="11" type="line"/>
      <point x="126" y="352" type="line"/>
      <point x="118" y="479" type="line"/>
      <point x="108" y="470" type="line"/>
    </contour>
  </outline>
</glyph>
<glyph name="OE" format="2">
  <advance width="709"/>
  <unicode hex="0152"/>
  <outline>
    <contour>
      <point x="240" y="30" type="curve"/>
      <point x="195" y="30"/>
      <point x="159" y="71"/>
      <point x="159" y="126" type="curve" smooth="yes"/>
      <point x="159" y="624" type="line" smooth="yes"/>
      <point x="159.0" y="680.0"/>
      <point x="193" y="720"/>
      <point x="240" y="720" type="curve"/>
      <point x="287" y="720"/>
      <point x="323.0" y="680.0"/>
      <point x="323" y="624" type="curve" smooth="yes"/>
      <point x="323" y="126" type="line" smooth="yes"/>
      <point x="323" y="71"/>
      <point x="287" y="30"/>
    </contour>
    <contour>
      <point x="359" y="31" type="curve"/>
      <point x="288" y="0" type="line"/>
      <point x="589" y="0" type="line" smooth="yes"/>
      <point x="634" y="0"/>
      <point x="649" y="-7"/>
      <point x="658" y="-31" type="curve"/>
      <point x="693" y="-31" type="line"/>
      <point x="693" y="171" type="line"/>
      <point x="660" y="171" type="line"/>
      <point x="647" y="61"/>
      <point x="626" y="39"/>
      <point x="536" y="39" type="curve" smooth="yes"/>
      <point x="438" y="39" type="line"/>
      <point x="438" y="379" type="line"/>
      <point x="464" y="379" type="line" smooth="yes"/>
      <point x="511" y="379"/>
      <point x="533" y="355"/>
      <point x="533" y="307" type="curve"/>
      <point x="565" y="307" type="line"/>
      <point x="565" y="491" type="line"/>
      <point x="533" y="491" type="line"/>
      <point x="533" y="444"/>
      <point x="511" y="419"/>
      <point x="464" y="419" type="curve" smooth="yes"/>
      <point x="438" y="419" type="line"/>
      <point x="438" y="711" type="line"/>
      <point x="495" y="711" type="line" smooth="yes"/>
      <point x="584" y="711"/>
      <point x="604" y="696"/>
      <point x="641" y="598" type="curve"/>
      <point x="675" y="607" type="line"/>
      <point x="631" y="788" type="line"/>
      <point x="597" y="788" type="line"/>
      <point x="591" y="758"/>
      <point x="581" y="750"/>
      <point x="551" y="750" type="curve" smooth="yes"/>
      <point x="274" y="750" type="line"/>
      <point x="359" y="719" type="line"/>
      <point x="335" y="744"/>
      <point x="286" y="760"/>
      <point x="240" y="760" type="curve"/>
      <point x="114" y="760"/>
      <point x="42" y="686.0"/>
      <point x="42" y="546" type="curve" smooth="yes"/>
      <point x="42" y="204" type="line" smooth="yes"/>
      <point x="42" y="64"/>
      <point x="112" y="-10"/>
      <point x="240" y="-10" type="curve"/>
      <point x="285" y="-10"/>
      <point x="335" y="7"/>
    </contour>
  </outline>
</glyph>
<glyph name="scedilla" format="2">
  <advance width="432"/>
  <unicode hex="015F"/>
  <outline>
    <contour>
      <point x="213" y="-61" type="line" smooth="yes"/>
      <point x="236" y="-61"/>
      <point x="251" y="-73"/>
      <point x="251" y="-93" type="curve" smooth="yes"/>
      <point x="251" y="-105" type="line" smooth="yes"/>
      <point x="251" y="-133"/>
      <point x="239.0" y="-145"/>
      <point x="213" y="-145" type="curve" smooth="yes"/>
      <point x="196" y="-145" type="line"/>
      <point x="196" y="-169" type="line"/>
      <point x="225" y="-169" type="line" smooth="yes"/>
      <point x="268" y="-169"/>
      <point x="295" y="-144"/>
      <point x="295" y="-102" type="curve"/>
      <point x="295" y="-58"/>
      <point x="260" y="-32"/>
      <point x="202" y="-32" type="curve" smooth="yes"/>
      <point x="202.0" y="-32.0"/>
      <point x="199.0" y="-32.0"/>
      <point x="199" y="-32" type="curve"/>
      <point x="218" y="-7" type="line"/>
      <point x="184" y="-6" type="line"/>
      <point x="164" y="-33" type="line"/>
      <point x="164" y="-61" type="line"/>
    </contour>
    <component base="s"/>
    <component base="cedilla"/>
  </outline>
</glyph>
<glyph name="tbar" format="2">
  <advance width="444"/>
  <unicode hex="0167"/>
  <outline>
    <contour>
      <point x="377" y="276" type="line"/>
      <point x="68" y="276" type="line"/>
      <point x="68" y="237" type="line"/>
      <point x="377" y="237" type="line" smooth="yes"/>
    </contour>
    <component base="t"/>
  </outline>
</glyph>
<glyph name="circumflex" format="2">
  <advance width="366"/>
  <unicode hex="02C6"/>
  <outline>
    <contour>
      <point x="116" y="782" type="line"/>
      <point x="174" y="853" type="line"/>
      <point x="170" y="853" type="line"/>
      <point x="235" y="782" type="line"/>
      <point x="294" y="782" type="line"/>
      <point x="187" y="901" type="line"/>
      <point x="167" y="901" type="line"/>
      <point x="72" y="782" type="line"/>
    </contour>
  </outline>
</glyph>
<glyph name="breve" format="2">
  <advance width="366"/>
  <unicode hex="02D8"/>
  <outline>
    <contour>
      <point x="242" y="847" type="line"/>
      <point x="235" y="812"/>
      <point x="211" y="792"/>
      <point x="174" y="792" type="curve" smooth="yes"/>
      <point x="139" y="792"/>
      <point x="114" y="813"/>
      <point x="106" y="847" type="curve"/>
      <point x="64" y="847" type="line"/>
      <point x="72" y="784"/>
      <point x="110" y="750"/>
      <point x="173" y="750" type="curve" smooth="yes"/>
      <point x="240" y="750"/>
      <point x="277" y="783"/>
      <point x="284" y="847" type="curve"/>
    </contour>
  </outline>
</glyph>
<glyph name="dotaccent" format="2">
  <advance width="244"/>
  <unicode hex="02D9"/>
  <outline>
    <contour>
      <point x="77" y="866" type="curve"/>
      <point x="77.0" y="834.0"/>
      <point x="93.0" y="817.0"/>
      <point x="123" y="817" type="curve"/>
      <point x="151.0" y="817.0"/>
      <point x="166.0" y="834.0"/>
      <point x="166" y="866" type="curve"/>
      <point x="166.0" y="899.0"/>
      <point x="151.0" y="917.0"/>
      <point x="123" y="917" type="curve"/>
      <point x="93" y="917"/>
      <point x="77" y="900"/>
    </contour>
  </outline>
</glyph>
<glyph name="ring" format="2">
  <advance width="478"/>
  <unicode hex="02DA"/>
  <outline>
    <contour>
      <point x="315" y="823" type="curve"/>
      <point x="315.0" y="869.0"/>
      <point x="286" y="896.0"/>
      <point x="236" y="896" type="curve"/>
      <point x="184" y="896.0"/>
      <point x="156.0" y="870.0"/>
      <point x="156" y="823" type="curve"/>
      <point x="156.0" y="775.0"/>
      <point x="184" y="750.0"/>
      <point x="236" y="750.0" type="curve"/>
      <point x="288" y="750.0"/>
      <point x="315.0" y="775.0"/>
    </contour>
    <contour>
      <point x="194" y="823" type="curve"/>
      <point x="194.0" y="851.0"/>
      <point x="212.0" y="873.0"/>
      <point x="236" y="873" type="curve"/>
      <point x="261.0" y="873.0"/>
      <point x="278.0" y="852.0"/>
      <point x="278" y="823" type="curve"/>
      <point x="278" y="795"/>
      <point x="260" y="775"/>
      <point x="236" y="775" type="curve"/>
      <point x="212" y="775"/>
      <point x="194" y="795"/>
    </contour>
  </outline>
</glyph>
<glyph name="ogonek" format="2">
  <advance width="414"/>
  <unicode hex="02DB"/>
  <outline>
    <contour>
      <point x="297" y="10" type="line"/>
      <point x="261" y="4" type="line" smooth="yes"/>
      <point x="192" y="-7"/>
      <point x="162.0" y="-47.0"/>
      <point x="162" y="-97" type="curve"/>
      <point x="162.0" y="-155.0"/>
      <point x="207.0" y="-198.0"/>
      <point x="274" y="-198" type="curve" smooth="yes"/>
      <point x="294" y="-198" type="line"/>
      <point x="294" y="-152" type="line"/>
      <point x="276" y="-152" type="line" smooth="yes"/>
      <point x="238" y="-152"/>
      <point x="211.0" y="-129.0"/>
      <point x="211" y="-97" type="curve"/>
      <point x="211.0" y="-73.0"/>
      <point x="226" y="-47"/>
      <point x="256" y="-39" type="curve" smooth="yes"/>
      <point x="297" y="-28" type="line"/>
    </contour>
  </outline>
</glyph>
<glyph name="tilde" format="2">
  <advance width="498"/>
  <unicode hex="02DC"/>
  <outline>
    <contour>
      <point x="151" y="808"/>
      <point x="142" y="818"/>
      <point x="142" y="839" type="curve"/>
      <point x="142.0" y="863.0"/>
      <point x="171" y="884"/>
      <point x="204" y="884" type="curve" smooth="yes"/>
      <point x="250" y="884"/>
      <point x="282" y="853"/>
      <point x="311" y="853" type="curve"/>
      <point x="328.0" y="853.0"/>
      <point x="340.0" y="859.0"/>
      <point x="352" y="874" type="curve"/>
      <point x="377" y="860" type="line"/>
      <point x="361.0" y="823.0"/>
      <point x="337.0" y="804.0"/>
      <point x="306" y="804" type="curve"/>
      <point x="260" y="804"/>
      <point x="244" y="830"/>
      <point x="210" y="830" type="curve"/>
      <point x="193.0" y="830.0"/>
      <point x="179" y="818"/>
      <point x="175" y="801" type="curve"/>
    </contour>
  </outline>
</glyph>
<glyph name="commaturnedabovecmb" format="2">
  <advance width="179"/>
  <unicode hex="0312"/>
  <outline>
    <contour>
      <point x="102" y="667" type="line"/>
      <point x="92" y="708"/>
      <point x="99" y="738"/>
      <point x="120" y="754" type="curve" smooth="yes"/>
      <point x="135" y="765" type="line"/>
      <point x="115" y="793" type="line"/>
      <point x="93" y="776" type="line" smooth="yes"/>
      <point x="54" y="746"/>
      <point x="36" y="707"/>
      <point x="36" y="652" type="curve"/>
      <point x="36" y="613"/>
      <point x="55" y="591"/>
      <point x="88" y="591" type="curve"/>
      <point x="124" y="591"/>
      <point x="143" y="612"/>
      <point x="143" y="652" type="curve"/>
      <point x="143" y="690"/>
      <point x="124" y="711"/>
      <point x="88" y="711" type="curve"/>
    </contour>
  </outline>
</glyph>
<glyph name="tonos" format="2">
  <advance width="184"/>
  <unicode hex="0384"/>
  <outline>
    <contour>
      <point x="105" y="651" type="line"/>
      <point x="148" y="842" type="line"/>
      <point x="79" y="841" type="line"/>
      <point x="36" y="651" type="line"/>
    </contour>
  </outline>
</glyph>
<glyph name="dieresistonos" format="2">
  <advance width="394"/>
  <unicode hex="0385"/>
  <outline>
    <contour>
      <point x="57" y="866" type="curve"/>
      <point x="57" y="834"/>
      <point x="73" y="817"/>
      <point x="103" y="817" type="curve"/>
      <point x="131" y="817"/>
      <point x="146" y="834"/>
      <point x="146" y="866" type="curve"/>
      <point x="146" y="899"/>
      <point x="131" y="917"/>
      <point x="103" y="917" type="curve"/>
      <point x="73" y="917"/>
      <point x="57" y="900"/>
    </contour>
    <contour>
      <point x="247" y="866" type="curve"/>
      <point x="247" y="834"/>
      <point x="263" y="817"/>
      <point x="293" y="817" type="curve"/>
      <point x="321" y="817"/>
      <point x="336" y="834"/>
      <point x="336" y="866" type="curve"/>
      <point x="336" y="899"/>
      <point x="321" y="917"/>
      <point x="293" y="917" type="curve"/>
      <point x="263" y="917"/>
      <point x="247" y="900"/>
    </contour>
    <component base="tonos" xOffset="109" yOffset="142"/>
  </outline>
</glyph>
<glyph name="mu" format="2">
  <advance width="552"/>
  <unicode hex="03BC"/>
  <outline>
    <contour>
      <point x="413" y="464" type="curve"/>
      <point x="455" y="463" type="line"/>
      <point x="455" y="495"/>
      <point x="468" y="506"/>
      <point x="514" y="506" type="curve"/>
      <point x="514" y="540" type="line"/>
      <point x="353" y="540" type="line"/>
      <point x="353" y="507" type="line"/>
      <point x="399" y="507"/>
      <point x="413" y="496"/>
    </contour>
    <contour>
      <point x="92" y="-216" type="line"/>
      <point x="202" y="-216" type="line"/>
      <point x="202" y="5" type="line"/>
      <point x="226" y="-5"/>
      <point x="255" y="-10"/>
      <point x="286" y="-10" type="curve"/>
      <point x="342" y="-10"/>
      <point x="385" y="8"/>
      <point x="413" y="44" type="curve"/>
      <point x="413" y="0" type="line"/>
      <point x="516" y="0" type="line"/>
      <point x="516" y="34" type="line"/>
      <point x="469" y="34"/>
      <point x="455" y="44"/>
      <point x="455" y="77" type="curve" smooth="yes"/>
      <point x="455" y="526" type="line"/>
      <point x="413" y="527" type="line"/>
      <point x="413" y="189" type="line" smooth="yes"/>
      <point x="413" y="97"/>
      <point x="369" y="37"/>
      <point x="303" y="37" type="curve"/>
      <point x="240" y="37"/>
      <point x="202" y="82"/>
      <point x="202" y="156" type="curve" smooth="yes"/>
      <point x="202" y="526" type="line"/>
      <point x="92" y="526" type="line"/>
    </contour>
    <component base=".smallcomponent_bottom_serif" xOffset="-4" yOffset="-250"/>
    <component base=".smallcomponent_top_serif" xOffset="-4"/>
  </outline>
</glyph>
<glyph name="endash" format="2">
  <advance width="578"/>
  <unicode hex="2013"/>
  <outline>
    <contour>
      <point x="0" y="322" type="line"/>
      <point x="578" y="322" type="line"/>
      <point x="578" y="398" type="line"/>
      <point x="0" y="398" type="line"/>
    </contour>
  </outline>
</glyph>
<glyph name="emdash" format="2">
  <advance width="828"/>
  <unicode hex="2014"/>
  <outline>
    <contour>
      <point x="0" y="352" type="line"/>
      <point x="828" y="352" type="line"/>
      <point x="828" y="428" type="line"/>
      <point x="0" y="428" type="line"/>
    </contour>
  </outline>
</glyph>
<glyph name="quoteleft" format="2">
  <advance width="480"/>
  <unicode hex="2018"/>
  <outline>
    <contour>
      <point x="252" y="716" type="line"/>
      <point x="242" y="757"/>
      <point x="249" y="787"/>
      <point x="270" y="803" type="curve" smooth="yes"/>
      <point x="285" y="814" type="line"/>
      <point x="265" y="842" type="line"/>
      <point x="243.0" y="825" type="line" smooth="yes"/>
      <point x="204" y="795"/>
      <point x="186.0" y="756.0"/>
      <point x="186" y="701" type="curve"/>
      <point x="186.0" y="662.0"/>
      <point x="205.0" y="640.0"/>
      <point x="238" y="640" type="curve"/>
      <point x="275" y="640.0"/>
      <point x="294.0" y="661.0"/>
      <point x="294.0" y="701" type="curve"/>
      <point x="294.0" y="739.0"/>
      <point x="275" y="760.0"/>
      <point x="238.0" y="760" type="curve"/>
    </contour>
  </outline>
</glyph>
<glyph name="quoteright" format="2">
  <advance width="480"/>
  <unicode hex="2019"/>
  <outline>
    <contour>
      <point x="228.0" y="766" type="line"/>
      <point x="238.0" y="725"/>
      <point x="231" y="695.0"/>
      <point x="210" y="679" type="curve" smooth="yes"/>
      <point x="195" y="668" type="line"/>
      <point x="215" y="640" type="line"/>
      <point x="237.0" y="657" type="line" smooth="yes"/>
      <point x="276" y="687"/>
      <point x="294" y="726"/>
      <point x="294" y="781" type="curve"/>
      <point x="294" y="820"/>
      <point x="275" y="842"/>
      <point x="242" y="842" type="curve"/>
      <point x="205.0" y="842"/>
      <point x="186.0" y="821"/>
      <point x="186.0" y="781" type="curve"/>
      <point x="186.0" y="743"/>
      <point x="205" y="722"/>
      <point x="242" y="722" type="curve"/>
    </contour>
  </outline>
</glyph>
<glyph name="quotesinglbase" format="2">
  <advance width="342"/>
  <unicode hex="201A"/>
  <outline>
    <contour>
      <point x="159" y="45" type="line"/>
      <point x="169" y="4"/>
      <point x="162" y="-26"/>
      <point x="141" y="-42" type="curve" smooth="yes"/>
      <point x="126" y="-53" type="line"/>
      <point x="146" y="-81" type="line"/>
      <point x="168" y="-64" type="line" smooth="yes"/>
      <point x="207" y="-34"/>
      <point x="225" y="5"/>
      <point x="225" y="60" type="curve"/>
      <point x="225" y="99"/>
      <point x="206" y="121"/>
      <point x="173" y="121" type="curve"/>
      <point x="136" y="121"/>
      <point x="117" y="100"/>
      <point x="117" y="60" type="curve"/>
      <point x="117" y="22"/>
      <point x="136" y="1"/>
      <point x="173" y="1" type="curve"/>
    </contour>
  </outline>
</glyph>
<glyph name="quotedblleft" format="2">
  <advance width="480"/>
  <unicode hex="201C"/>
  <outline>
    <contour>
      <point x="321" y="716" type="line"/>
      <point x="311" y="757"/>
      <point x="318" y="787"/>
      <point x="339" y="803" type="curve" smooth="yes"/>
      <point x="354" y="814" type="line"/>
      <point x="334" y="842" type="line"/>
      <point x="312" y="825" type="line" smooth="yes"/>
      <point x="273" y="795"/>
      <point x="255" y="756"/>
      <point x="255" y="701" type="curve"/>
      <point x="255" y="662"/>
      <point x="274" y="640"/>
      <point x="307" y="640" type="curve"/>
      <point x="344" y="640"/>
      <point x="363" y="661"/>
      <point x="363" y="701" type="curve"/>
      <point x="363" y="739"/>
      <point x="344" y="760"/>
      <point x="307" y="760" type="curve"/>
    </contour>
    <contour>
      <point x="183" y="716" type="line"/>
      <point x="173" y="757"/>
      <point x="180" y="787"/>
      <point x="201" y="803" type="curve" smooth="yes"/>
      <point x="216" y="814" type="line"/>
      <point x="196" y="842" type="line"/>
      <point x="174" y="825" type="line" smooth="yes"/>
      <point x="135" y="795"/>
      <point x="117" y="756"/>
      <point x="117" y="701" type="curve"/>
      <point x="117" y="662"/>
      <point x="136" y="640"/>
      <point x="169" y="640" type="curve"/>
      <point x="206" y="640"/>
      <point x="225" y="661"/>
      <point x="225" y="701" type="curve"/>
      <point x="225" y="739"/>
      <point x="206" y="760"/>
      <point x="169" y="760" type="curve"/>
    </contour>
  </outline>
</glyph>
<glyph name="quotedblright" format="2">
  <advance width="480"/>
  <unicode hex="201D"/>
  <outline>
    <contour>
      <point x="159.0" y="766" type="line"/>
      <point x="169.0" y="725"/>
      <point x="162" y="695.0"/>
      <point x="141" y="679" type="curve" smooth="yes"/>
      <point x="126" y="668" type="line"/>
      <point x="146" y="640" type="line"/>
      <point x="168.0" y="657" type="line" smooth="yes"/>
      <point x="207" y="687"/>
      <point x="225" y="726"/>
      <point x="225" y="781" type="curve"/>
      <point x="225" y="820"/>
      <point x="206" y="842"/>
      <point x="173" y="842" type="curve"/>
      <point x="136.0" y="842"/>
      <point x="117.0" y="821"/>
      <point x="117.0" y="781" type="curve"/>
      <point x="117.0" y="743"/>
      <point x="136" y="722"/>
      <point x="173" y="722" type="curve"/>
    </contour>
    <contour>
      <point x="297.0" y="766" type="line"/>
      <point x="307.0" y="725"/>
      <point x="300" y="695.0"/>
      <point x="279" y="679" type="curve" smooth="yes"/>
      <point x="264" y="668" type="line"/>
      <point x="284" y="640" type="line"/>
      <point x="306.0" y="657" type="line" smooth="yes"/>
      <point x="345" y="687"/>
      <point x="363" y="726"/>
      <point x="363" y="781" type="curve"/>
      <point x="363" y="820"/>
      <point x="344" y="842"/>
      <point x="311" y="842" type="curve"/>
      <point x="274.0" y="842"/>
      <point x="255.0" y="821"/>
      <point x="255.0" y="781" type="curve"/>
      <point x="255.0" y="743"/>
      <point x="274" y="722"/>
      <point x="311" y="722" type="curve"/>
    </contour>
  </outline>
</glyph>
<glyph name="quotedblbase" format="2">
  <advance width="480"/>
  <unicode hex="201E"/>
  <outline>
    <contour>
      <point x="159.0" y="45" type="line"/>
      <point x="169.0" y="4"/>
      <point x="162" y="-26.0"/>
      <point x="141" y="-42" type="curve" smooth="yes"/>
      <point x="126" y="-53" type="line"/>
      <point x="146" y="-81" type="line"/>
      <point x="168.0" y="-64" type="line" smooth="yes"/>
      <point x="207" y="-34"/>
      <point x="225" y="5"/>
      <point x="225" y="60" type="curve"/>
      <point x="225" y="99"/>
      <point x="206" y="121"/>
      <point x="173" y="121" type="curve"/>
      <point x="136.0" y="121"/>
      <point x="117.0" y="100"/>
      <point x="117.0" y="60" type="curve"/>
      <point x="117.0" y="22"/>
      <point x="136" y="1"/>
      <point x="173" y="1" type="curve"/>
    </contour>
    <contour>
      <point x="297.0" y="45" type="line"/>
      <point x="307.0" y="4"/>
      <point x="300" y="-26.0"/>
      <point x="279" y="-42" type="curve" smooth="yes"/>
      <point x="264" y="-53" type="line"/>
      <point x="284" y="-81" type="line"/>
      <point x="306.0" y="-64" type="line" smooth="yes"/>
      <point x="345" y="-34"/>
      <point x="363" y="5"/>
      <point x="363" y="60" type="curve"/>
      <point x="363" y="99"/>
      <point x="344" y="121"/>
      <point x="311" y="121" type="curve"/>
      <point x="274.0" y="121"/>
      <point x="255.0" y="100"/>
      <point x="255.0" y="60" type="curve"/>
      <point x="255.0" y="22"/>
      <point x="274" y="1"/>
      <point x="311" y="1" type="curve"/>
    </contour>
  </outline>
</glyph>
<glyph name="daggerdbl" format="2">
  <advance width="370"/>
  <unicode hex="2021"/>
  <outline>
    <contour>
      <point x="175" y="338" type="line"/>
      <point x="179" y="288" type="line"/>
      <point x="190" y="288" type="line"/>
      <point x="195" y="338" type="line"/>
      <point x="185" y="331" type="line"/>
    </contour>
    <contour>
      <point x="198" y="441" type="line"/>
      <point x="207" y="540"/>
      <point x="220" y="568"/>
      <point x="220" y="582" type="curve" smooth="yes"/>
      <point x="220" y="601"/>
      <point x="198" y="597"/>
      <point x="195" y="649" type="curve"/>
      <point x="237" y="646"/>
      <point x="247" y="629"/>
      <point x="266" y="629" type="curve" smooth="yes"/>
      <point x="290" y="629"/>
      <point x="298" y="645"/>
      <point x="298" y="661" type="curve"/>
      <point x="298" y="675"/>
      <point x="289" y="692"/>
      <point x="265" y="692" type="curve" smooth="yes"/>
      <point x="246" y="692"/>
      <point x="236" y="674"/>
      <point x="195" y="671" type="curve"/>
      <point x="198" y="718"/>
      <point x="216" y="729"/>
      <point x="216" y="751" type="curve" smooth="yes"/>
      <point x="216" y="775"/>
      <point x="199" y="783"/>
      <point x="185" y="783" type="curve"/>
      <point x="169" y="783"/>
      <point x="153" y="775"/>
      <point x="153" y="751" type="curve" smooth="yes"/>
      <point x="153" y="729"/>
      <point x="170" y="718"/>
      <point x="174" y="671" type="curve"/>
      <point x="133" y="674"/>
      <point x="124" y="692"/>
      <point x="105" y="692" type="curve" smooth="yes"/>
      <point x="81" y="692"/>
      <point x="72" y="675"/>
      <point x="72" y="661" type="curve"/>
      <point x="72" y="645"/>
      <point x="80" y="629"/>
      <point x="104" y="629" type="curve" smooth="yes"/>
      <point x="123" y="629"/>
      <point x="133" y="646"/>
      <point x="174" y="649" type="curve"/>
      <point x="170" y="597"/>
      <point x="149" y="601"/>
      <point x="149" y="582" type="curve" smooth="yes"/>
      <point x="149" y="568"/>
      <point x="162" y="540"/>
      <point x="171" y="441" type="curve"/>
    </contour>
    <contour>
      <point x="142" y="431" type="line"/>
      <point x="142" y="441" type="line"/>
      <point x="161" y="441" type="line"/>
      <point x="153" y="508" type="line"/>
      <point x="153" y="508"/>
      <point x="153" y="510"/>
      <point x="146" y="510" type="curve" smooth="yes"/>
      <point x="118" y="510"/>
      <point x="94" y="486"/>
      <point x="94" y="456" type="curve" smooth="yes"/>
      <point x="94" y="408"/>
      <point x="185" y="344"/>
      <point x="185" y="344" type="curve"/>
      <point x="185" y="344"/>
      <point x="274" y="408"/>
      <point x="275" y="456" type="curve" smooth="yes"/>
      <point x="274" y="486"/>
      <point x="250" y="510"/>
      <point x="223" y="510" type="curve"/>
      <point x="216" y="510"/>
      <point x="216" y="509"/>
      <point x="216" y="509" type="curve"/>
      <point x="208" y="441" type="line"/>
      <point x="227" y="441" type="line"/>
      <point x="227" y="431" type="line"/>
    </contour>
  </outline>
</glyph>
<glyph name="ellipsis" format="2">
  <advance width="465"/>
  <unicode hex="2026"/>
  <outline>
    <contour>
      <point x="24" y="54" type="curve"/>
      <point x="24" y="16"/>
      <point x="43" y="-5"/>
      <point x="79" y="-5" type="curve"/>
      <point x="113" y="-5.0"/>
      <point x="131" y="16.0"/>
      <point x="131" y="54" type="curve"/>
      <point x="131" y="93"/>
      <point x="112" y="115"/>
      <point x="79" y="115" type="curve"/>
      <point x="43" y="115"/>
      <point x="24" y="94"/>
    </contour>
    <contour>
      <point x="179" y="54" type="curve"/>
      <point x="179" y="16"/>
      <point x="198" y="-5"/>
      <point x="234" y="-5" type="curve"/>
      <point x="268" y="-5.0"/>
      <point x="286" y="16.0"/>
      <point x="286" y="54" type="curve"/>
      <point x="286" y="93"/>
      <point x="267" y="115"/>
      <point x="234" y="115" type="curve"/>
      <point x="198" y="115"/>
      <point x="179" y="94"/>
    </contour>
    <contour>
      <point x="334" y="54" type="curve"/>
      <point x="334" y="16"/>
      <point x="353" y="-5"/>
      <point x="389" y="-5" type="curve"/>
      <point x="423" y="-5.0"/>
      <point x="441" y="16.0"/>
      <point x="441" y="54" type="curve"/>
      <point x="441" y="93"/>
      <point x="422" y="115"/>
      <point x="389" y="115" type="curve"/>
      <point x="353" y="115"/>
      <point x="334" y="94"/>
    </contour>
  </outline>
</glyph>
<glyph name="perthousand" format="2">
  <advance width="1134"/>
  <unicode hex="2030"/>
  <outline>
    <contour>
      <point x="377" y="512" type="curve"/>
      <point x="377" y="619"/>
      <point x="309" y="682"/>
      <point x="208" y="682" type="curve"/>
      <point x="103" y="682"/>
      <point x="38" y="621"/>
      <point x="38" y="512" type="curve"/>
      <point x="38" y="404"/>
      <point x="104" y="342"/>
      <point x="208" y="342" type="curve"/>
      <point x="313" y="342"/>
      <point x="377" y="403"/>
    </contour>
    <contour>
      <point x="124" y="514" type="curve"/>
      <point x="124" y="608"/>
      <point x="153" y="651"/>
      <point x="207" y="651" type="curve"/>
      <point x="263" y="651"/>
      <point x="292" y="608"/>
      <point x="292" y="514" type="curve"/>
      <point x="292" y="420"/>
      <point x="262" y="376"/>
      <point x="208" y="376" type="curve"/>
      <point x="153" y="376"/>
      <point x="124" y="420"/>
    </contour>
    <contour>
      <point x="1092" y="225" type="curve"/>
      <point x="1092" y="332"/>
      <point x="1024" y="395"/>
      <point x="923" y="395" type="curve"/>
      <point x="869.1148648648649" y="395.0"/>
      <point x="828.1431537839529" y="376.236472460194"/>
      <point x="778" y="322" type="curve"/>
      <point x="813" y="322" type="line"/>
      <point x="760.8744710393074" y="375.1475981560002"/>
      <point x="719.9387755102041" y="395.0"/>
      <point x="669" y="395" type="curve"/>
      <point x="564" y="395"/>
      <point x="499" y="334"/>
      <point x="499" y="225" type="curve"/>
      <point x="499" y="117"/>
      <point x="565" y="55"/>
      <point x="669" y="55" type="curve"/>
      <point x="721.8979591836735" y="55.0"/>
      <point x="762.8401218229568" y="72.74543789013691"/>
      <point x="813" y="127" type="curve"/>
      <point x="778" y="126" type="line"/>
      <point x="829.1148420336458" y="74.88515796635416"/>
      <point x="870.0945945945946" y="55.0"/>
      <point x="923" y="55" type="curve"/>
      <point x="1028" y="55"/>
      <point x="1092" y="116"/>
    </contour>
    <contour>
      <point x="838" y="227" type="curve"/>
      <point x="838" y="321"/>
      <point x="867" y="364"/>
      <point x="921" y="364" type="curve"/>
      <point x="977" y="364"/>
      <point x="1006" y="321"/>
      <point x="1006" y="227" type="curve"/>
      <point x="1006" y="133"/>
      <point x="976" y="89"/>
      <point x="922" y="89" type="curve"/>
      <point x="867" y="89"/>
      <point x="838" y="133"/>
    </contour>
    <contour>
      <point x="585" y="227" type="curve"/>
      <point x="585" y="321"/>
      <point x="614" y="364"/>
      <point x="668" y="364" type="curve"/>
      <point x="724" y="364"/>
      <point x="753" y="321"/>
      <point x="753" y="227" type="curve"/>
      <point x="753" y="133"/>
      <point x="723" y="89"/>
      <point x="669" y="89" type="curve"/>
      <point x="614" y="89"/>
      <point x="585" y="133"/>
    </contour>
    <component base="slash" xOffset="156"/>
  </outline>
</glyph>
<glyph name="minute" format="2">
  <advance width="315"/>
  <unicode hex="2032"/>
  <outline>
    <contour>
      <point x="157" y="651" type="line"/>
      <point x="227" y="842" type="line"/>
      <point x="158" y="841" type="line"/>
      <point x="88" y="651" type="line"/>
    </contour>
  </outline>
</glyph>
<glyph name="second" format="2">
  <advance width="427"/>
  <unicode hex="2033"/>
  <outline>
    <contour>
      <point x="157" y="651" type="line"/>
      <point x="227" y="842" type="line"/>
      <point x="158" y="841" type="line"/>
      <point x="88" y="651" type="line"/>
    </contour>
    <contour>
      <point x="269" y="651" type="line"/>
      <point x="339" y="842" type="line"/>
      <point x="270" y="841" type="line"/>
      <point x="200" y="651" type="line"/>
    </contour>
  </outline>
</glyph>
<glyph name="four.superior" format="2">
  <advance width="540"/>
  <unicode hex="2074"/>
  <outline>
    <contour>
      <point x="128" y="417.0" type="curve"/>
      <point x="128" y="399.0" type="line"/>
      <point x="253" y="399.0" type="line"/>
      <point x="253" y="417.0" type="line"/>
      <point x="228.8421052631579" y="417.0"/>
      <point x="219.0" y="424.0"/>
      <point x="219" y="442.0" type="curve"/>
      <point x="161" y="442.0" type="line"/>
      <point x="161.0" y="424.0"/>
      <point x="152.0810810810811" y="417.0"/>
    </contour>
    <contour>
      <point x="171" y="684.0" type="line"/>
      <point x="161" y="716.0" type="line"/>
      <point x="161" y="404.0" type="line"/>
      <point x="219" y="404.0" type="line"/>
      <point x="219" y="770.0" type="line"/>
      <point x="192" y="770.0" type="line"/>
      <point x="42" y="533.0" type="line"/>
      <point x="42" y="510.0" type="line"/>
      <point x="253" y="510.0" type="line"/>
      <point x="253" y="538.0" type="line"/>
      <point x="52" y="538.0" type="line"/>
      <point x="74" y="526.0" type="line"/>
    </contour>
    <contour>
      <point x="246" y="483.0" type="curve"/>
      <point x="263" y="483.0" type="line"/>
      <point x="263" y="565.0" type="line"/>
      <point x="246" y="565.0" type="line"/>
      <point x="246.0" y="545.448275862069"/>
      <point x="240.0" y="538.0"/>
      <point x="226" y="538.0" type="curve"/>
      <point x="226" y="510.0" type="line"/>
      <point x="240.0" y="510.0"/>
      <point x="246.0" y="502.55172413793105"/>
    </contour>
  </outline>
</glyph>
<glyph name="lira" format="2">
  <advance width="540"/>
  <unicode hex="20A4"/>
  <outline>
    <contour>
      <point x="315" y="146" type="curve" smooth="yes"/>
      <point x="219" y="146" type="line"/>
      <point x="219" y="186" type="line"/>
      <point x="107" y="186" type="line"/>
      <point x="107" y="106" type="line"/>
      <point x="368" y="106" type="line" smooth="yes"/>
      <point x="395.0" y="106.0"/>
      <point x="407" y="96"/>
      <point x="414" y="68" type="curve"/>
      <point x="448" y="68" type="line"/>
      <point x="492" y="249" type="line"/>
      <point x="458" y="258" type="line"/>
      <point x="421" y="163"/>
      <point x="399.0" y="146.0"/>
    </contour>
    <contour>
      <point x="286" y="615" type="curve"/>
      <point x="342" y="615"/>
      <point x="367" y="589"/>
      <point x="403" y="495" type="curve"/>
      <point x="437" y="504" type="line"/>
      <point x="396" y="665" type="line"/>
      <point x="362" y="665" type="line"/>
      <point x="353" y="643"/>
      <point x="335" y="655"/>
      <point x="287" y="655" type="curve"/>
      <point x="171" y="655"/>
      <point x="107" y="588.0"/>
      <point x="107" y="468" type="curve" smooth="yes"/>
      <point x="107" y="106" type="line"/>
      <point x="219" y="106" type="line"/>
      <point x="219" y="535" type="line" smooth="yes"/>
      <point x="219" y="582.0"/>
      <point x="245" y="613"/>
    </contour>
    <contour>
      <point x="324" y="413" type="line"/>
      <point x="47" y="413" type="line"/>
      <point x="47" y="374" type="line"/>
      <point x="324" y="374" type="line" smooth="yes"/>
    </contour>
    <contour>
      <point x="304" y="334" type="line"/>
      <point x="47" y="334" type="line"/>
      <point x="47" y="295" type="line"/>
      <point x="304" y="295" type="line" smooth="yes"/>
    </contour>
    <component base="smallcomponents_btm_half_serif" xOffset="11" yOffset="106"/>
  </outline>
</glyph>
<glyph name="servicemark" format="2">
  <advance width="312"/>
  <unicode hex="2120"/>
  <outline>
    <contour>
      <point x="59" y="765" type="curve"/>
      <point x="33" y="765"/>
      <point x="9" y="743"/>
      <point x="9" y="719" type="curve"/>
      <point x="9" y="702"/>
      <point x="20" y="686"/>
      <point x="40" y="675" type="curve" smooth="yes"/>
      <point x="67" y="660" type="line" smooth="yes"/>
      <point x="82" y="652"/>
      <point x="89" y="642"/>
      <point x="89" y="632" type="curve"/>
      <point x="89" y="619"/>
      <point x="75" y="605"/>
      <point x="60" y="605" type="curve" smooth="yes"/>
      <point x="40" y="605"/>
      <point x="24" y="623"/>
      <point x="19" y="656" type="curve"/>
      <point x="8" y="656" type="line"/>
      <point x="8" y="594" type="line"/>
      <point x="19" y="594" type="line"/>
      <point x="20" y="597"/>
      <point x="24" y="600"/>
      <point x="28" y="600" type="curve"/>
      <point x="34" y="600"/>
      <point x="42" y="591"/>
      <point x="65" y="591" type="curve" smooth="yes"/>
      <point x="96" y="591"/>
      <point x="120" y="611"/>
      <point x="120" y="637" type="curve"/>
      <point x="120" y="658"/>
      <point x="109" y="675"/>
      <point x="92" y="684" type="curve" smooth="yes"/>
      <point x="58" y="703" type="line" smooth="yes"/>
      <point x="43" y="711"/>
      <point x="38" y="718"/>
      <point x="38" y="729" type="curve"/>
      <point x="38" y="742"/>
      <point x="49" y="752"/>
      <point x="62" y="752" type="curve"/>
      <point x="79" y="752"/>
      <point x="88" y="743"/>
      <point x="98" y="715" type="curve"/>
      <point x="109" y="717" type="line"/>
      <point x="96" y="767" type="line"/>
      <point x="86" y="767" type="line"/>
      <point x="83" y="759"/>
      <point x="78" y="765"/>
    </contour>
    <contour>
      <point x="139" y="618" type="line"/>
      <point x="139" y="607"/>
      <point x="135" y="605"/>
      <point x="121" y="605" type="curve"/>
      <point x="121" y="594" type="line"/>
      <point x="172" y="594" type="line"/>
      <point x="172" y="605" type="line"/>
      <point x="157" y="605"/>
      <point x="153" y="607"/>
      <point x="153" y="618" type="curve"/>
    </contour>
    <contour>
      <point x="139" y="597" type="line"/>
      <point x="153" y="597" type="line"/>
      <point x="153" y="702" type="line"/>
      <point x="151" y="750" type="line"/>
      <point x="148" y="750" type="line"/>
      <point x="200" y="594" type="line"/>
      <point x="213" y="594" type="line"/>
      <point x="256" y="746" type="line"/>
      <point x="254" y="746" type="line"/>
      <point x="252" y="703" type="line"/>
      <point x="252" y="597" type="line"/>
      <point x="285" y="597" type="line"/>
      <point x="285" y="738" type="line" smooth="yes"/>
      <point x="285" y="748"/>
      <point x="289" y="751"/>
      <point x="304" y="751" type="curve"/>
      <point x="304" y="762" type="line"/>
      <point x="246" y="762" type="line"/>
      <point x="209" y="632" type="line"/>
      <point x="217" y="632" type="line"/>
      <point x="175" y="762" type="line"/>
      <point x="121" y="762" type="line"/>
      <point x="121" y="751" type="line"/>
      <point x="135" y="751"/>
      <point x="139" y="748"/>
      <point x="139" y="738" type="curve" smooth="yes"/>
    </contour>
    <contour>
      <point x="252" y="618" type="line"/>
      <point x="252" y="607"/>
      <point x="248" y="605"/>
      <point x="233" y="605" type="curve"/>
      <point x="233" y="594" type="line"/>
      <point x="304" y="594" type="line"/>
      <point x="304" y="605" type="line"/>
      <point x="289" y="605"/>
      <point x="285" y="607"/>
      <point x="285" y="618" type="curve"/>
    </contour>
  </outline>
</glyph>
<glyph name="radical" format="2">
  <advance width="501"/>
  <unicode hex="221A"/>
  <outline>
    <contour>
      <point x="117" y="-40" type="line"/>
      <point x="196" y="-40" type="line"/>
      <point x="401" y="741" type="line"/>
      <point x="363" y="714" type="line"/>
      <point x="525" y="714" type="line"/>
      <point x="525" y="790" type="line"/>
      <point x="337" y="790" type="line"/>
      <point x="183" y="205" type="line"/>
      <point x="148" y="47" type="line"/>
      <point x="165" y="47" type="line"/>
      <point x="131" y="205" type="line"/>
      <point x="104" y="305" type="line"/>
      <point x="24" y="305" type="line"/>
    </contour>
  </outline>
</glyph>
<glyph name="approxequal" format="2">
  <advance width="560"/>
  <unicode hex="2248"/>
  <outline>
    <contour>
      <point x="169" y="419" type="line" smooth="yes"/>
      <point x="111.0" y="419.0"/>
      <point x="70" y="449"/>
      <point x="70" y="489" type="curve"/>
      <point x="70" y="489"/>
      <point x="24" y="489"/>
      <point x="24" y="489" type="curve"/>
      <point x="24" y="380"/>
      <point x="105.0" y="317.0"/>
      <point x="238" y="317" type="curve" smooth="yes"/>
      <point x="383" y="317" type="line" smooth="yes"/>
      <point x="441" y="317"/>
      <point x="482" y="287.0"/>
      <point x="482" y="247" type="curve"/>
      <point x="482" y="247.0"/>
      <point x="528.0" y="247.0"/>
      <point x="528.0" y="247" type="curve"/>
      <point x="528" y="356.0"/>
      <point x="447" y="419"/>
      <point x="314" y="419" type="curve" smooth="yes"/>
    </contour>
    <contour>
      <point x="170" y="227" type="line" smooth="yes"/>
      <point x="112.0" y="227.0"/>
      <point x="71" y="257"/>
      <point x="71" y="297" type="curve"/>
      <point x="71" y="297"/>
      <point x="25" y="297"/>
      <point x="25" y="297" type="curve"/>
      <point x="25" y="188"/>
      <point x="106.0" y="125.0"/>
      <point x="239" y="125" type="curve" smooth="yes"/>
      <point x="384" y="125" type="line" smooth="yes"/>
      <point x="442" y="125"/>
      <point x="483" y="95.0"/>
      <point x="483" y="55" type="curve"/>
      <point x="483" y="55.0"/>
      <point x="529.0" y="55.0"/>
      <point x="529.0" y="55" type="curve"/>
      <point x="529" y="164.0"/>
      <point x="448" y="227"/>
      <point x="315" y="227" type="curve" smooth="yes"/>
    </contour>
  </outline>
</glyph>
<glyph name="notequal" format="2">
  <advance width="538"/>
  <unicode hex="2260"/>
  <outline>
    <contour>
      <point x="30" y="125" type="line"/>
      <point x="508" y="125" type="line"/>
      <point x="508" y="222" type="line"/>
      <point x="30" y="222" type="line"/>
    </contour>
    <contour>
      <point x="30" y="319" type="line"/>
      <point x="508" y="319" type="line"/>
      <point x="508" y="416" type="line"/>
      <point x="30" y="416" type="line"/>
    </contour>
    <contour>
      <point x="200" y="37" type="line"/>
      <point x="417" y="464" type="line"/>
      <point x="335" y="504" type="line"/>
      <point x="118" y="77" type="line"/>
    </contour>
  </outline>
</glyph>
<glyph name="lessequal" format="2">
  <advance width="480"/>
  <unicode hex="2264"/>
  <outline>
    <contour>
      <point x="352" y="474" type="line"/>
      <point x="352" y="570" type="line"/>
      <point x="87" y="382" type="line"/>
      <point x="152" y="335" type="line"/>
    </contour>
    <contour>
      <point x="352" y="289" type="line"/>
      <point x="159" y="429" type="line"/>
      <point x="87" y="382" type="line"/>
      <point x="352" y="190" type="line"/>
    </contour>
    <contour>
      <point x="56" y="72" type="line"/>
      <point x="414" y="72" type="line"/>
      <point x="414" y="139" type="line"/>
      <point x="56" y="139" type="line"/>
    </contour>
  </outline>
</glyph>
<glyph name="E_A" format="2">
  <advance width="853"/>
  <outline>
    <contour>
      <point x="90" y="11" type="line"/>
      <point x="202" y="11" type="line"/>
      <point x="202" y="739" type="line"/>
      <point x="90" y="739" type="line"/>
    </contour>
    <contour>
      <point x="131" y="375" type="line"/>
      <point x="228" y="375" type="line" smooth="yes"/>
      <point x="276" y="375"/>
      <point x="297" y="353"/>
      <point x="297" y="303" type="curve"/>
      <point x="334" y="303" type="line"/>
      <point x="334" y="487" type="line"/>
      <point x="297" y="487" type="line"/>
      <point x="297" y="439"/>
      <point x="274" y="415"/>
      <point x="228" y="415" type="curve" smooth="yes"/>
      <point x="131" y="415" type="line"/>
    </contour>
    <contour>
      <point x="90" y="670" type="line"/>
      <point x="202" y="670" type="line"/>
      <point x="202" y="710" type="line"/>
      <point x="269" y="710" type="line" smooth="yes"/>
      <point x="359" y="710"/>
      <point x="381" y="693"/>
      <point x="415" y="598" type="curve"/>
      <point x="449" y="607" type="line"/>
      <point x="405" y="788" type="line"/>
      <point x="371" y="788" type="line"/>
      <point x="367" y="760"/>
      <point x="355" y="750"/>
      <point x="325" y="750" type="curve" smooth="yes"/>
      <point x="90" y="750" type="line"/>
    </contour>
    <contour>
      <point x="30" y="713" type="line"/>
      <point x="73" y="713"/>
      <point x="90" y="701"/>
      <point x="90" y="670" type="curve"/>
      <point x="147" y="670" type="line"/>
      <point x="147" y="750" type="line"/>
      <point x="30" y="750" type="line"/>
    </contour>
    <contour>
      <point x="30" y="37" type="curve"/>
      <point x="30" y="0" type="line"/>
      <point x="147" y="0" type="line"/>
      <point x="147" y="80" type="line"/>
      <point x="90" y="80" type="line"/>
      <point x="90" y="49"/>
      <point x="73" y="37"/>
    </contour>
    <contour>
      <point x="486" y="179" type="line"/>
      <point x="729" y="179" type="line"/>
      <point x="729" y="219" type="line"/>
      <point x="486" y="219" type="line"/>
    </contour>
    <contour>
      <point x="437" y="84" type="line" smooth="yes"/>
      <point x="430" y="52"/>
      <point x="413.0" y="40.0"/>
      <point x="374" y="40" type="curve" smooth="yes"/>
      <point x="202" y="40" type="line"/>
      <point x="202" y="80" type="line"/>
      <point x="90" y="80" type="line"/>
      <point x="90" y="0" type="line"/>
      <point x="351" y="0" type="line" smooth="yes"/>
      <point x="396.0" y="0.0"/>
      <point x="414" y="-8"/>
      <point x="420" y="-31" type="curve"/>
      <point x="457" y="-31" type="line"/>
      <point x="599" y="617" type="line"/>
      <point x="565" y="617" type="line"/>
      <point x="678" y="78" type="line" smooth="yes"/>
      <point x="684" y="49"/>
      <point x="666" y="37"/>
      <point x="618" y="37" type="curve"/>
      <point x="618" y="0" type="line"/>
      <point x="850" y="0" type="line"/>
      <point x="850" y="37" type="line"/>
      <point x="810" y="37"/>
      <point x="797" y="46"/>
      <point x="790" y="79" type="curve" smooth="yes"/>
      <point x="635" y="764" type="line"/>
      <point x="587" y="764" type="line"/>
    </contour>
  </outline>
</glyph>
<glyph name="J.alt_1" format="2">
  <advance width="292"/>
  <outline>
    <contour>
      <point x="4" y="-120" type="line" smooth="yes"/>
      <point x="133.0" y="-120.0"/>
      <point x="202.0" y="-39.0"/>
      <point x="202" y="114" type="curve" smooth="yes"/>
      <point x="202" y="742" type="line"/>
      <point x="90" y="742" type="line"/>
      <point x="90" y="66" type="line" smooth="yes"/>
      <point x="90.0" y="-27.0"/>
      <point x="54" y="-80"/>
      <point x="-8" y="-80" type="curve" smooth="yes"/>
      <point x="-33" y="-80" type="line"/>
      <point x="-33" y="-120" type="line"/>
    </contour>
    <component base=".component_top_serif" xOffset="-6"/>
  </outline>
</glyph>
<glyph name="K.alt_1" format="2">
  <advance width="542"/>
  <outline>
    <contour>
      <point x="90" y="11" type="line"/>
      <point x="202" y="11" type="line"/>
      <point x="202" y="739" type="line"/>
      <point x="90" y="739" type="line"/>
    </contour>
    <contour>
      <point x="492" y="81" type="curve" smooth="yes"/>
      <point x="356" y="395" type="line"/>
      <point x="294" y="395" type="line"/>
      <point x="418" y="669" type="line" smooth="yes"/>
      <point x="432" y="701"/>
      <point x="452.0" y="713.0"/>
      <point x="491" y="713" type="curve"/>
      <point x="491" y="750" type="line"/>
      <point x="324" y="750" type="line"/>
      <point x="324" y="713" type="line"/>
      <point x="359" y="713"/>
      <point x="380" y="697"/>
      <point x="371" y="677" type="curve" smooth="yes"/>
      <point x="242" y="395" type="line"/>
      <point x="380" y="81" type="line" smooth="yes"/>
      <point x="392" y="53"/>
      <point x="373.0" y="38.0"/>
      <point x="326" y="38" type="curve"/>
      <point x="326" y="1" type="line"/>
      <point x="556" y="1" type="line"/>
      <point x="556" y="38" type="line"/>
      <point x="525.0" y="38"/>
      <point x="504" y="52"/>
    </contour>
    <component base=".component_bottom_serif" xOffset="-6" yOffset="1"/>
    <component base=".component_top_serif" xOffset="-6"/>
  </outline>
</glyph>
<glyph name="L_A" format="2">
  <advance width="833"/>
  <outline>
    <contour>
      <point x="90" y="11" type="line"/>
      <point x="202" y="11" type="line"/>
      <point x="202" y="739" type="line"/>
      <point x="90" y="739" type="line"/>
    </contour>
    <contour>
      <point x="30" y="713" type="line"/>
      <point x="73" y="713"/>
      <point x="90" y="701"/>
      <point x="90" y="670" type="curve"/>
      <point x="202" y="670" type="line"/>
      <point x="202" y="701"/>
      <point x="219" y="713"/>
      <point x="262" y="713" type="curve"/>
      <point x="262" y="750" type="line"/>
      <point x="30" y="750" type="line"/>
    </contour>
    <contour>
      <point x="30" y="37" type="curve"/>
      <point x="30" y="0" type="line"/>
      <point x="147" y="0" type="line"/>
      <point x="147" y="80" type="line"/>
      <point x="90" y="80" type="line"/>
      <point x="90" y="49"/>
      <point x="73" y="37"/>
    </contour>
    <contour>
      <point x="466" y="179" type="line"/>
      <point x="709" y="179" type="line"/>
      <point x="709" y="219" type="line"/>
      <point x="466" y="219" type="line"/>
    </contour>
    <contour>
      <point x="417" y="84" type="line" smooth="yes"/>
      <point x="410" y="52"/>
      <point x="393" y="40"/>
      <point x="354" y="40" type="curve" smooth="yes"/>
      <point x="202" y="40" type="line"/>
      <point x="202" y="80" type="line"/>
      <point x="90" y="80" type="line"/>
      <point x="90" y="0" type="line"/>
      <point x="331" y="0" type="line" smooth="yes"/>
      <point x="376" y="0"/>
      <point x="394" y="-8"/>
      <point x="400" y="-31" type="curve"/>
      <point x="437" y="-31" type="line"/>
      <point x="579" y="617" type="line"/>
      <point x="545" y="617" type="line"/>
      <point x="658" y="78" type="line" smooth="yes"/>
      <point x="664" y="49"/>
      <point x="646" y="37"/>
      <point x="598" y="37" type="curve"/>
      <point x="598" y="0" type="line"/>
      <point x="830" y="0" type="line"/>
      <point x="830" y="37" type="line"/>
      <point x="790" y="37"/>
      <point x="777" y="46"/>
      <point x="770" y="79" type="curve" smooth="yes"/>
      <point x="615" y="764" type="line"/>
      <point x="567" y="764" type="line"/>
    </contour>
  </outline>
</glyph>
<glyph name="R_R" format="2">
  <advance width="1035"/>
  <outline>
    <contour>
      <point x="90" y="11" type="line"/>
      <point x="202" y="11" type="line"/>
      <point x="202" y="739" type="line"/>
      <point x="90" y="739" type="line"/>
    </contour>
    <contour>
      <point x="280" y="323" type="line"/>
      <point x="324" y="323"/>
      <point x="353.0" y="282.0"/>
      <point x="353" y="223" type="curve" smooth="yes"/>
      <point x="353" y="195" type="line" smooth="yes"/>
      <point x="353" y="66"/>
      <point x="404" y="0"/>
      <point x="541" y="0" type="curve"/>
      <point x="541" y="0"/>
      <point x="580" y="0"/>
      <point x="580" y="0" type="curve"/>
      <point x="580" y="37" type="line"/>
      <point x="541" y="37" type="line" smooth="yes"/>
      <point x="497" y="37"/>
      <point x="468" y="77"/>
      <point x="468" y="136" type="curve" smooth="yes"/>
      <point x="468" y="149" type="line" smooth="yes"/>
      <point x="468.0" y="290.0"/>
      <point x="407" y="363"/>
      <point x="280" y="363" type="curve"/>
      <point x="280" y="363"/>
      <point x="263" y="363"/>
      <point x="263" y="363" type="curve"/>
      <point x="263" y="323" type="line"/>
    </contour>
    <contour>
      <point x="474" y="535" type="curve"/>
      <point x="474" y="676"/>
      <point x="413" y="750"/>
      <point x="286" y="750" type="curve" smooth="yes"/>
      <point x="30" y="750" type="line"/>
      <point x="30" y="713" type="line"/>
      <point x="77" y="713"/>
      <point x="90" y="704"/>
      <point x="90" y="670" type="curve"/>
      <point x="198" y="670" type="line"/>
      <point x="198" y="710" type="line"/>
      <point x="286" y="710" type="line" smooth="yes"/>
      <point x="330" y="710"/>
      <point x="359" y="673"/>
      <point x="359" y="614" type="curve" smooth="yes"/>
      <point x="359" y="461" type="line" smooth="yes"/>
      <point x="359.0" y="402.0"/>
      <point x="330" y="363"/>
      <point x="286" y="363" type="curve" smooth="yes"/>
      <point x="250" y="363" type="line"/>
      <point x="250" y="323" type="line"/>
      <point x="286" y="323" type="line" smooth="yes"/>
      <point x="413" y="323"/>
      <point x="474" y="394"/>
    </contour>
    <contour>
      <point x="90" y="80" type="line"/>
      <point x="90" y="46"/>
      <point x="77" y="37"/>
      <point x="30" y="37" type="curve"/>
      <point x="30" y="0" type="line"/>
      <point x="262" y="0" type="line"/>
      <point x="262" y="37" type="line"/>
      <point x="215" y="37"/>
      <point x="202" y="46"/>
      <point x="202" y="80" type="curve"/>
    </contour>
    <contour>
      <point x="571" y="11" type="line"/>
      <point x="683" y="11" type="line"/>
      <point x="683" y="739" type="line"/>
      <point x="571" y="739" type="line"/>
    </contour>
    <contour>
      <point x="571" y="0" type="line"/>
      <point x="743" y="0" type="line"/>
      <point x="743" y="37" type="line"/>
      <point x="696" y="37"/>
      <point x="683" y="46"/>
      <point x="683" y="80" type="curve"/>
      <point x="571" y="80" type="line"/>
    </contour>
    <contour>
      <point x="761" y="323" type="line"/>
      <point x="805" y="323"/>
      <point x="834" y="282"/>
      <point x="834" y="223" type="curve" smooth="yes"/>
      <point x="834" y="195" type="line" smooth="yes"/>
      <point x="834" y="66"/>
      <point x="885" y="0"/>
      <point x="1022" y="0" type="curve"/>
      <point x="1022" y="0"/>
      <point x="1043" y="0"/>
      <point x="1043" y="0" type="curve"/>
      <point x="1043" y="37" type="line"/>
      <point x="1022" y="37" type="line" smooth="yes"/>
      <point x="978" y="37"/>
      <point x="949" y="77"/>
      <point x="949" y="136" type="curve" smooth="yes"/>
      <point x="949" y="149" type="line" smooth="yes"/>
      <point x="949" y="290"/>
      <point x="888" y="363"/>
      <point x="761" y="363" type="curve"/>
      <point x="761" y="363"/>
      <point x="744" y="363"/>
      <point x="744" y="363" type="curve"/>
      <point x="744" y="323" type="line"/>
    </contour>
    <contour>
      <point x="955" y="535" type="curve"/>
      <point x="955" y="676"/>
      <point x="894" y="750"/>
      <point x="767" y="750" type="curve" smooth="yes"/>
      <point x="511" y="750" type="line"/>
      <point x="511" y="713" type="line"/>
      <point x="558" y="713"/>
      <point x="571" y="704"/>
      <point x="571" y="670" type="curve"/>
      <point x="679" y="670" type="line"/>
      <point x="679" y="710" type="line"/>
      <point x="767" y="710" type="line" smooth="yes"/>
      <point x="811" y="710"/>
      <point x="840.0" y="673.0"/>
      <point x="840" y="614" type="curve" smooth="yes"/>
      <point x="840" y="461" type="line" smooth="yes"/>
      <point x="840" y="402"/>
      <point x="811" y="363"/>
      <point x="767" y="363" type="curve" smooth="yes"/>
      <point x="731" y="363" type="line"/>
      <point x="731" y="323" type="line"/>
      <point x="767" y="323" type="line" smooth="yes"/>
      <point x="894.0" y="323"/>
      <point x="955.0" y="394.0"/>
    </contour>
  </outline>
</glyph>
<glyph name="T_T" format="2">
  <advance width="832"/>
  <outline>
    <contour>
      <point x="201" y="11" type="line"/>
      <point x="313" y="11" type="line"/>
      <point x="313" y="739" type="line"/>
      <point x="201" y="739" type="line"/>
    </contour>
    <contour>
      <point x="201" y="87" type="line"/>
      <point x="201" y="49"/>
      <point x="182" y="34"/>
      <point x="121" y="34" type="curve"/>
      <point x="121" y="0" type="line"/>
      <point x="389" y="0" type="line"/>
      <point x="389" y="34" type="line"/>
      <point x="332.0" y="34.0"/>
      <point x="313.0" y="49.0"/>
      <point x="313" y="87" type="curve"/>
    </contour>
    <contour>
      <point x="513" y="11" type="line"/>
      <point x="625" y="11" type="line"/>
      <point x="625" y="739" type="line"/>
      <point x="513" y="739" type="line"/>
    </contour>
    <contour>
      <point x="513" y="87" type="line"/>
      <point x="513.0" y="49.0"/>
      <point x="494.95" y="34.0"/>
      <point x="437" y="34" type="curve"/>
      <point x="437" y="0" type="line"/>
      <point x="705" y="0" type="line"/>
      <point x="705" y="34" type="line"/>
      <point x="645" y="34"/>
      <point x="625" y="49"/>
      <point x="625" y="87" type="curve"/>
    </contour>
    <contour>
      <point x="132" y="750" type="line" smooth="yes"/>
      <point x="102" y="750"/>
      <point x="92" y="758"/>
      <point x="86" y="787" type="curve"/>
      <point x="52" y="787" type="line"/>
      <point x="8" y="576" type="line"/>
      <point x="45" y="567" type="line"/>
      <point x="79" y="685"/>
      <point x="111" y="710"/>
      <point x="188" y="710" type="curve"/>
      <point x="351" y="710" type="line" smooth="yes"/>
      <point x="381.0" y="710.0"/>
      <point x="391" y="702"/>
      <point x="397" y="673" type="curve"/>
      <point x="433" y="673" type="line"/>
      <point x="439" y="702"/>
      <point x="449.0" y="710.0"/>
      <point x="479" y="710" type="curve" smooth="yes"/>
      <point x="644" y="710" type="line" smooth="yes"/>
      <point x="721" y="710"/>
      <point x="753" y="685"/>
      <point x="787" y="567" type="curve"/>
      <point x="824" y="576" type="line"/>
      <point x="780" y="787" type="line"/>
      <point x="746" y="787" type="line"/>
      <point x="740" y="757"/>
      <point x="731" y="750"/>
      <point x="700" y="750" type="curve"/>
      <point x="479" y="750" type="line" smooth="yes"/>
      <point x="449" y="750"/>
      <point x="439" y="758"/>
      <point x="433" y="787" type="curve"/>
      <point x="397" y="787" type="line"/>
      <point x="391" y="758"/>
      <point x="381.0" y="750.0"/>
      <point x="351" y="750" type="curve" smooth="yes"/>
    </contour>
  </outline>
</glyph>
<glyph name=".component_bottom_serif" format="2">
  <advance width="304"/>
  <outline>
    <contour>
      <point x="36" y="37" type="curve"/>
      <point x="36" y="0" type="line"/>
      <point x="268" y="0" type="line"/>
      <point x="268" y="37" type="line"/>
      <point x="225" y="37"/>
      <point x="208" y="49"/>
      <point x="208" y="80" type="curve"/>
      <point x="96" y="80" type="line"/>
      <point x="96" y="49"/>
      <point x="79" y="37"/>
    </contour>
  </outline>
</glyph>
<glyph name=".component_top_serif" format="2">
  <advance width="304"/>
  <outline>
    <contour>
      <point x="36" y="713" type="line"/>
      <point x="79" y="713"/>
      <point x="96" y="701"/>
      <point x="96" y="670" type="curve"/>
      <point x="208" y="670" type="line"/>
      <point x="208" y="701"/>
      <point x="225" y="713"/>
      <point x="268" y="713" type="curve"/>
      <point x="268" y="750" type="line"/>
      <point x="36" y="750" type="line"/>
    </contour>
  </outline>
</glyph>
<glyph name=".notdef" format="2">
  <advance width="673"/>
  <outline>
    <contour>
      <point x="384" y="373" type="curve"/>
      <point x="384.0" y="491"/>
      <point x="320" y="557.0"/>
      <point x="213" y="557" type="curve"/>
      <point x="113" y="557"/>
      <point x="38" y="490"/>
      <point x="38" y="411" type="curve"/>
      <point x="38" y="361.0"/>
      <point x="75" y="323"/>
      <point x="118" y="322" type="curve" smooth="yes"/>
      <point x="161" y="321"/>
      <point x="196" y="357"/>
      <point x="196" y="401" type="curve" smooth="yes"/>
      <point x="196" y="470"/>
      <point x="126" y="474"/>
      <point x="126" y="474" type="curve"/>
      <point x="126" y="474"/>
      <point x="141" y="510"/>
      <point x="201" y="510" type="curve"/>
      <point x="256" y="510.0"/>
      <point x="289.0" y="459.0"/>
      <point x="289" y="371" type="curve"/>
      <point x="289" y="253.0"/>
      <point x="352" y="187.0"/>
      <point x="460" y="187.0" type="curve"/>
      <point x="560" y="187.0"/>
      <point x="634" y="254.0"/>
      <point x="635" y="332.0" type="curve"/>
      <point x="634" y="383.0"/>
      <point x="598" y="421.0"/>
      <point x="554" y="422.0" type="curve" smooth="yes"/>
      <point x="512" y="423.0"/>
      <point x="477" y="387.0"/>
      <point x="477" y="342.0" type="curve" smooth="yes"/>
      <point x="477" y="274.0"/>
      <point x="547" y="270.0"/>
      <point x="547" y="270.0" type="curve"/>
      <point x="547" y="270.0"/>
      <point x="532" y="233.0"/>
      <point x="472" y="234.0" type="curve"/>
      <point x="417" y="234.0"/>
      <point x="384" y="285.0"/>
    </contour>
  </outline>
</glyph>
<glyph name=".smallcomponent_top_half_serif" format="2">
  <advance width="189"/>
  <outline>
    <contour>
      <point x="36" y="503" type="line"/>
      <point x="79" y="503"/>
      <point x="96" y="491"/>
      <point x="96" y="460" type="curve"/>
      <point x="153" y="460" type="line"/>
      <point x="153" y="540" type="line"/>
      <point x="36" y="540" type="line"/>
    </contour>
  </outline>
</glyph>
<glyph name="ampersand.alt_1" format="2">
  <advance width="470"/>
  <outline>
    <contour>
      <point x="212" y="514" type="curve"/>
      <point x="258.188679245283" y="514.0"/>
      <point x="280.4665498703038" y="493.0169127732884"/>
      <point x="308" y="435" type="curve"/>
      <point x="340" y="444" type="line"/>
      <point x="310" y="558" type="line"/>
      <point x="279" y="558" type="line"/>
      <point x="269.13447063580776" y="531.363070716681"/>
      <point x="256.05882352941177" y="550.0"/>
      <point x="204" y="550" type="curve"/>
      <point x="100" y="550"/>
      <point x="40" y="499"/>
      <point x="40" y="409" type="curve"/>
      <point x="40" y="349"/>
      <point x="63" y="317"/>
      <point x="135" y="281" type="curve"/>
      <point x="135" y="305" type="line"/>
      <point x="64" y="272"/>
      <point x="40" y="235"/>
      <point x="40" y="154" type="curve"/>
      <point x="40" y="45"/>
      <point x="92" y="-10"/>
      <point x="198" y="-10" type="curve"/>
      <point x="307" y="-10"/>
      <point x="358" y="54"/>
      <point x="358" y="189" type="curve" smooth="yes"/>
      <point x="358" y="190" type="line"/>
      <point x="405.0" y="206.0"/>
      <point x="440.0" y="262.0"/>
      <point x="440" y="320" type="curve" smooth="yes"/>
      <point x="440" y="358"/>
      <point x="408" y="391"/>
      <point x="370" y="391" type="curve" smooth="yes"/>
      <point x="333" y="391"/>
      <point x="302" y="358"/>
      <point x="302" y="319" type="curve" smooth="yes"/>
      <point x="302" y="285"/>
      <point x="333" y="258"/>
      <point x="370" y="258" type="curve"/>
      <point x="370" y="258"/>
      <point x="359.4" y="226.0"/>
      <point x="305" y="226" type="curve" smooth="yes"/>
      <point x="277.0" y="226.0"/>
      <point x="261" y="213.9090909090909"/>
      <point x="261" y="188" type="curve" smooth="yes"/>
      <point x="261" y="114" type="line" smooth="yes"/>
      <point x="261" y="57"/>
      <point x="239" y="26"/>
      <point x="198" y="26" type="curve"/>
      <point x="165" y="26"/>
      <point x="146" y="56"/>
      <point x="146" y="104" type="curve" smooth="yes"/>
      <point x="146" y="192" type="line" smooth="yes"/>
      <point x="146" y="251"/>
      <point x="161" y="275"/>
      <point x="198" y="275" type="curve" smooth="yes"/>
      <point x="221" y="275" type="line"/>
      <point x="221" y="313" type="line"/>
      <point x="198" y="313" type="line" smooth="yes"/>
      <point x="165" y="313"/>
      <point x="146" y="338"/>
      <point x="146" y="382" type="curve" smooth="yes"/>
      <point x="146" y="437" type="line" smooth="yes"/>
      <point x="146" y="480"/>
      <point x="176" y="514"/>
    </contour>
  </outline>
</glyph>
<glyph name="apostrophe" format="2">
  <advance width="197"/>
  <outline>
    <contour>
      <point x="79" y="596" type="line"/>
      <point x="130" y="615"/>
      <point x="165" y="658"/>
      <point x="165" y="710" type="curve"/>
      <point x="165" y="752"/>
      <point x="136" y="784"/>
      <point x="98" y="785" type="curve" smooth="yes"/>
      <point x="62" y="786"/>
      <point x="32" y="756"/>
      <point x="32" y="719" type="curve" smooth="yes"/>
      <point x="32" y="661"/>
      <point x="97" y="657"/>
      <point x="97" y="657" type="curve"/>
      <point x="97" y="657"/>
      <point x="89" y="636"/>
      <point x="63" y="626" type="curve"/>
    </contour>
  </outline>
</glyph>
<glyph name="component_beak_right" format="2">
  <advance width="488"/>
  <outline>
    <contour>
      <point x="326" y="711" type="line" smooth="yes"/>
      <point x="373.0" y="711.0"/>
      <point x="407" y="680"/>
      <point x="429" y="622" type="curve"/>
      <point x="461" y="633" type="line"/>
      <point x="412" y="789" type="line"/>
      <point x="381" y="789" type="line"/>
      <point x="381" y="758"/>
      <point x="368.0" y="750.0"/>
      <point x="317" y="750" type="curve" smooth="yes"/>
      <point x="237" y="750" type="line"/>
      <point x="237" y="711" type="line"/>
    </contour>
  </outline>
</glyph>
<glyph name="d_e" format="2">
  <advance width="499"/>
  <outline>
    <contour>
      <point x="282" y="0" type="line" smooth="yes"/>
      <point x="406.0" y="0.0"/>
      <point x="467" y="71"/>
      <point x="467" y="214" type="curve" smooth="yes"/>
      <point x="467" y="326" type="line" smooth="yes"/>
      <point x="467" y="472"/>
      <point x="408.0" y="540.0"/>
      <point x="282" y="540" type="curve" smooth="yes"/>
      <point x="84" y="540" type="line"/>
      <point x="84" y="501" type="line"/>
      <point x="282" y="501" type="line" smooth="yes"/>
      <point x="327.0" y="501.0"/>
      <point x="357" y="463"/>
      <point x="357" y="404" type="curve" smooth="yes"/>
      <point x="357" y="136" type="line" smooth="yes"/>
      <point x="357" y="77"/>
      <point x="327.0" y="39.0"/>
      <point x="282" y="39" type="curve" smooth="yes"/>
      <point x="84" y="39" type="line"/>
      <point x="84" y="0" type="line"/>
    </contour>
    <contour>
      <point x="84" y="11" type="line"/>
      <point x="196" y="11" type="line"/>
      <point x="196" y="529" type="line"/>
      <point x="84" y="529" type="line"/>
    </contour>
    <contour>
      <point x="24" y="503" type="line"/>
      <point x="67" y="503"/>
      <point x="84" y="491"/>
      <point x="84" y="460" type="curve"/>
      <point x="141" y="460" type="line"/>
      <point x="141" y="540" type="line"/>
      <point x="24" y="540" type="line"/>
    </contour>
    <contour>
      <point x="24" y="37" type="curve"/>
      <point x="24" y="0" type="line"/>
      <point x="141" y="0" type="line"/>
      <point x="141" y="80" type="line"/>
      <point x="84" y="80" type="line"/>
      <point x="84" y="49"/>
      <point x="67" y="37"/>
    </contour>
    <contour>
      <point x="113" y="247" type="line"/>
      <point x="233" y="247" type="line" smooth="yes"/>
      <point x="260" y="247"/>
      <point x="272" y="228"/>
      <point x="272" y="186" type="curve"/>
      <point x="304" y="186" type="line"/>
      <point x="304" y="338" type="line"/>
      <point x="272" y="338" type="line"/>
      <point x="272" y="303"/>
      <point x="259" y="286"/>
      <point x="233" y="286" type="curve" smooth="yes"/>
      <point x="113" y="286" type="line"/>
    </contour>
  </outline>
</glyph>
<glyph name="daggerdbl.alt_1" format="2">
  <advance width="518"/>
  <outline>
    <contour>
      <point x="238" y="28" type="line"/>
      <point x="250" y="-57" type="line"/>
      <point x="267" y="-57" type="line"/>
      <point x="280" y="28" type="line"/>
      <point x="259" y="14" type="line"/>
    </contour>
    <contour>
      <point x="317" y="309" type="curve"/>
      <point x="303" y="196" type="line"/>
      <point x="328" y="196" type="line"/>
      <point x="328" y="183" type="line"/>
      <point x="188" y="183" type="line"/>
      <point x="188" y="196" type="line"/>
      <point x="214" y="196" type="line"/>
      <point x="201" y="309" type="line"/>
      <point x="151" y="309.0"/>
      <point x="108.0" y="269"/>
      <point x="108" y="220" type="curve" smooth="yes"/>
      <point x="108" y="141"/>
      <point x="259" y="35"/>
      <point x="259" y="35" type="curve"/>
      <point x="259" y="35"/>
      <point x="406" y="141"/>
      <point x="408" y="220" type="curve"/>
      <point x="408.0" y="269.0"/>
      <point x="366" y="309.0"/>
    </contour>
    <contour>
      <point x="241" y="539" type="curve"/>
      <point x="234" y="454"/>
      <point x="190" y="460"/>
      <point x="190" y="429" type="curve" smooth="yes"/>
      <point x="190" y="406"/>
      <point x="211" y="359"/>
      <point x="227" y="196" type="curve"/>
      <point x="290" y="196" type="line"/>
      <point x="306" y="359"/>
      <point x="327" y="406"/>
      <point x="327" y="429" type="curve" smooth="yes"/>
      <point x="327" y="460"/>
      <point x="280" y="454"/>
      <point x="275" y="539" type="curve"/>
      <point x="345" y="535"/>
      <point x="361" y="506"/>
      <point x="394" y="506" type="curve" smooth="yes"/>
      <point x="433" y="506"/>
      <point x="445" y="533"/>
      <point x="445" y="559" type="curve"/>
      <point x="445" y="582"/>
      <point x="431" y="610"/>
      <point x="392" y="610" type="curve" smooth="yes"/>
      <point x="360" y="610"/>
      <point x="343" y="581"/>
      <point x="276" y="576" type="curve"/>
      <point x="282" y="653"/>
      <point x="311" y="672"/>
      <point x="311" y="708" type="curve" smooth="yes"/>
      <point x="311" y="748"/>
      <point x="283" y="761"/>
      <point x="259" y="761" type="curve"/>
      <point x="233" y="761"/>
      <point x="206" y="748"/>
      <point x="206" y="708" type="curve" smooth="yes"/>
      <point x="206" y="672"/>
      <point x="234" y="653"/>
      <point x="241" y="576" type="curve"/>
      <point x="174" y="581"/>
      <point x="158" y="610"/>
      <point x="128" y="610" type="curve" smooth="yes"/>
      <point x="87" y="610"/>
      <point x="73" y="582"/>
      <point x="73" y="559" type="curve"/>
      <point x="73" y="533"/>
      <point x="86" y="506"/>
      <point x="126" y="506" type="curve" smooth="yes"/>
      <point x="157" y="506"/>
      <point x="174" y="535"/>
    </contour>
  </outline>
</glyph>
<glyph name="e_a" format="2">
  <advance width="844"/>
  <outline>
    <contour>
      <point x="84" y="11" type="line"/>
      <point x="193" y="11" type="line"/>
      <point x="193" y="529" type="line"/>
      <point x="84" y="529" type="line"/>
    </contour>
    <contour>
      <point x="145" y="247" type="line"/>
      <point x="265" y="247" type="line" smooth="yes"/>
      <point x="292" y="247"/>
      <point x="304" y="228"/>
      <point x="304" y="186" type="curve"/>
      <point x="336" y="186" type="line"/>
      <point x="336" y="338" type="line"/>
      <point x="304" y="338" type="line"/>
      <point x="304" y="303"/>
      <point x="291" y="286"/>
      <point x="265" y="286" type="curve" smooth="yes"/>
      <point x="145" y="286" type="line"/>
    </contour>
    <contour>
      <point x="264" y="501" type="line" smooth="yes"/>
      <point x="352" y="501"/>
      <point x="374" y="484"/>
      <point x="410" y="388" type="curve"/>
      <point x="443" y="397" type="line"/>
      <point x="402" y="559" type="line"/>
      <point x="369" y="559" type="line"/>
      <point x="368" y="545"/>
      <point x="355" y="540"/>
      <point x="320" y="540" type="curve" smooth="yes"/>
      <point x="84" y="540" type="line"/>
      <point x="84" y="463" type="line"/>
      <point x="193" y="463" type="line"/>
      <point x="193" y="501" type="line"/>
    </contour>
    <contour>
      <point x="24" y="503" type="line"/>
      <point x="67" y="503"/>
      <point x="84" y="491"/>
      <point x="84" y="460" type="curve"/>
      <point x="141" y="460" type="line"/>
      <point x="141" y="540" type="line"/>
      <point x="24" y="540" type="line"/>
    </contour>
    <contour>
      <point x="24" y="37" type="curve"/>
      <point x="24" y="0" type="line"/>
      <point x="141" y="0" type="line"/>
      <point x="141" y="80" type="line"/>
      <point x="84" y="80" type="line"/>
      <point x="84" y="49"/>
      <point x="67" y="37"/>
    </contour>
    <contour>
      <point x="483" y="145" type="line"/>
      <point x="736" y="145" type="line"/>
      <point x="736" y="183" type="line"/>
      <point x="483" y="183" type="line"/>
    </contour>
    <contour>
      <point x="465" y="173" type="line" smooth="yes"/>
      <point x="424" y="47"/>
      <point x="409.0" y="39.0"/>
      <point x="312" y="39" type="curve" smooth="yes"/>
      <point x="193" y="39" type="line"/>
      <point x="193" y="77" type="line"/>
      <point x="84" y="77" type="line"/>
      <point x="84" y="0" type="line"/>
      <point x="345" y="0" type="line" smooth="yes"/>
      <point x="392.0" y="0.0"/>
      <point x="408" y="-5"/>
      <point x="414" y="-21" type="curve"/>
      <point x="448" y="-21" type="line"/>
      <point x="595" y="427" type="line"/>
      <point x="573" y="427" type="line"/>
      <point x="683" y="78" type="line" smooth="yes"/>
      <point x="692" y="50"/>
      <point x="673" y="37"/>
      <point x="622" y="37" type="curve"/>
      <point x="622" y="0" type="line"/>
      <point x="852" y="0" type="line"/>
      <point x="852" y="37" type="line"/>
      <point x="811" y="37"/>
      <point x="802" y="44"/>
      <point x="790" y="79" type="curve" smooth="yes"/>
      <point x="634" y="544" type="line"/>
      <point x="586" y="544" type="line"/>
    </contour>
  </outline>
</glyph>
<glyph name="emdash_small" format="2">
  <advance width="828"/>
  <outline>
    <contour>
      <point x="0" y="252" type="line"/>
      <point x="828" y="252" type="line"/>
      <point x="828" y="328" type="line"/>
      <point x="0" y="328" type="line"/>
    </contour>
  </outline>
</glyph>
<glyph name="guillemotleft" format="2">
  <advance width="529"/>
  <outline>
    <contour>
      <point x="101" y="225" type="line"/>
      <point x="363" y="540" type="line"/>
      <point x="261" y="540" type="line"/>
      <point x="36" y="272" type="line"/>
    </contour>
    <contour>
      <point x="108" y="319" type="line"/>
      <point x="36" y="272" type="line"/>
      <point x="261" y="0" type="line"/>
      <point x="363" y="0" type="line"/>
    </contour>
    <contour>
      <point x="291" y="225" type="line"/>
      <point x="553" y="540" type="line"/>
      <point x="451" y="540" type="line"/>
      <point x="226" y="272" type="line"/>
    </contour>
    <contour>
      <point x="298" y="319" type="line"/>
      <point x="226" y="272" type="line"/>
      <point x="451" y="0" type="line"/>
      <point x="553" y="0" type="line"/>
    </contour>
  </outline>
</glyph>
